<!-- 
	Icons from:
	http://www.flaticon.com/packs/e-commerce-elements

	Usage:
	<svg><use xlink:href="#icon-id"></use></svg>
-->

<svg style="position:absolute; width: 0; height: 0" xmlns="http://www.w3.org/2000/svg" xmlns:xlink="http://www.w3.org/1999/xlink">
	<symbol id="truck-with-right-arrow" viewBox="0 65 323 323">
		<g>
		    <path d="m135.5,296c-12.958,0-23.5,10.542-23.5,23.5s10.542,23.5 23.5,23.5 23.5-10.542 23.5-23.5-10.542-23.5-23.5-23.5zm0,32c-4.687,0-8.5-3.813-8.5-8.5s3.813-8.5 8.5-8.5 8.5,3.813 8.5,8.5-3.813,8.5-8.5,8.5z"/>
		    <path d="m359.5,296c-12.958,0-23.5,10.542-23.5,23.5s10.542,23.5 23.5,23.5 23.5-10.542 23.5-23.5-10.542-23.5-23.5-23.5zm0,32c-4.687,0-8.5-3.813-8.5-8.5s3.813-8.5 8.5-8.5 8.5,3.813 8.5,8.5-3.813,8.5-8.5,8.5z"/>
		    <path d="m455,281.945v-57.794c0-6.986-1.86-13.868-5.38-19.903l-42.38-72.652c-7.052-12.087-20.126-19.596-34.12-19.596h-53.62c-8.547,0-15.5,6.953-15.5,15.5v136.5h-17v-152.5c0-12.958-10.542-23.5-23.5-23.5h-240c-12.958,0-23.5,10.542-23.5,23.5v192c0,12.958 10.542,23.5 23.5,23.5h57.021c3.675,27.067 26.921,48 54.979,48s51.305-20.933 54.979-48h114.041c3.675,27.067 26.921,48 54.979,48s51.305-20.933 54.979-48h33.022c8.547,0 15.5-6.953 15.5-15.5v-16c0-5.827-3.235-10.908-8-13.555zm-23.5-1.945c-8.547,0-15.5,6.953-15.5,15.5v16.5h-1.521c-3.675-27.067-26.921-48-54.979-48-15.964,0-30.366,6.784-40.5,17.61v-58.61h62.559c4.407,0 8.551,1.716 11.667,4.833l9.941,9.941c5.949,5.95 13.86,9.226 22.273,9.226h14.56v33h-8.5zm8.5-55.849v7.849h-14.559c-4.407,0-8.551-1.716-11.667-4.833l-9.941-9.941c-5.949-5.95-13.86-9.226-22.273-9.226h-62.56v-49h86.859l30.804,52.806c2.183,3.743 3.337,8.012 3.337,12.345zm-120.5-97.151h53.62c8.68,0 16.789,4.658 21.163,12.155l2.826,4.845h-78.109v-16.5c0-0.276 0.224-0.5 0.5-0.5zm-15.5,152v33h-17v-33h17zm-289-32h17v24.5c0,4.687-3.813,8.5-8.5,8.5h-8.5v-33zm0,56.5v-8.5h8.5c12.958,0 23.5-10.542 23.5-23.5v-32c0-4.142-3.358-7.5-7.5-7.5h-24.5v-120.5c0-4.687 3.813-8.5 8.5-8.5h240c4.687,0 8.5,3.813 8.5,8.5v200.5h-81.521c-3.675-27.067-26.921-48-54.979-48s-51.305,20.933-54.979,48h-57.021c-4.687,0-8.5-3.813-8.5-8.5zm120.5,56.5c-22.323,0-40.485-18.155-40.499-40.474 0-0.009 0.001-0.017 0.001-0.026s-0.001-0.017-0.001-0.026c0.014-22.319 18.176-40.474 40.499-40.474 22.332,0 40.5,18.168 40.5,40.5s-18.168,40.5-40.5,40.5zm224,0c-22.332,0-40.5-18.168-40.5-40.5s18.168-40.5 40.5-40.5 40.5,18.168 40.5,40.5-18.168,40.5-40.5,40.5zm88.5-48.5c0,0.276-0.224,0.5-0.5,0.5h-16.5v-16.5c0-0.276 0.224-0.5 0.5-0.5h16c0.276,0 0.5,0.224 0.5,0.5v16z"/>
		    <path d="m213.394,183l-27.197,27.197c-2.929,2.929-2.929,7.678 0,10.606 1.464,1.464 3.384,2.197 5.303,2.197s3.839-0.732 5.303-2.197l40-40c0.149-0.149 0.285-0.306 0.419-0.464 0.024-0.028 0.05-0.053 0.073-0.081 0.214-0.259 0.401-0.532 0.575-0.811 0.036-0.057 0.069-0.116 0.103-0.174 0.169-0.29 0.323-0.586 0.45-0.891 0.002-0.004 0.004-0.008 0.006-0.012 0-0.001 0.001-0.002 0.001-0.004 0.131-0.317 0.233-0.641 0.319-0.97 0.018-0.068 0.034-0.135 0.05-0.203 0.075-0.323 0.136-0.649 0.167-0.979 0-0.005 0-0.009 0.001-0.014 0.03-0.32 0.032-0.641 0.021-0.961-0.003-0.078-0.006-0.155-0.011-0.232-0.021-0.324-0.057-0.647-0.12-0.966-0.001-0.007-0.004-0.014-0.005-0.022-0.063-0.316-0.153-0.626-0.257-0.933-0.021-0.061-0.041-0.122-0.064-0.182-0.227-0.615-0.537-1.204-0.93-1.754-0.045-0.063-0.09-0.125-0.137-0.186-0.202-0.265-0.417-0.524-0.66-0.767l-40-40c-2.929-2.929-7.678-2.929-10.606,0-2.929,2.929-2.929,7.678 0,10.606l27.196,27.197h-157.894c-4.142,0-7.5,3.358-7.5,7.5s3.358,7.5 7.5,7.5h157.894z"/>
		  </g>
	</symbol>

	<symbol id="question-baloon" viewBox="0 0 463 463">
		<g>
		    <path d="m394.772,75.678c-43.666-37.428-101.65-58.041-163.272-58.041s-119.606,20.613-163.272,58.041c-43.998,37.712-68.228,87.95-68.228,141.459 0,28.338 6.758,55.719 20.086,81.382 12.01,23.125 28.771,43.786 49.863,61.481-9.162,22.863-22.082,48.781-29.275,62.77-2.793,5.431-2.201,11.796 1.544,16.611 2.992,3.845 7.438,5.981 12.137,5.981 1.176,0 2.367-0.134 3.556-0.408 22.876-5.274 66.354-17.079 104.111-37.51 22.517,6.101 45.875,9.192 69.479,9.192 61.622,0 119.606-20.613 163.272-58.041 43.997-37.711 68.227-87.949 68.227-141.458s-24.23-103.747-68.228-141.459zm-163.272,325.959c-23.263,0-46.265-3.179-68.366-9.45-1.908-0.541-3.957-0.304-5.693,0.662-36.755,20.451-80.246,32.267-102.899,37.49-0.155,0.036-0.3,0.068-0.483-0.167-0.194-0.25-0.114-0.404-0.044-0.541 9.609-18.688 22.946-45.878 31.915-69.293 1.168-3.05 0.228-6.507-2.325-8.544-21.473-17.137-38.364-37.387-50.205-60.188-12.21-23.506-18.4-48.561-18.4-74.469 0-101.733 97.121-184.5 216.5-184.5s216.5,82.767 216.5,184.5-97.121,184.5-216.5,184.5z"/>
		    <path d="m231.5,322.637c-7.995,0-14.5,6.505-14.5,14.5s6.505,14.5 14.5,14.5 14.5-6.505 14.5-14.5-6.505-14.5-14.5-14.5z"/>
		    <path d="m231.5,97.637c-57.07,0-103.5,39.252-103.5,87.5 0,13.58 3.571,26.593 10.614,38.678 2.086,3.579 6.678,4.788 10.256,2.704 3.579-2.085 4.789-6.678 2.703-10.256-5.688-9.763-8.573-20.235-8.573-31.126 0-39.977 39.701-72.5 88.5-72.5s88.5,32.523 88.5,72.5c0,17.209-7.52,33.905-21.175,47.011-13.834,13.279-32.963,22.035-53.862,24.653-11.951,1.499-20.963,11.527-20.963,23.328v17.008c0,4.142 3.357,7.5 7.5,7.5s7.5-3.358 7.5-7.5v-17.008c0-4.324 3.292-7.875 7.828-8.443 24.081-3.018 46.236-13.216 62.385-28.715 16.629-15.962 25.787-36.501 25.787-57.834 0-48.247-46.43-87.5-103.5-87.5z"/>
		  </g>
	</symbol>

	<symbol id="lock" viewBox="0 0 463 463">
		<g>
		    <path d="M359,176.723V127.5C359,57.196,301.804,0,231.5,0S104,57.196,104,127.5v49.223c-18.205,3.515-32,19.561-32,38.777v88   C72,391.449,143.552,463,231.5,463S391,391.449,391,303.5v-88C391,196.284,377.205,180.238,359,176.723z M231.5,15   C293.532,15,344,65.467,344,127.5V176h-17v-48.5c0-52.659-42.841-95.5-95.5-95.5S136,74.841,136,127.5V176h-17v-48.5   C119,65.467,169.468,15,231.5,15z M151,176v-48.5c0-44.388,36.112-80.5,80.5-80.5S312,83.112,312,127.5V176H151z M376,303.5   c0,79.678-64.822,144.5-144.5,144.5S87,383.178,87,303.5v-88c0-13.509,10.99-24.5,24.5-24.5h240c13.51,0,24.5,10.991,24.5,24.5   V303.5z"/>
		    <path d="m271,295.5c0-12.12-5.448-23.399-14.948-30.944-9.504-7.549-21.872-10.271-33.925-7.468-14.128,3.283-25.483,14.51-28.929,28.604-3.81,15.584 1.84,31.416 14.173,40.925l-5.875,38.512c-0.685,4.483 0.621,9.024 3.582,12.458 2.949,3.421 7.225,5.38 11.739,5.38 0.019,0 0.038,0 0.057,0l29.37-.106c4.515-0.017 8.787-1.994 11.722-5.424s4.227-7.958 3.544-12.42l-5.88-38.409c9.589-7.434 15.37-18.937 15.37-31.108zm-27.272,21.079c-2.663,1.55-4.107,4.571-3.642,7.617l6.596,43.088c0.01,0.063 0.034,0.227-0.114,0.4-0.149,0.174-0.315,0.175-0.378,0.175l-29.369,.106c-0.084,0-0.232-0.001-0.381-0.173-0.149-0.174-0.125-0.339-0.115-0.402l6.59-43.198c0.465-3.044-0.979-6.064-3.642-7.613-9.67-5.627-14.186-16.354-11.504-27.326 2.083-8.517 9.217-15.572 17.753-17.556 2.03-0.472 4.049-0.705 6.031-0.705 5.523,0 10.765,1.81 15.17,5.308 5.896,4.683 9.277,11.681 9.277,19.199-5.68434e-14,8.728-4.588,16.608-12.272,21.08z"/>
		  </g>
	</symbol>

	<symbol id="checklist" viewBox="0 0 463 463">
		<g>
		    <path d="m367.5,32h-57.734c-3.138-9.29-11.93-16-22.266-16h-24.416c-7.41-9.965-19.149-16-31.584-16s-24.174,6.035-31.584,16h-24.416c-10.336,0-19.128,6.71-22.266,16h-57.734c-17.369,0-31.5,14.131-31.5,31.5v368c0,17.369 14.131,31.5 31.5,31.5h272c17.369,0 31.5-14.131 31.5-31.5v-368c0-17.369-14.131-31.5-31.5-31.5zm-214.266,47c3.138,9.29 11.93,16 22.266,16h112c10.336,0 19.128-6.71 22.266-16h42.234v337h-241v-337h42.234zm22.266-48h28.438c2.67,0 5.139-1.42 6.482-3.728 4.473-7.684 12.353-12.272 21.08-12.272s16.607,4.588 21.079,12.272c1.344,2.308 3.813,3.728 6.482,3.728h28.439c4.687,0 8.5,3.813 8.5,8.5v31.981c0,0.007-0.001,0.013-0.001,0.019 0,0.003 0,0.006 0,0.01-0.005,4.682-3.816,8.49-8.5,8.49h-112c-4.68,0-8.488-3.803-8.499-8.481 0-0.007 0.001-0.013 0.001-0.019 0-0.013-0.002-0.026-0.002-0.039v-31.961c0.001-4.687 3.814-8.5 8.501-8.5zm208.5,400.5c0,9.098-7.402,16.5-16.5,16.5h-272c-9.098,0-16.5-7.402-16.5-16.5v-368c0-9.098 7.402-16.5 16.5-16.5h56.5v17h-48.5c-4.143,0-7.5,3.357-7.5,7.5v352c0,4.143 3.357,7.5 7.5,7.5h256c4.143,0 7.5-3.357 7.5-7.5v-352c0-4.143-3.357-7.5-7.5-7.5h-48.5v-17h56.5c9.098,0 16.5,7.402 16.5,16.5v368z"/>
		    <path d="m231.5,63c4.143,0 7.5-3.357 7.5-7.5v-16c0-4.143-3.357-7.5-7.5-7.5s-7.5,3.357-7.5,7.5v16c0,4.143 3.357,7.5 7.5,7.5z"/>
		    <path d="m239.5,167h48c4.143,0 7.5-3.357 7.5-7.5s-3.357-7.5-7.5-7.5h-48c-4.143,0-7.5,3.357-7.5,7.5s3.357,7.5 7.5,7.5z"/>
		    <path d="m239.5,199h80c4.143,0 7.5-3.357 7.5-7.5s-3.357-7.5-7.5-7.5h-80c-4.143,0-7.5,3.357-7.5,7.5s3.357,7.5 7.5,7.5z"/>
		    <path d="m162.196,196.804c1.465,1.464 3.385,2.196 5.304,2.196s3.839-0.732 5.304-2.196l40-40c2.929-2.93 2.929-7.678 0-10.607-2.93-2.928-7.678-2.928-10.607,0l-34.697,34.697-18.696-18.697c-2.93-2.928-7.678-2.928-10.607,0-2.929,2.93-2.929,7.678 0,10.607l23.999,24z"/>
		    <path d="m239.5,247h48c4.143,0 7.5-3.357 7.5-7.5s-3.357-7.5-7.5-7.5h-48c-4.143,0-7.5,3.357-7.5,7.5s3.357,7.5 7.5,7.5z"/>
		    <path d="m239.5,279h80c4.143,0 7.5-3.357 7.5-7.5s-3.357-7.5-7.5-7.5h-80c-4.143,0-7.5,3.357-7.5,7.5s3.357,7.5 7.5,7.5z"/>
		    <path d="m162.196,276.804c1.465,1.464 3.385,2.196 5.304,2.196s3.839-0.732 5.304-2.196l40-40c2.929-2.93 2.929-7.678 0-10.607-2.93-2.928-7.678-2.928-10.607,0l-34.697,34.697-18.696-18.697c-2.93-2.928-7.678-2.928-10.607,0-2.929,2.93-2.929,7.678 0,10.607l23.999,24z"/>
		    <path d="m239.5,327h48c4.143,0 7.5-3.357 7.5-7.5s-3.357-7.5-7.5-7.5h-48c-4.143,0-7.5,3.357-7.5,7.5s3.357,7.5 7.5,7.5z"/>
		    <path d="m239.5,359h80c4.143,0 7.5-3.357 7.5-7.5s-3.357-7.5-7.5-7.5h-80c-4.143,0-7.5,3.357-7.5,7.5s3.357,7.5 7.5,7.5z"/>
		    <path d="m162.196,356.804c1.465,1.464 3.385,2.196 5.304,2.196s3.839-0.732 5.304-2.196l40-40c2.929-2.93 2.929-7.678 0-10.607-2.93-2.928-7.678-2.928-10.607,0l-34.697,34.697-18.696-18.697c-2.93-2.928-7.678-2.928-10.607,0-2.929,2.93-2.929,7.678 0,10.607l23.999,24z"/>
		  </g>
	</symbol>

	<symbol id="medal" viewBox="0 0 465.063 465.063">
		<g>
		    <path d="m300.859,125.413l-39.633-5.759-17.725-35.913c-2.076-4.206-6.279-6.819-10.97-6.819s-8.894,2.613-10.97,6.819l-17.725,35.913-39.633,5.759c-4.642,0.675-8.426,3.865-9.875,8.326s-0.264,9.266 3.095,12.541l28.679,27.953-6.77,39.474c-0.793,4.623 1.071,9.208 4.867,11.965 2.145,1.558 4.652,2.349 7.179,2.349 1.943,0 3.898-0.469 5.704-1.418l35.448-18.636 35.447,18.635c4.152,2.184 9.089,1.827 12.884-0.93 3.796-2.757 5.66-7.342 4.867-11.965l-6.77-39.474 28.679-27.954c3.358-3.274 4.544-8.079 3.095-12.54s-5.231-7.651-9.873-8.326zm-35.192,40.831c-1.768,1.724-2.574,4.206-2.156,6.639l6.488,37.834-33.977-17.862c-2.186-1.148-4.795-1.148-6.98,0l-33.977,17.862 6.488-37.834c0.418-2.433-0.389-4.915-2.156-6.639l-27.488-26.793 37.987-5.52c2.443-0.354 4.555-1.889 5.647-4.103l16.988-34.422 16.988,34.422c1.093,2.214 3.204,3.748 5.647,4.103l37.987,5.52-27.486,26.793z"/>
		    <path d="m232.532,32c-70.304,0-127.5,57.196-127.5,127.5s57.196,127.5 127.5,127.5 127.5-57.196 127.5-127.5-57.197-127.5-127.5-127.5zm0,240c-62.032,0-112.5-50.468-112.5-112.5s50.468-112.5 112.5-112.5 112.5,50.468 112.5,112.5-50.468,112.5-112.5,112.5z"/>
		    <path d="m406.833,413.017l-59.285-143.127c27.534-28.677 44.484-67.59 44.484-110.39 0-87.948-71.552-159.5-159.5-159.5s-159.5,71.552-159.5,159.5c0,42.8 16.949,81.713 44.484,110.39l-59.286,143.127c-2.327,5.616-1.226,11.895 2.874,16.384 4.099,4.489 10.249,6.157 16.058,4.346l37.378-11.647 18.196,34.667c2.712,5.167 7.912,8.297 13.696,8.297 0.242,0 0.485-0.005 0.729-0.017 6.073-0.275 11.292-3.936 13.618-9.553l56.83-137.198c4.914,0.458 9.89,0.704 14.922,0.704s10.008-0.245 14.922-0.704l56.83,137.198c2.326,5.617 7.545,9.277 13.618,9.553 0.244,0.012 0.487,0.017 0.729,0.017 5.783,0 10.985-3.131 13.696-8.297l18.196-34.667 37.379,11.646c5.809,1.812 11.958,0.142 16.057-4.346 4.101-4.489 5.203-10.767 2.875-16.383zm-259.911,36.737c-0.058,0.138-0.122,0.294-0.44,0.309-0.314,0.021-0.396-0.135-0.465-0.267l-21.101-40.201c-1.683-3.207-5.413-4.754-8.872-3.675l-43.344,13.506c-0.143,0.043-0.306,0.094-0.52-0.141s-0.149-0.391-0.093-0.528l57.106-137.865c8.547,7.287 17.866,13.692 27.822,19.066l-33.422,80.689c-1.586,3.827 0.231,8.214 4.059,9.799 0.938,0.39 1.91,0.573 2.867,0.573 2.943,0 5.735-1.744 6.932-4.632l33.104-79.921c10.089,4.271 20.709,7.52 31.725,9.644l-55.358,133.644zm-58.89-290.254c0-79.678 64.822-144.5 144.5-144.5s144.5,64.822 144.5,144.5-64.823,144.5-144.5,144.5-144.5-64.822-144.5-144.5zm304.851,259.785c-0.216,0.234-0.376,0.184-0.519,0.141l-43.346-13.506c-3.46-1.08-7.189,0.468-8.872,3.675l-21.101,40.201c-0.069,0.132-0.167,0.279-0.465,0.267-0.318-0.015-0.383-0.171-0.44-0.309l-55.357-133.644c11.016-2.124 21.636-5.373 31.725-9.644l33.104,79.921c1.196,2.889 3.988,4.632 6.932,4.632 0.956,0 1.929-0.185 2.867-0.573 3.827-1.585 5.645-5.972 4.059-9.799l-33.422-80.689c9.956-5.374 19.275-11.78 27.822-19.066l57.106,137.865c0.057,0.138 0.121,0.294-0.093,0.528z"/>
		  </g>
	</symbol>

	<symbol id="operator" viewBox="0 0 463 463">
		<path d="m372.96,351.135l-57.626-14.407-17.293-17.293c-3.015-3.015-7.027-4.516-11.042-4.498v-13.947c2.614-1.831 5.158-3.794 7.633-5.868 3.103-0.62 24.419-5.017 46.099-12.908 33.826-12.311 50.269-26.283 50.269-42.714 0-95.671-22.196-164.244-65.971-203.814-34.349-31.05-73.342-35.686-93.529-35.686s-59.18,4.636-93.529,35.686c-43.775,39.57-65.971,108.143-65.971,203.814 0,16.431 16.443,30.403 50.268,42.714 21.68,7.891 42.996,12.288 46.099,12.908 2.476,2.074 5.019,4.037 7.633,5.868v13.947c-4.015-0.018-8.027,1.483-11.042,4.498l-17.293,17.293-57.625,14.407c-24.753,6.187-42.04,28.328-42.04,53.842v34.523c0,12.958 10.542,23.5 23.5,23.5h320c12.958,0 23.5-10.542 23.5-23.5v-34.523c0-25.514-17.287-47.655-42.04-53.842zm-85.525-21.093l14.269,14.269-31.396,43.955c-0.034,0.048-0.125,0.175-0.339,0.205-0.215,0.029-0.335-0.068-0.381-0.104l-26.331-21.065 43.499-37.285c0.196-0.171 0.495-0.16 0.679,0.025zm-152.435-146.542c0-17.563 3.139-35.005 9.123-50.918 16.925,7.965 45.096,16.976 78.009,24.844 37.496,8.964 75.55,15.121 105.763,17.162 0.063,3.542 0.106,7.37 0.106,8.912 0,36.161-12.824,68.649-33.089,90.755-7.551,0.032-15.91-1.141-25.054-3.524 0.739-2.279 1.143-4.708 1.143-7.231 0-12.958-10.542-23.5-23.5-23.5s-23.501,10.542-23.501,23.5 10.542,23.5 23.5,23.5c4.526,0 8.756-1.29 12.346-3.516 6.848,2.078 13.389,3.595 19.617,4.551-14.137,10.153-30.517,15.965-47.963,15.965-53.21,0-96.5-54.056-96.5-120.5zm-11.75,32.5h-11.75c-0.276,0-0.5-0.224-0.5-0.5v-40c0-0.276 0.224-0.5 0.5-0.5h8.724c-0.148,2.828-0.224,5.663-0.224,8.5 0,11.2 1.132,22.084 3.25,32.5zm199.857,50.168c-1.718,1.22-3.536,2.296-5.446,3.241 7.711-11.401 13.919-24.355 18.262-38.409h7.165c-1.692,9.501-6.481,25.583-19.981,35.168zm28.893-50.668c0,0.276-0.224,0.5-0.5,0.5h-11.75c2.118-10.416 3.25-21.3 3.25-32.5 0-1.355-0.036-4.767-0.092-8.2h8.592c0.276,0 0.5,0.224 0.5,0.5v39.7zm-104.5,56.5c-4.687,0-8.5-3.813-8.5-8.5s3.813-8.5 8.5-8.5 8.5,3.813 8.5,8.5-3.813,8.5-8.5,8.5zm-160.5-32.5c0-91.251 20.533-156.08 61.029-192.687 30.622-27.68 65.441-31.813 83.471-31.813s52.849,4.133 83.471,31.813c40.496,36.607 61.029,101.436 61.029,192.687 0,8.45-12.953,17.141-30.169,24.528 8.776-12.748 11.71-27.022 12.683-34.723 5.028-2.565 8.486-7.783 8.486-13.804v-39.7c0-8.547-6.953-15.5-15.5-15.5h-14.22c-0.55-0.158-1.122-0.263-1.717-0.292-64.854-3.111-162.853-27.611-191.483-44.33-1.84-1.074-4.05-1.315-6.08-0.663-2.029,0.653-3.684,2.138-4.552,4.084-5.702,12.782-9.649,26.635-11.73,40.9h-10.218c-8.547,0-15.5,6.953-15.5,15.5v40c0,8.547 6.953,15.5 15.5,15.5h15.577c5.096,16.491 12.764,31.464 22.409,44.194-30.329-8.463-62.486-22.379-62.486-35.694zm144.5,79.5c14.28,0 27.94-3.283 40.5-9.255v13.162l-40.5,34.714-40.5-34.713v-13.162c12.56,5.971 26.22,9.254 40.5,9.254zm-55.935,11.042c0.183-0.184 0.482-0.196 0.679-0.026l43.499,37.285-26.331,21.065c-0.046,0.037-0.168,0.135-0.382,0.105-0.213-0.03-0.305-0.157-0.338-0.205l-31.396-43.956 14.269-14.268zm-81.888,35.645l54.688-13.672 32.122,44.971c2.464,3.448 6.284,5.76 10.482,6.343 0.703,0.098 1.407,0.146 2.11,0.146 3.5,0 6.947-1.19 9.703-3.395l21.218-16.975v40.395c0,4.142 3.358,7.5 7.5,7.5s7.5-3.358 7.5-7.5v-40.395l21.218,16.975c2.756,2.205 6.202,3.394 9.702,3.394 0.703,0 1.409-0.048 2.111-0.146 4.198-0.583 8.018-2.895 10.482-6.343l32.122-44.97 54.688,13.672c1.609,0.402 3.173,0.901 4.691,1.482l-28.858,34.63c-5.904,7.084-9.155,16.065-9.155,25.287v20.914h-209.001v-20.915c0-9.222-3.251-18.203-9.155-25.287l-28.858-34.63c1.517-0.58 3.081-1.079 4.69-1.481zm-30.677,73.813v-34.523c0-11.667 4.955-22.367 13.1-29.842l30.222,36.266c3.662,4.395 5.679,9.965 5.679,15.685v20.914h-40.501c-4.687,0-8.5-3.813-8.5-8.5zm337,0c0,4.687-3.813,8.5-8.5,8.5h-40.5v-20.915c0-5.72 2.017-11.29 5.679-15.685l30.222-36.266c8.144,7.475 13.1,18.175 13.1,29.842v34.524z"/>
	</symbol>

	<symbol id="working-hours" viewBox="0 0 463 463">
		<g>
		    <path d="m106.072,260.335c16.898-7.568 37.928-16.987 37.928-44.335 0-22.056-17.944-40-40-40s-40,17.944-40,40c0,4.143 3.358,7.5 7.5,7.5s7.5-3.357 7.5-7.5c0-13.785 11.215-25 25-25s25,11.215 25,25c0,16.778-11.042,22.576-29.06,30.646-16.012,7.171-35.94,16.097-35.94,40.854 0,4.143 3.358,7.5 7.5,7.5h65c4.142,0 7.5-3.357 7.5-7.5s-3.358-7.5-7.5-7.5h-56.324c3.139-8.997 12.42-13.63 25.896-19.665z"/>
		    <path d="M439.233,368.786l-30.829,12.052C443.751,339.139,463,286.883,463,231.5c0-61.836-24.08-119.971-67.805-163.695   S293.336,0,231.5,0S111.529,24.08,67.805,67.805S0,169.664,0,231.5s24.08,119.971,67.805,163.695S169.664,463,231.5,463   c47.622,0,93.367-14.35,132.288-41.497c3.397-2.369,4.23-7.045,1.861-10.442c-2.369-3.396-7.044-4.23-10.442-1.86   C318.815,434.583,276.038,448,231.5,448c-57.829,0-112.197-22.52-153.089-63.411C37.52,343.697,15,289.329,15,231.5   S37.52,119.303,78.411,78.411C119.303,37.52,173.671,15,231.5,15s112.197,22.52,153.089,63.411   C425.48,119.303,448,173.671,448,231.5c0,53.638-19.306,104.142-54.647,143.791l6.21-38.519c0.659-4.089-2.121-7.938-6.21-8.598   c-4.09-0.66-7.939,2.121-8.598,6.211l-8.037,49.854c-0.896,5.56,1.185,10.991,5.567,14.528c2.827,2.281,6.221,3.461,9.683,3.461   c1.906-0.001,3.833-0.358,5.696-1.086l47.032-18.387c3.857-1.509,5.762-5.858,4.254-9.716   C447.441,369.184,443.092,367.277,439.233,368.786z"/>
		    <path d="m296.385,157.128l-48,144c-1.31,3.93 0.814,8.178 4.744,9.487 0.787,0.262 1.586,0.387 2.373,0.387 3.14,0 6.066-1.987 7.114-5.13l48-144c1.31-3.93-0.814-8.178-4.744-9.487-3.928-1.307-8.177,0.813-9.487,4.743z"/>
		    <path d="m331.944,294.104c1.131,0.609 2.349,0.898 3.549,0.897 2.67,0 5.255-1.43 6.61-3.945l56-104c1.251-2.324 1.189-5.136-0.165-7.401-1.354-2.267-3.799-3.654-6.439-3.654h-64c-4.142,0-7.5,3.357-7.5,7.5s3.358,7.5 7.5,7.5h51.443l-50.047,92.944c-1.962,3.646-0.598,8.195 3.049,10.159z"/>
		    <path d="m215.5,295c4.142,0 7.5-3.357 7.5-7.5v-16.5h8.5c4.142,0 7.5-3.357 7.5-7.5s-3.358-7.5-7.5-7.5h-8.5v-72.5c0-4.143-3.358-7.5-7.5-7.5s-7.5,3.357-7.5,7.5v72.5h-38.42l21.103-70.345c1.19-3.968-1.061-8.148-5.028-9.339-3.966-1.19-8.148,1.061-9.339,5.028l-23.97,79.899c-0.007,0.022-0.013,0.044-0.02,0.066l-.01,.035c-0.013,0.044-0.02,0.088-0.032,0.132-0.053,0.189-0.103,0.379-0.141,0.574-0.024,0.119-0.037,0.238-0.054,0.356-0.018,0.123-0.04,0.244-0.052,0.368-0.019,0.195-0.026,0.388-0.029,0.582-0.001,0.048-0.007,0.094-0.007,0.143 0,0.006 0.001,0.011 0.001,0.017 0,0.225 0.013,0.449 0.034,0.672 0.003,0.028 0.002,0.057 0.005,0.086 0.021,0.199 0.054,0.395 0.09,0.59 0.01,0.052 0.014,0.105 0.025,0.156 0.02,0.097 0.05,0.192 0.074,0.288 0.203,0.817 0.535,1.581 0.981,2.268 0.021,0.033 0.039,0.068 0.061,0.1 0.073,0.109 0.155,0.211 0.234,0.316 0.068,0.091 0.131,0.184 0.203,0.271 0.038,0.046 0.08,0.087 0.119,0.132 0.509,0.591 1.114,1.103 1.8,1.517 0.103,0.062 0.202,0.128 0.308,0.186 0.037,0.02 0.077,0.036 0.115,0.055 0.185,0.096 0.373,0.188 0.566,0.269 0.021,0.009 0.044,0.015 0.065,0.024 0.212,0.086 0.427,0.164 0.648,0.231 0.005,0.001 0.01,0.004 0.015,0.005 0.014,0.004 0.028,0.005 0.042,0.009 0.294,0.086 0.596,0.151 0.904,0.201 0.084,0.014 0.167,0.028 0.251,0.038 0.289,0.037 0.581,0.061 0.879,0.064 0.027,0 0.054,0.006 0.081,0.006 0.008,0 0.016-0.002 0.024-0.002h48.474v16.5c0,4.145 3.358,7.502 7.5,7.502z"/>
		  </g>
	</symbol>

	<symbol id="cart-moving-right" viewBox="0 0 463 463">
		<g>
		    <path d="m461.245,126.679c-1.425-1.698-3.528-2.679-5.745-2.679h-277.963l-3.005-15.486c-1.918-9.878-10.166-16.514-20.526-16.514h-20.864c-4.142,0-7.5,3.358-7.5,7.5s3.358,7.5 7.5,7.5h20.864c3.101,0 5.269,1.634 5.8,4.372l33.808,174.228c1.319,6.796 3.981,12.908 7.704,18.134l-10.437,8.872c-4.499-3.002-9.924-4.606-15.825-4.606-16.987,0-32.632,13.265-35.618,30.198-1.512,8.575 0.597,17.04 5.786,23.224 5.183,6.177 12.771,9.579 21.368,9.579 16.987,0 32.632-13.264 35.618-30.198 1.027-5.825 0.379-11.596-1.766-16.639l11.559-9.827c7.869,5.527 17.656,8.663 28.461,8.663h121.652c-3.329,4.44-5.694,9.617-6.678,15.198-1.512,8.575 0.597,17.04 5.786,23.224 5.183,6.177 12.771,9.579 21.368,9.579 16.987,0 32.632-13.264 35.618-30.198 1.512-8.575-0.597-17.04-5.787-23.224-5.183-6.176-12.771-9.578-21.368-9.578h-150.591c-16.538,0-29.148-9.914-32.125-25.258l-1.502-7.743h192.683c21.473,0 41.252-16.778 45.029-38.198l18.338-104c0.384-2.183-0.217-4.424-1.642-6.123zm-60.312,200.541c2.366,2.82 3.256,6.718 2.505,10.978-1.702,9.65-11.248,17.802-20.846,17.802-4.086,0-7.594-1.499-9.877-4.22-2.366-2.82-3.256-6.718-2.504-10.978 1.701-9.65 11.247-17.802 20.845-17.802 4.086,5.68434e-14 7.594,1.499 9.877,4.22zm-213.495,10.978c-1.702,9.65-11.248,17.802-20.846,17.802-4.086,0-7.594-1.499-9.877-4.22-2.366-2.82-3.256-6.718-2.504-10.978 1.701-9.65 11.247-17.802 20.845-17.802 4.086,0 7.594,1.499 9.877,4.22 2.366,2.82 3.256,6.719 2.505,10.978zm242.338-104c-2.466,13.986-16.322,25.802-30.256,25.802h-195.594l-23.479-121h266.115l-16.786,95.198z"/>
		    <path d="m323.86,242.886c0.44,0.078 0.878,0.115 1.311,0.115 3.571,0 6.736-2.561 7.377-6.199l12.695-72c0.719-4.079-2.005-7.969-6.084-8.688-4.075-0.716-7.969,2.004-8.688,6.084l-12.695,72c-0.719,4.079 2.005,7.969 6.084,8.688z"/>
		    <path d="m355.86,242.886c0.44,0.078 0.878,0.115 1.311,0.115 3.571,0 6.736-2.561 7.377-6.199l12.695-72c0.719-4.079-2.005-7.969-6.084-8.688-4.075-0.716-7.969,2.004-8.688,6.084l-12.695,72c-0.719,4.079 2.005,7.969 6.084,8.688z"/>
		    <path d="m387.86,242.886c0.44,0.078 0.878,0.115 1.311,0.115 3.571,0 6.736-2.561 7.377-6.199l12.695-72c0.719-4.079-2.005-7.969-6.084-8.688-4.075-0.716-7.969,2.004-8.688,6.084l-12.695,72c-0.719,4.079 2.005,7.969 6.084,8.688z"/>
		    <path d="m227.86,242.886c0.44,0.078 0.878,0.115 1.311,0.115 3.571,0 6.736-2.561 7.377-6.199l12.695-72c0.719-4.079-2.005-7.969-6.084-8.688-4.076-0.716-7.969,2.004-8.688,6.084l-12.695,72c-0.719,4.079 2.005,7.969 6.084,8.688z"/>
		    <path d="m259.86,242.886c0.44,0.078 0.878,0.115 1.311,0.115 3.571,0 6.736-2.561 7.377-6.199l12.695-72c0.719-4.079-2.005-7.969-6.084-8.688-4.076-0.716-7.969,2.004-8.688,6.084l-12.695,72c-0.719,4.079 2.005,7.969 6.084,8.688z"/>
		    <path d="m291.86,242.886c0.44,0.078 0.878,0.115 1.311,0.115 3.571,0 6.736-2.561 7.377-6.199l12.695-72c0.719-4.079-2.005-7.969-6.084-8.688-4.076-0.716-7.969,2.004-8.688,6.084l-12.695,72c-0.719,4.079 2.005,7.969 6.084,8.688z"/>
		    <path d="m151,187.5c0-4.142-3.358-7.5-7.5-7.5h-112c-4.142,0-7.5,3.358-7.5,7.5s3.358,7.5 7.5,7.5h112c4.142,0 7.5-3.358 7.5-7.5z"/>
		    <path d="m167,283.5c0-4.142-3.358-7.5-7.5-7.5h-80c-4.142,0-7.5,3.358-7.5,7.5s3.358,7.5 7.5,7.5h80c4.142,0 7.5-3.358 7.5-7.5z"/>
		    <path d="m159,235.5c0-4.142-3.358-7.5-7.5-7.5h-96c-4.142,0-7.5,3.358-7.5,7.5s3.358,7.5 7.5,7.5h96c4.142,0 7.5-3.358 7.5-7.5z"/>
		    <path d="m143,139.5c0-4.142-3.358-7.5-7.5-7.5h-128c-4.142,0-7.5,3.358-7.5,7.5s3.358,7.5 7.5,7.5h128c4.142,0 7.5-3.358 7.5-7.5z"/>
		  </g>
	</symbol>

	<symbol id="globe" viewBox="0 0 463 463">
		<path d="m395.195,67.805c-43.724-43.725-101.859-67.805-163.695-67.805s-119.971,24.08-163.695,67.805-67.805,101.859-67.805,163.695 24.08,119.971 67.805,163.695 101.859,67.805 163.695,67.805 119.971-24.08 163.695-67.805 67.805-101.859 67.805-163.695-24.08-119.971-67.805-163.695zm34.009,252.195h-34.488c8.005-25.444 12.503-52.793 13.183-81h39.959c-0.959,28.346-7.338,55.746-18.654,81zm-414.062-81h39.959c0.679,28.207 5.177,55.556 13.183,81h-34.488c-11.316-25.254-17.695-52.654-18.654-81zm18.654-96h34.488c-8.005,25.444-12.503,52.793-13.183,81h-39.959c0.959-28.346 7.338-55.746 18.654-81zm294.15,81c-0.363-28.221-2.767-55.577-7.039-81h57.973c8.346,24.878 13.278,52.236 14.013,81h-64.947zm-46.076,176h-42.87v-65h63.821c-4.013,18.969-9.161,36.525-15.358,52.123-1.798,4.524-3.667,8.813-5.593,12.877zm-42.87,46.988v-31.988h34.85c-10.691,17.643-22.689,28.727-34.85,31.988zm-49.85-31.988h34.85v31.988c-12.161-3.261-24.159-14.345-34.85-31.988zm-13.613-27.877c-6.197-15.598-11.346-33.153-15.358-52.123h63.821v65h-42.87c-1.926-4.064-3.795-8.353-5.593-12.877zm5.593-324.123h42.87v65h-63.821c4.013-18.969 9.161-36.525 15.358-52.123 1.798-4.524 3.667-8.813 5.593-12.877zm42.87-46.988v31.988h-34.85c10.691-17.643 22.689-28.727 34.85-31.988zm49.85,31.988h-34.85v-31.988c12.161,3.261 24.159,14.345 34.85,31.988zm13.613,27.877c6.197,15.598 11.346,33.153 15.358,52.123h-63.821v-65h42.87c1.926,4.064 3.795,8.353 5.593,12.877zm-63.463,67.123v81h-73.945c0.372-28.338 2.847-55.721 7.241-81h66.704zm0,96v81h-66.703c-4.394-25.279-6.869-52.662-7.241-81h73.944zm15,81v-81h73.945c-0.372,28.338-2.847,55.721-7.241,81h-66.704zm0-96v-81h66.703c4.394,25.279 6.869,52.662 7.241,81h-73.944zm79.124-96c-4.278-21.008-9.885-40.455-16.722-57.661-0.998-2.513-2.021-4.952-3.06-7.339h34.439c16.482,17.839 30.309,39.917 40.536,65h-55.193zm-27.019-80c-5.326-9.946-11.062-18.44-17.129-25.386 15.411,5.638 29.91,14.263 43.13,25.386h-26.001zm-119.21,0h-26c13.22-11.123 27.718-19.748 43.13-25.386-6.068,6.946-11.804,15.44-17.13,25.386zm-7.237,15c-1.039,2.387-2.062,4.826-3.06,7.339-6.836,17.206-12.444,36.653-16.722,57.661h-55.193c10.227-25.083 24.053-47.161 40.536-65h34.439zm-22.565,80c-4.272,25.423-6.676,52.779-7.039,81h-64.947c0.735-28.764 5.667-56.122 14.013-81h57.973zm-71.986,96h64.947c0.363,28.221 2.767,55.577 7.039,81h-57.973c-8.346-24.878-13.278-52.236-14.013-81zm74.769,96c4.278,21.008 9.885,40.455 16.722,57.661 0.998,2.513 2.021,4.952 3.06,7.339h-34.439c-16.482-17.839-30.309-39.917-40.536-65h55.193zm27.019,80c5.326,9.946 11.062,18.44 17.129,25.386-15.411-5.638-29.91-14.263-43.13-25.386h26.001zm119.21,0h26c-13.22,11.123-27.718,19.748-43.13,25.386 6.068-6.946 11.804-15.44 17.13-25.386zm7.237-15c1.039-2.387 2.062-4.826 3.06-7.339 6.836-17.206 12.444-36.653 16.722-57.661h55.193c-10.227,25.083-24.053,47.161-40.536,65h-34.439zm22.565-80c4.272-25.423 6.676-52.779 7.039-81h64.947c-0.735,28.764-5.667,56.122-14.013,81h-57.973zm86.992-96c-0.679-28.207-5.177-55.556-13.183-81h34.488c11.317,25.254 17.695,52.654 18.654,81h-39.959zm13.858-96h-32.247c-8.258-21.675-19.173-41.716-32.522-59.409-1.438-1.905-2.903-3.76-4.381-5.591h14.854c5.932,4.805 11.654,9.938 17.127,15.411 14.901,14.9 27.348,31.595 37.169,49.589zm-75.231-80h-7.289c-3.583-3.633-7.258-7.071-11.018-10.311 6.254,3.129 12.362,6.569 18.307,10.311zm-222.763,0h-7.289c5.945-3.742 12.053-7.182 18.307-10.311-3.76,3.24-7.436,6.678-11.018,10.311zm-45.352,30.411c5.474-5.473 11.195-10.606 17.128-15.411h14.854c-1.478,1.831-2.944,3.686-4.381,5.591-13.349,17.693-24.263,37.734-32.522,59.409h-32.247c9.821-17.994 22.268-34.689 37.168-49.589zm-37.168,256.589h32.247c8.258,21.675 19.173,41.716 32.522,59.409 1.438,1.905 2.903,3.76 4.381,5.591h-14.854c-5.932-4.805-11.654-9.938-17.127-15.411-14.901-14.9-27.348-31.595-37.169-49.589zm75.231,80h7.289c3.583,3.633 7.258,7.071 11.018,10.311-6.254-3.129-12.362-6.569-18.307-10.311zm222.763,0h7.289c-5.945,3.742-12.053,7.182-18.307,10.311 3.76-3.24 7.436-6.678 11.018-10.311zm45.352-30.411c-5.473,5.473-11.195,10.606-17.127,15.411h-14.854c1.478-1.831 2.944-3.686 4.381-5.591 13.349-17.693 24.263-37.734 32.522-59.409h32.247c-9.822,17.994-22.269,34.689-37.169,49.589z"/>
	</symbol>

	<symbol id="clock" viewBox="0 0 463 463">
		<g>
		    <path d="M395.195,67.805C351.471,24.08,293.336,0,231.5,0S111.529,24.08,67.805,67.805S0,169.664,0,231.5   s24.08,119.971,67.805,163.695S169.664,463,231.5,463s119.971-24.08,163.695-67.805S463,293.336,463,231.5   S438.92,111.529,395.195,67.805z M384.589,384.589C343.697,425.48,289.329,448,231.5,448s-112.197-22.52-153.089-63.411   C37.52,343.697,15,289.329,15,231.5S37.52,119.303,78.411,78.411C119.303,37.52,173.671,15,231.5,15s112.197,22.52,153.089,63.411   C425.48,119.303,448,173.671,448,231.5S425.48,343.697,384.589,384.589z"/>
		    <path d="m231.5,40c-105.593,0-191.5,85.906-191.5,191.5s85.907,191.5 191.5,191.5 191.5-85.906 191.5-191.5-85.907-191.5-191.5-191.5zm94.639,340.42l-4.144-7.178c-2.071-3.587-6.657-4.815-10.245-2.745-3.587,2.071-4.816,6.658-2.745,10.245l4.153,7.194c-22.348,11.712-47.496,18.773-74.158,19.894v-24.33c0-4.143-3.358-7.5-7.5-7.5s-7.5,3.357-7.5,7.5v24.33c-26.662-1.121-51.811-8.181-74.158-19.894l4.153-7.193c2.071-3.587 0.842-8.174-2.745-10.245-3.587-2.071-8.174-0.843-10.245,2.745l-4.144,7.177c-21.809-13.909-40.372-32.472-54.28-54.281l7.177-4.144c3.587-2.071 4.816-6.658 2.745-10.245-2.071-3.588-6.659-4.814-10.245-2.745l-7.193,4.153c-11.713-22.348-18.774-47.496-19.895-74.158h24.33c4.142,0 7.5-3.357 7.5-7.5s-3.358-7.5-7.5-7.5h-24.33c1.121-26.662 8.181-51.81 19.894-74.158l7.193,4.153c1.181,0.682 2.471,1.006 3.743,1.006 2.592,0 5.113-1.345 6.502-3.751 2.071-3.587 0.842-8.174-2.745-10.245l-7.177-4.144c13.909-21.809 32.472-40.372 54.281-54.281l4.144,7.178c1.389,2.406 3.91,3.751 6.502,3.751 1.272,0 2.562-0.324 3.743-1.006 3.587-2.07 4.816-6.657 2.745-10.245l-4.153-7.193c22.348-11.713 47.496-18.774 74.158-19.895v24.33c0,4.143 3.358,7.5 7.5,7.5s7.5-3.357 7.5-7.5v-24.33c26.661,1.121 51.81,8.181 74.157,19.894l-4.153,7.194c-2.071,3.588-0.842,8.174 2.745,10.245 1.182,0.682 2.471,1.006 3.743,1.006 2.592,0 5.113-1.345 6.502-3.751l4.144-7.178c21.809,13.909 40.372,32.472 54.281,54.281l-7.178,4.144c-3.587,2.071-4.816,6.658-2.745,10.245 1.389,2.406 3.91,3.751 6.502,3.751 1.272,0 2.563-0.324 3.743-1.006l7.194-4.154c11.713,22.348 18.774,47.496 19.894,74.158h-24.329c-4.142,0-7.5,3.357-7.5,7.5s3.358,7.5 7.5,7.5h24.33c-1.121,26.662-8.181,51.81-19.894,74.158l-7.194-4.154c-3.587-2.07-8.174-0.843-10.245,2.745-2.071,3.587-0.842,8.174 2.745,10.245l7.178,4.144c-13.909,21.811-32.472,40.375-54.281,54.283z"/>
		    <path d="m258.431,247.824c2.899-4.763 4.569-10.352 4.569-16.324 0-14.785-10.241-27.216-24-30.591v-25.409c0-4.143-3.358-7.5-7.5-7.5s-7.5,3.357-7.5,7.5v25.409c-3.152,0.773-6.122,2.015-8.824,3.659l-50.373-50.372c-2.929-2.928-7.678-2.928-10.606,0-2.929,2.93-2.929,7.678 0,10.607l50.372,50.372c-2.898,4.764-4.569,10.353-4.569,16.325 0,14.785 10.241,27.216 24,30.591v89.409c0,4.143 3.358,7.5 7.5,7.5s7.5-3.357 7.5-7.5v-89.409c3.152-0.773 6.122-2.015 8.824-3.659l10.372,10.372c1.464,1.464 3.384,2.196 5.303,2.196s3.839-0.732 5.303-2.196c2.929-2.93 2.929-7.678 0-10.607l-10.371-10.373zm-43.431-16.324c0-9.098 7.402-16.5 16.5-16.5s16.5,7.402 16.5,16.5-7.402,16.5-16.5,16.5-16.5-7.402-16.5-16.5z"/>
		  </g>
	</symbol>

	<symbol id="mobile-app" viewBox="0 0 463 463">
		<g>
		    <path d="m327.5,0h-192c-21.78,0-39.5,17.72-39.5,39.5v384c0,21.78 17.72,39.5 39.5,39.5h192c21.78,0 39.5-17.72 39.5-39.5v-384c0-21.78-17.72-39.5-39.5-39.5zm-216.5,79h241v305h-241v-305zm24.5-64h192c13.509,0 24.5,10.991 24.5,24.5v24.5h-241v-24.5c0-13.509 10.991-24.5 24.5-24.5zm192,433h-192c-13.509,0-24.5-10.991-24.5-24.5v-24.5h241v24.5c0,13.509-10.991,24.5-24.5,24.5z"/>
		    <path d="m207.5,47h48c4.142,0 7.5-3.358 7.5-7.5s-3.358-7.5-7.5-7.5h-48c-4.142,0-7.5,3.358-7.5,7.5s3.358,7.5 7.5,7.5z"/>
		    <path d="m231.5,409c-7.995,0-14.5,6.505-14.5,14.5s6.505,14.5 14.5,14.5 14.5-6.505 14.5-14.5-6.505-14.5-14.5-14.5z"/>
		    <path d="m295.5,264c-7.023,0-13.332,3.101-17.641,8h-68.718c-1.638-1.863-3.565-3.464-5.711-4.735l-3.459-12.265h87.529c12.958,0 23.5-10.542 23.5-23.5v-40.5h0.5c4.142,0 7.5-3.358 7.5-7.5s-3.358-7.5-7.5-7.5h-133.862c-3.197-9.473-12.172-16-22.25-16h-11.888c-4.142,0-7.5,3.358-7.5,7.5s3.358,7.5 7.5,7.5h11.888c3.789,0 7.152,2.546 8.181,6.193l23.476,83.236c-10.834,2.088-19.045,11.636-19.045,23.071 0,12.958 10.542,23.5 23.5,23.5s23.5-10.542 23.5-23.5c0-0.168-0.009-0.333-0.013-0.5h57.026c-0.004,0.167-0.013,0.332-0.013,0.5 0,12.958 10.542,23.5 23.5,23.5s23.5-10.542 23.5-23.5-10.542-23.5-23.5-23.5zm.5-32.5c0,4.687-3.813,8.5-8.5,8.5h-91.76l-13.82-49h114.08v40.5zm-104.5,64.5c-4.687,0-8.5-3.813-8.5-8.5s3.813-8.5 8.5-8.5 8.5,3.813 8.5,8.5-3.813,8.5-8.5,8.5zm104,0c-4.687,0-8.5-3.813-8.5-8.5s3.813-8.5 8.5-8.5 8.5,3.813 8.5,8.5-3.813,8.5-8.5,8.5z"/>
		  </g>
	</symbol>

	<symbol id="globe-with-shopping-cart" viewBox="0 0 463 463">
		<g>
		    <path d="m303.5,0c-83.538,0-151.5,67.962-151.5,151.5 0,22.354 4.965,44.427 14.405,64.5h-101.833l-6.171-16.662c-3.398-9.174-12.254-15.338-22.037-15.338h-20.864c-4.142,0-7.5,3.358-7.5,7.5s3.358,7.5 7.5,7.5h20.864c3.539,0 6.742,2.229 7.971,5.548l64.529,174.228c2.489,6.72 6.22,12.754 10.87,17.885l-7.909,7.908c-4.764-2.898-10.353-4.569-16.325-4.569-17.369,0-31.5,14.131-31.5,31.5s14.131,31.5 31.5,31.5 31.5-14.131 31.5-31.5c0-5.972-1.671-11.561-4.569-16.325l8.824-8.824c8.704,5.515 18.942,8.649 29.654,8.649h123.773c-2.965,4.802-4.681,10.454-4.681,16.5 0,17.369 14.131,31.5 31.5,31.5s31.5-14.131 31.5-31.5-14.132-31.5-31.501-31.5h-150.591c-16.86,0-32.123-10.623-37.979-26.434l-2.432-6.566h191.002c21.78,0 39.5-17.72 39.5-39.5v-32.104c28.75-9.512 54.506-27.834 72.987-52.041 20.289-26.574 31.013-58.337 31.013-91.855 0-83.538-67.962-151.5-151.5-151.5zm24.5,431.5c0,9.098-7.402,16.5-16.5,16.5s-16.5-7.402-16.5-16.5 7.402-16.5 16.5-16.5 16.5,7.402 16.5,16.5zm95.834-215.483c-0.112-0.005-0.221-0.017-0.334-0.017h-47.933c4.287-17.683 6.82-37.023 7.329-57h56.879c-1.078,20.157-6.489,39.479-15.941,57.017zm-72.834,14.983h4.641c-1.433,4.139-2.984,8.118-4.641,11.929v-11.929zm-7.5-15h-32.5v-57h56.895c-0.535,20.184-3.216,39.583-7.736,57h-16.659zm-96.645,0c-4.571-17.585-7.214-37.068-7.747-57h56.892v57h-49.145zm-79.646-72c1.117-20.53 6.792-39.865 16.028-57.013 0.088,0.003 0.174,0.013 0.263,0.013h47.805c-4.185,17.363-6.713,36.591-7.211,57h-56.885zm79.723-57h49.068v57h-56.896c0.552-20.396 3.334-39.765 7.828-57zm64.068-15v-56.026c18.066,4.661 34.11,25.874 44.538,56.026h-44.538zm49.068,15c4.494,17.235 7.276,36.604 7.828,57h-56.896v-57h49.068zm-64.068-71.026v56.026h-44.538c10.428-30.152 26.472-51.365 44.538-56.026zm86.906,128.026c-0.498-20.409-3.026-39.637-7.211-57h47.805c0.089,0 0.175-0.01 0.264-0.013 9.236,17.148 14.91,36.483 16.028,57.013h-56.886zm31.487-72h-42.866c-6.604-20.785-15.767-38.143-26.719-50.605 28.291,9.002 52.609,26.993 69.585,50.605zm-152.2-50.605c-10.952,12.462-20.116,29.82-26.719,50.605h-42.866c16.975-23.612 41.293-41.603 69.585-50.605zm-94.972,137.605h56.884c0.503,19.789 2.981,39.214 7.283,57h-47.888-0.314c-9.414-17.535-14.868-37.044-15.965-57zm-71.721,289c-9.098,0-16.5-7.402-16.5-16.5s7.402-16.5 16.5-16.5 16.5,7.402 16.5,16.5-7.402,16.5-16.5,16.5zm240.5-120.5c0,13.509-10.991,24.5-24.5,24.5h-196.558l-44.814-121h265.872v96.5zm15-48.012v-5.817c8.26-11.629 15.141-26.184 20.381-42.67h43.065c-0.783,1.09-1.563,2.181-2.381,3.252-15.643,20.489-37.065,36.288-61.065,45.235z"/>
		    <path d="m231.5,335c4.142,0 7.5-3.358 7.5-7.5v-72c0-4.142-3.358-7.5-7.5-7.5s-7.5,3.358-7.5,7.5v72c0,4.142 3.358,7.5 7.5,7.5z"/>
		    <path d="m263.5,335c4.142,0 7.5-3.358 7.5-7.5v-72c0-4.142-3.358-7.5-7.5-7.5s-7.5,3.358-7.5,7.5v72c0,4.142 3.358,7.5 7.5,7.5z"/>
		    <path d="m295.5,335c4.142,0 7.5-3.358 7.5-7.5v-72c0-4.142-3.358-7.5-7.5-7.5s-7.5,3.358-7.5,7.5v72c0,4.142 3.358,7.5 7.5,7.5z"/>
		    <path d="m135.5,248c-4.142,0-7.5,3.358-7.5,7.5v72c0,4.142 3.358,7.5 7.5,7.5s7.5-3.358 7.5-7.5v-72c0-4.142-3.358-7.5-7.5-7.5z"/>
		    <path d="m167.5,248c-4.142,0-7.5,3.358-7.5,7.5v72c0,4.142 3.358,7.5 7.5,7.5s7.5-3.358 7.5-7.5v-72c0-4.142-3.358-7.5-7.5-7.5z"/>
		    <path d="m199.5,335c4.142,0 7.5-3.358 7.5-7.5v-72c0-4.142-3.358-7.5-7.5-7.5s-7.5,3.358-7.5,7.5v72c0,4.142 3.358,7.5 7.5,7.5z"/>
		  </g>
	</symbol>

	<symbol id="clothes-measure" viewBox="0 0 463 463">
		<path d="m447.5,256h-72.5v-44.086l64.027-35.571c4.918-2.732 7.973-7.925 7.973-13.55v-21.697c0-5.55-2.855-10.544-7.639-13.358-0.67-0.394-1.361-0.729-2.064-1.016l-26.967-85.778c-3.021-9.61-10.532-17.25-20.089-20.436l-60.37-20.123c-0.016-0.005-0.032-0.008-0.048-0.013-0.162-0.053-0.328-0.095-0.494-0.137-0.082-0.021-0.164-0.046-0.246-0.063-0.13-0.028-0.264-0.047-0.397-0.068-0.122-0.02-0.245-0.042-0.367-0.056-0.092-0.01-0.186-0.013-0.279-0.02-0.163-0.012-0.327-0.024-0.489-0.025-0.016-0.001-0.033-0.003-0.051-0.003h-24.483c-7.909,0-14.506,5.86-15.346,13.634-3.095,28.714-27.243,50.366-56.171,50.366s-53.076-21.652-56.171-50.367c-0.84-7.773-7.436-13.633-15.346-13.633h-24.483c-0.018,0-0.035,0.002-0.052,0.003-0.163,0.001-0.326,0.013-0.49,0.025-0.093,0.007-0.186,0.01-0.278,0.02-0.123,0.014-0.246,0.036-0.369,0.056-0.132,0.021-0.265,0.04-0.395,0.068-0.083,0.018-0.165,0.043-0.248,0.064-0.166,0.042-0.331,0.084-0.493,0.137-0.016,0.005-0.032,0.008-0.048,0.013l-60.368,20.122c-9.558,3.186-17.068,10.825-20.09,20.437l-26.967,85.778c-0.703,0.286-1.393,0.621-2.064,1.015-4.783,2.814-7.638,7.808-7.638,13.358v21.697c0,5.625 3.055,10.817 7.973,13.55l64.027,35.571v44.086h-72.5c-8.547,0-15.5,6.953-15.5,15.5v96c0,8.547 6.953,15.5 15.5,15.5h72.5v32.5c0,5.827 3.235,10.908 8,13.555v18.445c0,8.547 6.953,15.5 15.5,15.5h240c8.547,0 15.5-6.953 15.5-15.5v-18.445c4.765-2.647 8-7.728 8-13.555v-32.5h72.5c8.547,0 15.5-6.953 15.5-15.5v-96c0-8.547-6.953-15.5-15.5-15.5zm-15.5-93.207c0,0.182-0.099,0.349-0.258,0.437l-56.742,31.523v-22.839l56.084-31.158c0.139,0.008 0.274,0.033 0.414,0.033 0.125,0 0.25-0.022 0.375-0.029 0.121,0.12 0.126,0.247 0.126,0.336v21.697zm-9.847-34.236l-47.152,26.196v-32.767c0-6.026 1.105-11.931 3.286-17.549l20.046-51.648 23.82,75.768zm-262.169-113.557c0.253,0 0.424,0.169 0.432,0.241 3.918,36.349 34.478,63.759 71.085,63.759s67.167-27.41 71.085-63.758c0.008-0.073 0.179-0.242 0.432-0.242h16.669c-3.819,45.303-41.912,81-88.186,81s-84.366-35.697-88.186-81h16.669zm-95.315,37.79l20.046,51.648c2.181,5.618 3.286,11.522 3.286,17.548v32.767l-47.152-26.195 23.82-75.768zm-33.41,110.439c-0.159-0.088-0.258-0.255-0.258-0.437v-21.697c0-0.089 0.005-0.216 0.126-0.336 0.125,0.006 0.251,0.029 0.375,0.029 0.139,0 0.275-0.025 0.413-0.033l56.086,31.159v22.839l-56.742-31.524zm71.742,44.367c0-0.016 0-0.031 0-0.047v-39.953c0-0.016 0-0.031 0-0.047v-45.563c0-7.891-1.447-15.621-4.302-22.977l-24.374-62.797c0.999-0.593 2.056-1.1 3.177-1.473l51.004-17.001c5.158,52.282 49.379,93.262 102.995,93.262s97.837-40.98 102.994-93.263l51.005,17.001c1.121,0.374 2.177,0.88 3.177,1.473l-24.374,62.799c-2.854,7.355-4.302,15.086-4.302,22.977v45.563c0,0.016 0,0.031 0,0.047v39.953c0,0.016 0,0.031 0,0.047v48.403h-257v-48.404zm248.5,240.404h-240c-0.275,0-0.5-0.225-0.5-0.5v-16.5h241v16.5c0,0.275-0.225,0.5-0.5,0.5zm8.5-32.5c0,0.275-0.225,0.5-0.5,0.5h-256c-0.275,0-0.5-0.225-0.5-0.5v-32.5h257v32.5zm88-48c0,0.275-0.225,0.5-0.5,0.5h-432c-0.275,0-0.5-0.225-0.5-0.5v-96c0-0.275 0.225-0.5 0.5-0.5h48.5v16.5c0,4.143 3.357,7.5 7.5,7.5s7.5-3.357 7.5-7.5v-16.5h25v32.5c0,4.143 3.357,7.5 7.5,7.5s7.5-3.357 7.5-7.5v-32.5h25v16.5c0,4.143 3.357,7.5 7.5,7.5s7.5-3.357 7.5-7.5v-16.5h25v16.5c0,4.143 3.357,7.5 7.5,7.5s7.5-3.357 7.5-7.5v-16.5h25v32.5c0,4.143 3.357,7.5 7.5,7.5s7.5-3.357 7.5-7.5v-32.5h25v16.5c0,4.143 3.357,7.5 7.5,7.5s7.5-3.357 7.5-7.5v-16.5h25v16.5c0,4.143 3.357,7.5 7.5,7.5s7.5-3.357 7.5-7.5v-16.5h25v32.5c0,4.143 3.357,7.5 7.5,7.5s7.5-3.357 7.5-7.5v-32.5h25v16.5c0,4.143 3.357,7.5 7.5,7.5s7.5-3.357 7.5-7.5v-16.5h48.5c0.275,0 0.5,0.225 0.5,0.5v96z"/>
	</symbol>

	<symbol id="item-return" viewBox="0 0 463 463">
		<g>
		    <path d="m439.5,40h-416c-12.958,0-23.5,10.542-23.5,23.5v336c0,12.958 10.542,23.5 23.5,23.5h416c12.958,0 23.5-10.542 23.5-23.5v-336c0-12.958-10.542-23.5-23.5-23.5zm-167.5,15v84.364l-5.145-2.572c-2.111-1.056-4.598-1.056-6.709,0l-12.645,6.323-12.644-6.323c-2.11-1.055-4.597-1.056-6.707-0.001l-12.653,6.324-12.643-6.323c-1.056-0.528-2.205-0.792-3.354-0.792s-2.299,0.264-3.354,0.792l-5.146,2.573v-84.365h81zm176,344.5c0,4.687-3.813,8.5-8.5,8.5h-416c-4.687,0-8.5-3.813-8.5-8.5v-336c0-4.687 3.813-8.5 8.5-8.5h152.5v96.5c0,2.599 1.346,5.013 3.557,6.38 2.213,1.366 4.975,1.49 7.297,0.329l12.646-6.323 12.643,6.323c2.11,1.055 4.597,1.056 6.707,0.001l12.653-6.324 12.645,6.323c2.111,1.056 4.598,1.056 6.709,0l12.645-6.323 12.645,6.323c1.059,0.529 2.208,0.792 3.354,0.792 1.371,0 2.738-0.376 3.943-1.12 2.211-1.367 3.557-3.78 3.557-6.38v-96.501h152.5c4.687,0 8.5,3.813 8.5,8.5v336z"/>
		    <path d="m287.5,232h-147.759l31.479-17.988c3.597-2.055 4.846-6.636 2.791-10.233-2.056-3.597-6.638-4.847-10.232-2.791l-43.845,25.054c-4.351,2.486-7.136,6.745-7.698,11.62-0.149,0.589-0.236,1.202-0.236,1.837s0.088,1.249 0.236,1.837c0.563,4.875 3.347,9.134 7.698,11.62l43.845,25.054c1.174,0.671 2.452,0.99 3.714,0.99 2.604,0 5.135-1.358 6.519-3.78 2.055-3.597 0.806-8.178-2.791-10.233l-31.48-17.987h147.759c26.743,0 48.5,21.757 48.5,48.5s-21.757,48.5-48.5,48.5h-96c-4.143,0-7.5,3.358-7.5,7.5s3.357,7.5 7.5,7.5h96c35.014,0 63.5-28.486 63.5-63.5s-28.486-63.5-63.5-63.5z"/>
		  </g>
	</symbol>
</svg>