<svg id="Layer_1" data-name="Layer 1" xmlns="http://www.w3.org/2000/svg" viewBox="0 0 192.76 112.17"><defs><style>.cls-1,.cls-4{fill:#fff;}.cls-1{fill-rule:evenodd;}.cls-2{fill:#fab41e;}.cls-3{fill:#e40520;}.cls-5{fill:none;stroke:#fff;stroke-width:0.21px;}</style></defs><title>mc</title><polygon class="cls-1" points="0 0 192.76 0 192.76 112.17 0 112.17 0 0 0 0"/><polygon class="cls-2" points="129.63 104.17 132.07 104.11 134.48 103.93 136.84 103.63 139.19 103.22 141.47 102.69 143.73 102.05 145.93 101.3 148.09 100.45 150.19 99.49 152.24 98.46 154.22 97.31 156.15 96.08 158 94.75 159.79 93.34 161.52 91.86 163.16 90.28 164.74 88.63 166.23 86.91 167.63 85.12 168.96 83.27 170.19 81.33 171.34 79.36 172.38 77.31 173.34 75.2 174.18 73.05 174.93 70.84 175.57 68.59 176.1 66.31 176.51 63.96 176.82 61.6 176.99 59.18 177.06 56.74 176.99 54.31 176.82 51.92 176.51 49.55 176.1 47.24 175.57 44.95 174.93 42.72 174.18 40.51 173.34 38.37 172.38 36.28 171.34 34.24 170.19 32.27 168.96 30.34 167.63 28.49 166.23 26.72 164.74 24.99 163.16 23.35 161.52 21.78 159.79 20.3 158 18.89 156.15 17.57 154.22 16.34 152.24 15.2 150.19 14.16 148.09 13.21 145.93 12.36 143.73 11.61 141.47 10.97 139.19 10.44 136.84 10.03 134.48 9.72 132.07 9.55 129.63 9.48 127.2 9.55 124.79 9.72 122.42 10.03 120.09 10.44 117.81 10.97 115.56 11.61 113.37 12.36 111.21 13.21 109.12 14.16 107.09 15.2 105.11 16.34 103.19 17.57 101.34 18.89 99.55 20.3 97.84 21.78 96.2 23.35 94.63 24.99 93.15 26.72 91.74 28.49 90.43 30.34 89.2 32.27 88.07 34.24 87.02 36.28 86.07 38.37 85.23 40.51 84.49 42.72 83.85 44.95 83.33 47.24 82.91 49.55 82.61 51.92 82.43 54.31 82.37 56.74 82.43 59.18 82.61 61.6 82.91 63.96 83.33 66.31 83.85 68.59 84.49 70.84 85.23 73.05 86.07 75.2 87.02 77.31 88.07 79.36 89.2 81.33 90.43 83.27 91.74 85.12 93.15 86.91 94.63 88.63 96.2 90.28 97.84 91.86 99.55 93.34 101.34 94.75 103.19 96.08 105.11 97.31 107.09 98.46 109.12 99.49 111.21 100.45 113.37 101.3 115.56 102.05 117.81 102.69 120.09 103.22 122.42 103.63 124.79 103.93 127.2 104.11 129.63 104.17"/><polygon class="cls-3" points="66.28 104.17 68.71 104.11 71.13 103.93 73.49 103.63 75.82 103.22 78.1 102.69 80.36 102.05 82.54 101.3 84.7 100.45 86.79 99.49 88.82 98.46 90.8 97.31 92.72 96.08 94.57 94.75 96.36 93.34 98.07 91.86 99.71 90.28 101.28 88.63 102.76 86.91 104.17 85.12 105.48 83.27 106.71 81.33 107.84 79.36 108.89 77.31 109.84 75.2 110.68 73.05 111.42 70.84 112.06 68.59 112.58 66.31 113 63.96 113.3 61.6 113.48 59.18 113.54 56.74 113.48 54.31 113.3 51.92 113 49.55 112.58 47.24 112.06 44.95 111.42 42.72 110.68 40.51 109.84 38.37 108.89 36.28 107.84 34.24 106.71 32.27 105.48 30.34 104.17 28.49 102.76 26.72 101.28 24.99 99.71 23.35 98.07 21.78 96.36 20.3 94.57 18.89 92.72 17.57 90.8 16.34 88.82 15.2 86.79 14.16 84.7 13.21 82.54 12.36 80.36 11.61 78.1 10.97 75.82 10.44 73.49 10.03 71.13 9.72 68.71 9.55 66.28 9.48 63.84 9.55 61.43 9.72 59.07 10.03 56.72 10.44 54.44 10.97 52.18 11.61 49.98 12.36 47.82 13.21 45.72 14.16 43.67 15.2 41.69 16.34 39.76 17.57 37.91 18.89 36.12 20.3 34.39 21.78 32.75 23.35 31.17 24.99 29.68 26.72 28.27 28.49 26.95 30.34 25.72 32.27 24.57 34.24 23.53 36.28 22.57 38.37 21.73 40.51 20.98 42.72 20.34 44.95 19.81 47.24 19.4 49.55 19.09 51.92 18.92 54.31 18.85 56.74 18.92 59.18 19.09 61.6 19.4 63.96 19.81 66.31 20.34 68.59 20.98 70.84 21.73 73.05 22.57 75.2 23.53 77.31 24.57 79.36 25.72 81.33 26.95 83.27 28.27 85.12 29.68 86.91 31.17 88.63 32.75 90.28 34.39 91.86 36.12 93.34 37.91 94.75 39.76 96.08 41.69 97.31 43.67 98.46 45.72 99.49 47.82 100.45 49.98 101.3 52.18 102.05 54.44 102.69 56.72 103.22 59.07 103.63 61.43 103.93 63.84 104.11 66.28 104.17"/><polygon class="cls-2" points="92.41 27.64 117.57 27.64 117.57 25.07 94.58 25.07 92.41 27.64"/><polygon class="cls-2" points="88.64 33.36 117.57 33.36 117.57 30.79 90.16 30.79 88.64 33.36"/><polygon class="cls-2" points="85.83 39.06 117.57 39.06 117.57 36.49 86.95 36.49 85.83 39.06"/><polygon class="cls-2" points="83.9 44.78 117.57 44.78 117.57 42.21 84.7 42.21 83.9 44.78"/><polygon class="cls-2" points="85.02 72.41 117.65 72.41 117.65 69.84 84.22 69.84 85.02 72.41"/><polygon class="cls-2" points="87.43 78.13 117.65 78.13 117.65 75.55 86.23 75.55 87.43 78.13"/><polygon class="cls-2" points="90.82 83.83 117.65 83.83 117.65 81.25 89.2 81.25 90.82 83.83"/><polygon class="cls-2" points="95.48 89.54 117.65 89.54 117.65 86.96 93.23 86.96 95.48 89.54"/><polygon class="cls-2" points="82.77 50.48 117.57 50.48 117.57 47.91 83.26 47.91 82.77 50.48"/><polygon class="cls-2" points="103.98 66.71 117.25 66.71 117.25 64.14 104.45 64.14 103.98 66.71"/><polygon class="cls-2" points="105.03 61.01 117.25 61.01 117.25 58.42 105.51 58.42 105.03 61.01"/><polygon class="cls-2" points="81.89 58.42 85.34 58.42 85.34 61.01 82.05 61.01 81.89 58.42"/><polygon class="cls-4" points="75.45 55.3 75.23 55.29 75 55.26 74.8 55.22 74.59 55.19 74.4 55.16 74.19 55.13 73.98 55.09 73.76 55.06 73.54 55.03 73.28 55.02 72.99 55 72.69 54.98 72.35 54.98 71.99 55 71.57 55.03 71.11 55.06 70.79 55.11 70.49 55.16 70.21 55.26 69.97 55.35 69.75 55.46 69.54 55.59 69.38 55.75 69.24 55.89 69.14 56.07 69.06 56.24 69.03 56.44 69.03 56.63 69.08 56.84 69.14 57.04 69.27 57.25 69.43 57.46 69.75 57.76 70.13 58 70.58 58.21 71.06 58.38 71.57 58.55 72.1 58.72 72.63 58.91 73.14 59.12 73.62 59.39 74.06 59.73 74.46 60.13 74.8 60.62 75.05 61.23 75.21 61.95 75.28 62.81 75.21 63.81 75.1 64.57 74.91 65.22 74.65 65.83 74.33 66.36 73.97 66.82 73.55 67.22 73.11 67.57 72.61 67.87 72.1 68.11 71.57 68.32 71.03 68.48 70.47 68.61 69.93 68.7 69.4 68.75 68.87 68.78 68.38 68.8 67.69 68.8 67.05 68.78 66.49 68.78 65.97 68.77 65.49 68.75 65.06 68.72 64.67 68.69 64.31 68.64 63.97 68.61 63.67 68.54 63.36 68.5 63.09 68.42 62.82 68.35 62.56 68.25 62.31 68.16 62.04 68.06 62.76 64.53 62.9 64.57 63.08 64.61 63.3 64.68 63.57 64.74 63.86 64.81 64.18 64.87 64.53 64.95 64.91 65.01 65.31 65.08 65.73 65.14 66.16 65.19 66.61 65.24 67.07 65.25 67.53 65.27 67.99 65.27 68.46 65.25 68.92 65.16 69.29 65.03 69.58 64.85 69.8 64.63 69.96 64.41 70.09 64.15 70.17 63.9 70.23 63.66 70.26 63.19 70.12 62.79 69.85 62.47 69.45 62.2 68.97 61.96 68.41 61.72 67.79 61.5 67.16 61.24 66.53 60.96 65.92 60.62 65.36 60.21 64.85 59.71 64.45 59.1 64.16 58.38 64.02 57.52 64.03 56.5 64.11 55.88 64.22 55.29 64.39 54.74 64.58 54.23 64.83 53.75 65.12 53.34 65.45 52.94 65.85 52.59 66.32 52.28 66.83 52.03 67.4 51.79 68.04 51.61 68.76 51.47 69.54 51.36 70.41 51.3 71.35 51.28 71.94 51.28 72.48 51.3 72.98 51.31 73.42 51.33 73.82 51.36 74.19 51.39 74.51 51.42 74.8 51.45 75.07 51.49 75.29 51.53 75.5 51.57 75.69 51.6 75.85 51.63 76 51.65 76.14 51.68 76.27 51.69 75.45 55.3"/><polyline class="cls-5" points="75.45 55.3 75.45 55.3 75.23 55.29 75 55.26 74.8 55.22 74.59 55.19 74.4 55.16 74.19 55.13 73.98 55.09 73.76 55.06 73.54 55.03 73.28 55.02 72.99 55 72.69 54.98 72.35 54.98 71.99 55 71.57 55.03 71.11 55.06 71.11 55.06 70.79 55.11 70.49 55.16 70.21 55.26 69.97 55.35 69.75 55.46 69.54 55.59 69.38 55.75 69.24 55.89 69.14 56.07 69.06 56.24 69.03 56.44 69.03 56.63 69.08 56.84 69.14 57.04 69.27 57.25 69.43 57.46 69.43 57.46 69.75 57.76 70.13 58 70.58 58.21 71.06 58.38 71.57 58.55 72.1 58.72 72.63 58.91 73.14 59.12 73.62 59.39 74.06 59.73 74.46 60.13 74.8 60.62 75.05 61.23 75.21 61.95 75.28 62.81 75.21 63.81 75.21 63.81 75.1 64.57 74.91 65.22 74.65 65.83 74.33 66.36 73.97 66.82 73.55 67.22 73.11 67.57 72.61 67.87 72.1 68.11 71.57 68.32 71.03 68.48 70.47 68.61 69.93 68.7 69.4 68.75 68.87 68.78 68.38 68.8 68.38 68.8 67.69 68.8 67.05 68.78 66.49 68.78 65.97 68.77 65.49 68.75 65.06 68.72 64.67 68.69 64.31 68.64 63.97 68.61 63.67 68.54 63.36 68.5 63.09 68.42 62.82 68.35 62.56 68.25 62.31 68.16 62.04 68.06 62.76 64.53 62.76 64.53 62.9 64.57 63.08 64.61 63.3 64.68 63.57 64.74 63.86 64.81 64.18 64.87 64.53 64.95 64.91 65.01 65.31 65.08 65.73 65.14 66.16 65.19 66.61 65.24 67.07 65.25 67.53 65.27 67.99 65.27 68.46 65.25 68.46 65.25 68.92 65.16 69.29 65.03 69.58 64.85 69.8 64.63 69.96 64.41 70.09 64.15 70.17 63.9 70.23 63.66 70.23 63.66 70.26 63.19 70.12 62.79 69.85 62.47 69.45 62.2 68.97 61.96 68.41 61.72 67.79 61.5 67.16 61.24 66.53 60.96 65.92 60.62 65.36 60.21 64.85 59.71 64.45 59.1 64.16 58.38 64.02 57.52 64.03 56.5 64.03 56.5 64.11 55.88 64.22 55.29 64.39 54.74 64.58 54.23 64.83 53.75 65.12 53.34 65.45 52.94 65.85 52.59 66.32 52.28 66.83 52.03 67.4 51.79 68.04 51.61 68.76 51.47 69.54 51.36 70.41 51.3 71.35 51.28 71.35 51.28 71.94 51.28 72.48 51.3 72.98 51.31 73.42 51.33 73.82 51.36 74.19 51.39 74.51 51.42 74.8 51.45 75.07 51.49 75.29 51.53 75.5 51.57 75.69 51.6 75.85 51.63 76 51.65 76.14 51.68 76.27 51.69 75.45 55.3"/><polygon class="cls-4" points="79.24 47.75 83.66 47.75 83.01 51.61 85.67 51.61 85.1 55.22 82.29 55.14 80.75 64.06 80.74 64.37 80.82 64.65 80.98 64.85 81.19 65.03 81.47 65.14 81.79 65.24 82.14 65.3 82.53 65.33 82.88 65.32 83.2 65.28 83.49 65.24 83.74 65.17 83.95 65.11 84.09 65.06 84.19 65.03 84.22 65.01 83.66 67.98 83.55 68.06 83.44 68.13 83.33 68.19 83.21 68.25 83.1 68.3 82.97 68.35 82.83 68.4 82.69 68.45 82.53 68.5 82.37 68.53 82.18 68.56 81.98 68.59 81.78 68.62 81.54 68.66 81.28 68.69 81.01 68.72 79.8 68.72 79.16 68.67 78.6 68.61 78.09 68.51 77.66 68.4 77.29 68.25 76.99 68.1 76.71 67.9 76.51 67.7 76.35 67.47 76.23 67.2 76.16 66.93 76.11 66.63 76.09 66.29 76.09 65.94 76.14 65.57 76.19 65.17 79.24 47.75"/><polyline class="cls-5" points="79.24 47.75 83.66 47.75 83.01 51.61 85.67 51.61 85.1 55.22 82.29 55.14 80.75 64.06 80.75 64.06 80.74 64.37 80.82 64.65 80.98 64.85 81.19 65.03 81.47 65.14 81.79 65.24 82.14 65.3 82.53 65.33 82.53 65.33 82.88 65.32 83.2 65.28 83.49 65.24 83.74 65.17 83.95 65.11 84.09 65.06 84.19 65.03 84.22 65.01 83.66 67.98 83.66 67.98 83.55 68.06 83.44 68.13 83.33 68.19 83.21 68.25 83.1 68.3 82.97 68.35 82.83 68.4 82.69 68.45 82.53 68.5 82.37 68.53 82.18 68.56 81.98 68.59 81.78 68.62 81.54 68.66 81.28 68.69 81.01 68.72 79.8 68.72 79.8 68.72 79.16 68.67 78.6 68.61 78.09 68.51 77.66 68.4 77.29 68.25 76.99 68.1 76.71 67.9 76.51 67.7 76.35 67.47 76.23 67.2 76.16 66.93 76.11 66.63 76.09 66.29 76.09 65.94 76.14 65.57 76.19 65.17 79.24 47.75"/><polygon class="cls-4" points="89.2 61.24 89.16 61.52 89.14 61.8 89.17 62.11 89.23 62.41 89.35 62.71 89.47 63 89.65 63.3 89.84 63.58 90.07 63.85 90.31 64.09 90.56 64.33 90.85 64.52 91.14 64.69 91.45 64.84 91.77 64.95 92.09 65.01 92.51 65.08 92.91 65.13 93.32 65.17 93.74 65.2 94.15 65.22 94.58 65.22 95 65.2 95.43 65.17 95.86 65.11 96.29 65.03 96.74 64.93 97.17 64.79 97.62 64.61 98.08 64.42 98.53 64.17 98.99 63.9 98.35 67.82 98.1 67.95 97.84 68.08 97.59 68.17 97.35 68.27 97.11 68.35 96.85 68.43 96.6 68.5 96.33 68.54 96.04 68.59 95.72 68.62 95.38 68.66 95.02 68.69 94.6 68.7 94.17 68.7 93.67 68.72 93.15 68.72 92.36 68.7 91.57 68.62 90.77 68.51 89.97 68.32 89.19 68.08 88.44 67.78 87.72 67.38 87.05 66.91 86.42 66.37 85.88 65.72 85.42 64.98 85.03 64.14 84.76 63.19 84.59 62.12 84.54 60.94 84.62 59.63 84.68 59.12 84.78 58.53 84.91 57.91 85.08 57.24 85.32 56.55 85.61 55.86 85.98 55.16 86.42 54.49 86.94 53.85 87.56 53.24 88.26 52.7 89.06 52.22 89.99 51.82 91.02 51.53 92.17 51.34 93.47 51.28 94.09 51.3 94.75 51.36 95.4 51.47 96.05 51.63 96.69 51.87 97.32 52.16 97.89 52.54 98.42 52.99 98.9 53.53 99.3 54.17 99.62 54.9 99.84 55.75 99.97 56.71 99.98 57.8 99.87 59.01 99.63 60.35 99.55 61.32 87.91 61.32 88.64 58.18 95.64 58.18 95.67 57.78 95.66 57.4 95.62 57.04 95.56 56.73 95.45 56.42 95.34 56.15 95.18 55.91 95.02 55.69 94.83 55.49 94.62 55.34 94.38 55.19 94.14 55.06 93.88 54.97 93.63 54.9 93.36 54.86 93.07 54.82 92.77 54.84 92.48 54.89 92.21 54.95 91.93 55.05 91.66 55.17 91.42 55.32 91.18 55.49 90.98 55.69 90.77 55.91 90.58 56.15 90.4 56.41 90.26 56.68 90.11 56.96 90 57.28 89.91 57.6 89.84 57.94 89.2 61.24"/><polyline class="cls-5" points="89.2 61.24 89.2 61.24 89.16 61.52 89.14 61.8 89.17 62.11 89.23 62.41 89.35 62.71 89.47 63 89.65 63.3 89.84 63.58 90.07 63.85 90.31 64.09 90.56 64.33 90.85 64.52 91.14 64.69 91.45 64.84 91.77 64.95 92.09 65.01 92.09 65.01 92.51 65.08 92.91 65.13 93.32 65.17 93.74 65.2 94.15 65.22 94.58 65.22 95 65.2 95.43 65.17 95.86 65.11 96.29 65.03 96.74 64.93 97.17 64.79 97.62 64.61 98.08 64.42 98.53 64.17 98.99 63.9 98.35 67.82 98.35 67.82 98.1 67.95 97.84 68.08 97.59 68.17 97.35 68.27 97.11 68.35 96.85 68.43 96.6 68.5 96.33 68.54 96.04 68.59 95.72 68.62 95.38 68.66 95.02 68.69 94.6 68.7 94.17 68.7 93.67 68.72 93.15 68.72 93.15 68.72 92.36 68.7 91.57 68.62 90.77 68.51 89.97 68.32 89.19 68.08 88.44 67.78 87.72 67.38 87.05 66.91 86.42 66.37 85.88 65.72 85.42 64.98 85.03 64.14 84.76 63.19 84.59 62.12 84.54 60.94 84.62 59.63 84.62 59.63 84.68 59.12 84.78 58.53 84.91 57.91 85.08 57.24 85.32 56.55 85.61 55.86 85.98 55.16 86.42 54.49 86.94 53.85 87.56 53.24 88.26 52.7 89.06 52.22 89.99 51.82 91.02 51.53 92.17 51.34 93.47 51.28 93.47 51.28 94.09 51.3 94.75 51.36 95.4 51.47 96.05 51.63 96.69 51.87 97.32 52.16 97.89 52.54 98.42 52.99 98.9 53.53 99.3 54.17 99.62 54.9 99.84 55.75 99.97 56.71 99.98 57.8 99.87 59.01 99.63 60.35 99.55 61.32 87.91 61.32 88.64 58.18 95.64 58.18 95.64 58.18 95.67 57.78 95.66 57.4 95.62 57.04 95.56 56.73 95.45 56.42 95.34 56.15 95.18 55.91 95.02 55.69 94.83 55.49 94.62 55.34 94.38 55.19 94.14 55.06 93.88 54.97 93.63 54.9 93.36 54.86 93.07 54.82 93.07 54.82 92.77 54.84 92.48 54.89 92.21 54.95 91.93 55.05 91.66 55.17 91.42 55.32 91.18 55.49 90.98 55.69 90.77 55.91 90.58 56.15 90.4 56.41 90.26 56.68 90.11 56.96 90 57.28 89.91 57.6 89.84 57.94 89.2 61.24"/><polygon class="cls-4" points="127.29 52.57 127.08 52.46 126.88 52.37 126.65 52.25 126.42 52.14 126.17 52.05 125.9 51.95 125.63 51.85 125.34 51.76 125.04 51.68 124.74 51.61 124.4 51.55 124.07 51.5 123.7 51.47 123.33 51.44 122.95 51.44 122.55 51.44 122.15 51.44 121.73 51.47 121.3 51.52 120.86 51.6 120.41 51.73 119.96 51.9 119.52 52.13 119.07 52.41 118.64 52.76 118.22 53.18 117.82 53.69 117.44 54.28 117.09 54.98 116.75 55.78 116.45 56.68 116.19 57.7 116.1 58.27 116.03 58.83 116 59.39 116.02 59.94 116.07 60.48 116.18 60.99 116.32 61.47 116.5 61.95 116.74 62.38 117.02 62.79 117.36 63.16 117.74 63.5 118.17 63.78 118.67 64.02 119.21 64.23 119.82 64.37 120.03 64.42 120.27 64.47 120.55 64.5 120.87 64.53 121.22 64.57 121.59 64.57 121.99 64.57 122.39 64.53 122.81 64.49 123.22 64.41 123.62 64.3 124.02 64.17 124.42 63.99 124.79 63.78 125.12 63.53 125.44 63.24 124.72 67.5 124.63 67.58 124.53 67.68 124.4 67.79 124.26 67.89 124.08 68.02 123.86 68.13 123.6 68.24 123.32 68.33 122.95 68.45 122.53 68.53 122.06 68.59 121.5 68.66 120.87 68.69 120.15 68.7 119.34 68.69 118.44 68.64 117.71 68.56 116.98 68.4 116.24 68.16 115.51 67.84 114.8 67.46 114.13 66.98 113.49 66.42 112.9 65.78 112.38 65.06 111.93 64.26 111.55 63.37 111.26 62.39 111.07 61.32 111 60.19 111.03 58.94 111.21 57.62 111.34 56.96 111.48 56.33 111.64 55.7 111.8 55.11 111.98 54.55 112.19 53.99 112.39 53.47 112.62 52.97 112.86 52.48 113.09 52.01 113.37 51.57 113.65 51.15 113.94 50.75 114.26 50.37 114.58 50.02 114.92 49.68 115.28 49.36 115.65 49.06 116.03 48.79 116.43 48.53 116.86 48.29 117.3 48.08 117.74 47.89 118.21 47.72 118.7 47.56 119.2 47.43 119.71 47.32 120.25 47.22 120.79 47.14 121.37 47.08 121.94 47.05 122.55 47.03 123.06 47.05 123.56 47.08 124.03 47.13 124.51 47.19 124.96 47.25 125.39 47.35 125.81 47.43 126.19 47.52 126.56 47.62 126.88 47.72 127.18 47.81 127.44 47.91 127.66 47.99 127.85 48.05 128 48.12 128.09 48.15 127.29 52.57"/><polyline class="cls-5" points="127.29 52.57 127.29 52.57 127.08 52.46 126.88 52.37 126.65 52.25 126.42 52.14 126.17 52.05 125.9 51.95 125.63 51.85 125.34 51.76 125.04 51.68 124.74 51.61 124.4 51.55 124.07 51.5 123.7 51.47 123.33 51.44 122.95 51.44 122.55 51.44 122.55 51.44 122.15 51.44 121.73 51.47 121.3 51.52 120.86 51.6 120.41 51.73 119.96 51.9 119.52 52.13 119.07 52.41 118.64 52.76 118.22 53.18 117.82 53.69 117.44 54.28 117.09 54.98 116.75 55.78 116.45 56.68 116.19 57.7 116.19 57.7 116.1 58.27 116.03 58.83 116 59.39 116.02 59.94 116.07 60.48 116.18 60.99 116.32 61.47 116.5 61.95 116.74 62.38 117.02 62.79 117.36 63.16 117.74 63.5 118.17 63.78 118.67 64.02 119.21 64.23 119.82 64.37 119.82 64.37 120.03 64.42 120.27 64.47 120.55 64.5 120.87 64.53 121.22 64.57 121.59 64.57 121.99 64.57 122.39 64.53 122.81 64.49 123.22 64.41 123.62 64.3 124.02 64.17 124.42 63.99 124.79 63.78 125.12 63.53 125.44 63.24 124.72 67.5 124.72 67.5 124.63 67.58 124.53 67.68 124.4 67.79 124.26 67.89 124.08 68.02 123.86 68.13 123.6 68.24 123.32 68.33 122.95 68.45 122.53 68.53 122.06 68.59 121.5 68.66 120.87 68.69 120.15 68.7 119.34 68.69 118.44 68.64 118.44 68.64 117.71 68.56 116.98 68.4 116.24 68.16 115.51 67.84 114.8 67.46 114.13 66.98 113.49 66.42 112.9 65.78 112.38 65.06 111.93 64.26 111.55 63.37 111.26 62.39 111.07 61.32 111 60.19 111.03 58.94 111.21 57.62 111.21 57.62 111.34 56.96 111.48 56.33 111.64 55.7 111.8 55.11 111.98 54.55 112.19 53.99 112.39 53.47 112.62 52.97 112.86 52.48 113.09 52.01 113.37 51.57 113.65 51.15 113.94 50.75 114.26 50.37 114.58 50.02 114.92 49.68 115.28 49.36 115.65 49.06 116.03 48.79 116.43 48.53 116.86 48.29 117.3 48.08 117.74 47.89 118.21 47.72 118.7 47.56 119.2 47.43 119.71 47.32 120.25 47.22 120.79 47.14 121.37 47.08 121.94 47.05 122.55 47.03 122.55 47.03 123.06 47.05 123.56 47.08 124.03 47.13 124.51 47.19 124.96 47.25 125.39 47.35 125.81 47.43 126.19 47.52 126.56 47.62 126.88 47.72 127.18 47.81 127.44 47.91 127.66 47.99 127.85 48.05 128 48.12 128.09 48.15 127.29 52.57"/><polygon class="cls-4" points="166.61 68.72 162.19 68.72 162.51 66.94 162.51 66.79 162.25 67.11 161.98 67.39 161.71 67.65 161.42 67.87 161.13 68.08 160.85 68.25 160.56 68.4 160.26 68.54 159.95 68.66 159.65 68.73 159.35 68.81 159.03 68.86 158.71 68.91 158.4 68.94 158.08 68.96 157.76 68.96 156.93 68.89 156.17 68.72 155.47 68.45 154.83 68.08 154.25 67.62 153.74 67.07 153.29 66.48 152.91 65.81 152.59 65.09 152.34 64.34 152.16 63.56 152.03 62.74 151.98 61.93 152 61.1 152.08 60.29 152.22 59.47 152.46 58.53 152.75 57.63 153.09 56.82 153.49 56.05 153.9 55.34 154.38 54.7 154.87 54.12 155.4 53.59 155.96 53.13 156.55 52.73 157.16 52.38 157.76 52.11 158.4 51.88 159.04 51.74 159.68 51.65 160.34 51.61 160.8 51.63 161.25 51.68 161.66 51.76 162.04 51.87 162.41 52 162.73 52.14 163.05 52.32 163.34 52.49 163.59 52.68 163.83 52.89 164.04 53.1 164.23 53.31 164.39 53.51 164.54 53.72 164.66 53.91 164.76 54.1 164.76 54.1 165.88 47.83 170.22 47.83 166.61 68.72"/><polyline class="cls-5" points="166.61 68.72 162.19 68.72 162.51 66.94 162.51 66.79 162.51 66.79 162.25 67.11 161.98 67.39 161.71 67.65 161.42 67.87 161.13 68.08 160.85 68.25 160.56 68.4 160.26 68.54 159.95 68.66 159.65 68.73 159.35 68.81 159.03 68.86 158.71 68.91 158.4 68.94 158.08 68.96 157.76 68.96 157.76 68.96 156.93 68.89 156.17 68.72 155.47 68.45 154.83 68.08 154.25 67.62 153.74 67.07 153.29 66.48 152.91 65.81 152.59 65.09 152.34 64.34 152.16 63.56 152.03 62.74 151.98 61.93 152 61.1 152.08 60.29 152.22 59.47 152.22 59.47 152.46 58.53 152.75 57.63 153.09 56.82 153.49 56.05 153.9 55.34 154.38 54.7 154.87 54.12 155.4 53.59 155.96 53.13 156.55 52.73 157.16 52.38 157.76 52.11 158.4 51.88 159.04 51.74 159.68 51.65 160.34 51.61 160.34 51.61 160.8 51.63 161.25 51.68 161.66 51.76 162.04 51.87 162.41 52 162.73 52.14 163.05 52.32 163.34 52.49 163.59 52.68 163.83 52.89 164.04 53.1 164.23 53.31 164.39 53.51 164.54 53.72 164.66 53.91 164.76 54.1 164.76 54.1 165.88 47.83 170.22 47.83 166.61 68.72"/><polygon class="cls-2" points="159.38 64.85 159.82 64.82 160.24 64.73 160.62 64.61 160.99 64.44 161.33 64.25 161.65 64.01 161.95 63.74 162.22 63.45 162.46 63.13 162.68 62.78 162.89 62.41 163.07 62.03 163.23 61.63 163.35 61.21 163.47 60.78 163.55 60.35 163.63 59.9 163.67 59.44 163.67 59.01 163.66 58.56 163.61 58.15 163.55 57.75 163.43 57.36 163.31 57 163.15 56.68 162.96 56.37 162.75 56.12 162.51 55.89 162.24 55.7 161.95 55.58 161.65 55.49 161.31 55.46 160.88 55.49 160.48 55.56 160.11 55.69 159.75 55.85 159.43 56.05 159.11 56.31 158.84 56.58 158.56 56.88 158.32 57.24 158.1 57.6 157.89 57.99 157.72 58.4 157.56 58.83 157.43 59.26 157.3 59.73 157.21 60.19 157.13 60.89 157.16 61.66 157.27 62.44 157.48 63.19 157.8 63.85 158.21 64.37 158.74 64.73 159.38 64.85"/><polygon class="cls-4" points="61.3 65.17 60.66 68.72 56.64 68.72 56.75 68.06 56.83 67.47 56.9 67.03 56.96 66.79 56.73 67.04 56.48 67.3 56.18 67.54 55.84 67.76 55.46 67.98 55.06 68.17 54.64 68.37 54.21 68.53 53.75 68.67 53.28 68.78 52.82 68.88 52.34 68.94 51.88 68.97 51.42 68.99 50.97 68.94 50.54 68.88 49.98 68.73 49.47 68.58 49.02 68.37 48.62 68.13 48.27 67.87 47.95 67.58 47.7 67.28 47.47 66.96 47.28 66.63 47.12 66.28 46.99 65.92 46.9 65.57 46.83 65.2 46.78 64.84 46.75 64.49 46.75 64.14 46.8 63.51 46.9 62.92 47.06 62.36 47.26 61.82 47.52 61.31 47.81 60.84 48.14 60.4 48.53 60 48.92 59.63 49.37 59.3 49.84 58.99 50.31 58.74 50.83 58.51 51.35 58.34 51.9 58.19 52.45 58.1 52.49 58.1 52.57 58.08 52.68 58.07 52.85 58.05 53.05 58.02 53.27 58 53.51 57.97 53.78 57.94 54.05 57.91 54.32 57.87 54.61 57.86 54.87 57.83 55.12 57.81 55.36 57.8 55.59 57.78 55.76 57.78 56.13 57.78 56.51 57.8 56.86 57.81 57.21 57.81 57.5 57.83 57.73 57.84 57.88 57.86 57.93 57.86 57.97 57.75 58.06 57.46 58.14 57.12 58.17 56.82 58.11 56.47 57.97 56.15 57.77 55.86 57.52 55.62 57.21 55.41 56.88 55.27 56.49 55.17 56.08 55.14 55.63 55.13 55.15 55.11 54.66 55.11 54.15 55.13 53.62 55.16 53.11 55.21 52.6 55.26 52.1 55.32 51.62 55.38 51.16 55.46 50.75 55.54 50.36 55.62 50.01 55.72 49.72 55.81 49.5 55.93 49.33 56.02 50.46 52.17 50.81 52.03 51.16 51.9 51.55 51.79 51.93 51.71 52.31 51.63 52.73 51.57 53.14 51.5 53.57 51.47 54.02 51.44 54.48 51.42 54.96 51.41 55.46 51.41 55.97 51.41 56.49 51.41 57.05 51.42 57.61 51.44 58.06 51.47 58.54 51.55 59.03 51.66 59.55 51.81 60.04 52 60.52 52.22 61 52.49 61.45 52.8 61.85 53.15 62.2 53.53 62.52 53.96 62.76 54.44 62.92 54.95 63.01 55.49 63.01 56.1 62.92 56.74 61.3 65.17"/><polyline class="cls-5" points="61.3 65.17 60.66 68.72 56.64 68.72 56.64 68.72 56.75 68.06 56.83 67.47 56.9 67.03 56.96 66.79 56.96 66.79 56.73 67.04 56.48 67.3 56.18 67.54 55.84 67.76 55.46 67.98 55.06 68.17 54.64 68.37 54.21 68.53 53.75 68.67 53.28 68.78 52.82 68.88 52.34 68.94 51.88 68.97 51.42 68.99 50.97 68.94 50.54 68.88 50.54 68.88 49.98 68.73 49.47 68.58 49.02 68.37 48.62 68.13 48.27 67.87 47.95 67.58 47.7 67.28 47.47 66.96 47.28 66.63 47.12 66.28 46.99 65.92 46.9 65.57 46.83 65.2 46.78 64.84 46.75 64.49 46.75 64.14 46.75 64.14 46.8 63.51 46.9 62.92 47.06 62.36 47.26 61.82 47.52 61.31 47.81 60.84 48.14 60.4 48.53 60 48.92 59.63 49.37 59.3 49.84 58.99 50.31 58.74 50.83 58.51 51.35 58.34 51.9 58.19 52.45 58.1 52.45 58.1 52.49 58.1 52.57 58.08 52.68 58.07 52.85 58.05 53.05 58.02 53.27 58 53.51 57.97 53.78 57.94 54.05 57.91 54.32 57.87 54.61 57.86 54.87 57.83 55.12 57.81 55.36 57.8 55.59 57.78 55.76 57.78 55.76 57.78 56.13 57.78 56.51 57.8 56.86 57.81 57.21 57.81 57.5 57.83 57.73 57.84 57.88 57.86 57.93 57.86 57.93 57.86 57.97 57.75 58.06 57.46 58.14 57.12 58.17 56.82 58.17 56.82 58.11 56.47 57.97 56.15 57.77 55.86 57.52 55.62 57.21 55.41 56.88 55.27 56.49 55.17 56.08 55.14 56.08 55.14 55.63 55.13 55.15 55.11 54.66 55.11 54.15 55.13 53.62 55.16 53.11 55.21 52.6 55.26 52.1 55.32 51.62 55.38 51.16 55.46 50.75 55.54 50.36 55.62 50.01 55.72 49.72 55.81 49.5 55.93 49.33 56.02 50.46 52.17 50.46 52.17 50.81 52.03 51.16 51.9 51.55 51.79 51.93 51.71 52.31 51.63 52.73 51.57 53.14 51.5 53.57 51.47 54.02 51.44 54.48 51.42 54.96 51.41 55.46 51.41 55.97 51.41 56.49 51.41 57.05 51.42 57.61 51.44 57.61 51.44 58.06 51.47 58.54 51.55 59.03 51.66 59.55 51.81 60.04 52 60.52 52.22 61 52.49 61.45 52.8 61.85 53.15 62.2 53.53 62.52 53.96 62.76 54.44 62.92 54.95 63.01 55.49 63.01 56.1 62.92 56.74 61.3 65.17"/><polygon class="cls-3" points="57.45 61.01 57.44 60.92 57.37 60.84 57.28 60.8 57.12 60.77 56.94 60.73 56.73 60.72 56.49 60.72 56.26 60.72 56 60.73 55.73 60.77 55.47 60.8 55.22 60.83 54.98 60.86 54.76 60.91 54.56 60.96 54.39 61.01 54.28 61.04 54.15 61.08 53.97 61.15 53.8 61.23 53.59 61.32 53.38 61.44 53.16 61.55 52.95 61.67 52.73 61.84 52.52 61.99 52.33 62.19 52.15 62.38 51.99 62.59 51.88 62.81 51.78 63.06 51.74 63.32 51.72 63.86 51.8 64.3 51.96 64.61 52.17 64.85 52.41 65.01 52.68 65.11 52.93 65.16 53.19 65.17 53.67 65.16 54.1 65.11 54.52 65.05 54.88 64.95 55.2 64.84 55.51 64.69 55.78 64.55 56.02 64.37 56.22 64.22 56.42 64.02 56.58 63.85 56.7 63.66 56.81 63.46 56.91 63.27 56.99 63.1 57.04 62.92 57.17 62.46 57.28 61.93 57.37 61.42 57.45 61.01"/><polygon class="cls-4" points="27.7 68.72 23.36 68.72 26.98 47.75 34.54 47.75 35.26 60.19 40.48 47.75 48.37 47.75 44.66 68.72 40.32 68.72 43.06 53.05 42.89 53.05 36.39 68.72 31.49 68.72 31.45 68.06 31.34 66.32 31.2 63.85 31.04 61.01 30.88 58.15 30.73 55.64 30.62 53.82 30.59 53.05 30.54 53.05 30.45 53.05 30.35 53.05 30.35 53.05 27.7 68.72"/><polyline class="cls-5" points="27.7 68.72 23.36 68.72 26.98 47.75 34.54 47.75 35.26 60.19 40.48 47.75 48.37 47.75 44.66 68.72 40.32 68.72 43.06 53.05 42.89 53.05 36.39 68.72 31.49 68.72 31.49 68.72 31.45 68.06 31.34 66.32 31.2 63.85 31.04 61.01 30.88 58.15 30.73 55.64 30.62 53.82 30.59 53.05 30.59 53.05 30.54 53.05 30.45 53.05 30.35 53.05 30.35 53.05 27.7 68.72"/><polygon class="cls-4" points="140.56 65.17 139.91 68.72 135.9 68.72 135.93 68.06 135.95 67.49 135.95 67.06 135.98 66.87 135.77 67.11 135.53 67.34 135.25 67.57 134.93 67.79 134.59 68 134.21 68.19 133.81 68.38 133.41 68.54 132.98 68.67 132.53 68.8 132.08 68.88 131.64 68.94 131.17 68.97 130.73 68.99 130.29 68.94 129.86 68.88 129.29 68.73 128.78 68.58 128.33 68.37 127.92 68.13 127.56 67.87 127.26 67.58 127 67.28 126.78 66.96 126.59 66.63 126.45 66.28 126.32 65.92 126.24 65.57 126.17 65.2 126.13 64.84 126.09 64.49 126.09 64.14 126.13 63.51 126.22 62.92 126.37 62.36 126.57 61.82 126.81 61.31 127.12 60.84 127.45 60.4 127.82 60 128.24 59.63 128.67 59.3 129.13 58.99 129.63 58.74 130.12 58.51 130.65 58.34 131.17 58.19 131.72 58.1 131.75 58.1 131.83 58.08 131.94 58.07 132.1 58.05 132.31 58.02 132.53 58 132.77 57.97 133.03 57.94 133.3 57.91 133.59 57.87 133.86 57.86 134.13 57.83 134.38 57.81 134.61 57.8 134.83 57.78 135.01 57.78 135.39 57.78 135.77 57.8 136.14 57.81 136.49 57.81 136.79 57.83 137.05 57.84 137.19 57.86 137.26 57.86 137.29 57.75 137.34 57.46 137.39 57.12 137.42 56.82 137.35 56.47 137.23 56.15 137.02 55.86 136.78 55.62 136.49 55.41 136.16 55.27 135.81 55.17 135.42 55.14 134.97 55.13 134.5 55.11 134 55.11 133.49 55.13 132.96 55.16 132.45 55.21 131.94 55.26 131.44 55.32 130.97 55.38 130.5 55.46 130.09 55.54 129.7 55.62 129.35 55.72 129.07 55.81 128.84 55.93 128.67 56.02 129.78 52.17 130.14 52.03 130.5 51.9 130.87 51.79 131.25 51.71 131.65 51.63 132.05 51.57 132.47 51.5 132.9 51.47 133.35 51.44 133.81 51.42 134.27 51.41 134.77 51.41 135.26 51.41 135.77 51.41 136.32 51.42 136.86 51.44 137.31 51.47 137.79 51.55 138.28 51.66 138.79 51.81 139.29 52 139.78 52.22 140.26 52.49 140.71 52.8 141.11 53.15 141.47 53.53 141.79 53.96 142.03 54.44 142.21 54.95 142.32 55.49 142.32 56.1 142.24 56.74 140.56 65.17"/><polygon class="cls-4" points="139.91 68.83 140 68.73 140.66 65.19 140.47 65.16 139.81 68.7 139.91 68.61 139.91 68.83 139.99 68.81 140 68.73 139.91 68.83"/><polygon class="cls-4" points="135.81 68.72 135.9 68.83 139.91 68.83 139.91 68.61 135.9 68.61 136 68.72 135.81 68.72 135.79 68.83 135.9 68.83 135.81 68.72"/><polygon class="cls-4" points="136.06 66.93 135.92 66.8 135.85 67.06 135.84 67.49 135.84 68.06 135.81 68.72 136 68.72 136.03 68.06 136.06 67.49 136.04 67.06 136.04 66.93 135.9 66.8 136.06 66.93"/><polygon class="cls-4" points="129.85 68.97 129.85 68.97 130.29 69.04 130.73 69.09 131.17 69.07 131.64 69.04 132.1 68.97 132.55 68.89 132.99 68.77 133.44 68.64 133.84 68.48 134.26 68.29 134.64 68.1 134.97 67.87 135.31 67.65 135.6 67.42 135.85 67.17 136.06 66.93 135.9 66.8 135.69 67.04 135.47 67.27 135.18 67.49 134.88 67.71 134.54 67.9 134.16 68.1 133.78 68.29 133.38 68.45 132.96 68.58 132.51 68.7 132.07 68.78 131.64 68.85 131.17 68.88 130.73 68.89 130.29 68.85 129.88 68.78 129.88 68.78 129.85 68.97"/><polygon class="cls-4" points="125.98 64.14 125.98 64.14 126 64.49 126.03 64.84 126.08 65.22 126.14 65.59 126.22 65.94 126.35 66.31 126.49 66.67 126.7 67.01 126.93 67.34 127.18 67.65 127.5 67.95 127.87 68.21 128.28 68.46 128.75 68.67 129.27 68.83 129.85 68.97 129.88 68.78 129.31 68.64 128.81 68.48 128.38 68.27 127.96 68.05 127.63 67.79 127.34 67.52 127.08 67.22 126.86 66.91 126.69 66.58 126.54 66.24 126.42 65.91 126.33 65.56 126.27 65.19 126.22 64.84 126.19 64.49 126.21 64.14 126.21 64.14 125.98 64.14"/><polygon class="cls-4" points="131.72 58 131.72 58 131.16 58.1 130.62 58.24 130.09 58.42 129.58 58.64 129.08 58.9 128.6 59.22 128.17 59.55 127.76 59.94 127.37 60.33 127.04 60.78 126.72 61.26 126.48 61.79 126.27 62.33 126.13 62.91 126.03 63.51 125.98 64.14 126.21 64.14 126.22 63.51 126.32 62.94 126.46 62.39 126.67 61.85 126.91 61.36 127.2 60.91 127.53 60.46 127.88 60.06 128.3 59.71 128.73 59.38 129.18 59.09 129.67 58.83 130.15 58.61 130.68 58.43 131.19 58.29 131.72 58.19 131.72 58.19 131.72 58"/><polygon class="cls-4" points="135.01 57.67 135.01 57.67 134.83 57.67 134.61 57.7 134.38 57.72 134.13 57.73 133.86 57.76 133.59 57.78 133.3 57.81 133.03 57.84 132.77 57.87 132.53 57.91 132.31 57.92 132.1 57.95 131.94 57.97 131.81 57.99 131.75 58 131.72 58 131.72 58.19 131.75 58.19 131.84 58.18 131.94 58.16 132.1 58.15 132.31 58.11 132.53 58.1 132.77 58.07 133.03 58.03 133.3 58 133.59 57.97 133.86 57.95 134.13 57.92 134.38 57.91 134.61 57.89 134.83 57.89 135.01 57.89 135.01 57.89 135.01 57.67"/><polygon class="cls-4" points="137.16 57.84 137.26 57.76 137.19 57.76 137.05 57.75 136.79 57.73 136.49 57.7 136.14 57.7 135.77 57.7 135.39 57.67 135.01 57.67 135.01 57.89 135.39 57.89 135.77 57.89 136.14 57.92 136.49 57.92 136.79 57.92 137.05 57.94 137.19 57.95 137.26 57.95 137.35 57.87 137.26 57.95 137.34 57.97 137.35 57.87 137.16 57.84"/><polygon class="cls-4" points="137.32 56.82 137.31 56.82 137.29 57.12 137.24 57.44 137.19 57.73 137.16 57.84 137.35 57.87 137.39 57.76 137.43 57.48 137.48 57.12 137.53 56.82 137.51 56.82 137.32 56.82"/><polygon class="cls-4" points="135.42 55.24 135.42 55.26 135.79 55.27 136.13 55.37 136.44 55.51 136.72 55.7 136.94 55.93 137.13 56.2 137.26 56.48 137.32 56.82 137.51 56.82 137.45 56.45 137.32 56.1 137.1 55.8 136.84 55.54 136.54 55.32 136.19 55.17 135.82 55.08 135.42 55.03 135.42 55.05 135.42 55.24"/><polygon class="cls-4" points="128.57 56.01 128.73 56.1 128.89 56.02 129.1 55.91 129.37 55.81 129.72 55.72 130.1 55.64 130.52 55.56 130.98 55.48 131.44 55.41 131.94 55.35 132.45 55.3 132.96 55.26 133.49 55.22 134 55.22 134.5 55.22 134.97 55.22 135.42 55.24 135.42 55.05 134.97 55.03 134.5 55 134 55 133.49 55.03 132.96 55.06 132.45 55.11 131.94 55.16 131.44 55.22 130.95 55.29 130.49 55.37 130.07 55.45 129.69 55.53 129.34 55.62 129.03 55.72 128.79 55.83 128.6 55.94 128.76 56.04 128.57 56.01"/><polygon class="cls-4" points="129.75 52.08 129.69 52.16 128.57 56.01 128.76 56.04 129.88 52.19 129.82 52.27 129.75 52.08 129.7 52.09 129.69 52.16 129.75 52.08"/><polygon class="cls-4" points="136.86 51.34 136.86 51.34 136.32 51.31 135.77 51.3 135.26 51.3 134.77 51.3 134.27 51.3 133.81 51.33 133.35 51.34 132.9 51.37 132.47 51.41 132.04 51.47 131.64 51.53 131.24 51.61 130.85 51.69 130.47 51.81 130.1 51.93 129.75 52.08 129.82 52.27 130.17 52.13 130.53 52 130.89 51.88 131.27 51.81 131.67 51.73 132.07 51.66 132.47 51.6 132.9 51.57 133.35 51.53 133.81 51.52 134.27 51.52 134.77 51.52 135.26 51.52 135.77 51.52 136.32 51.53 136.86 51.53 136.86 51.53 136.86 51.34"/><polygon class="cls-4" points="142.34 56.76 142.34 56.76 142.42 56.1 142.42 55.49 142.31 54.94 142.13 54.41 141.87 53.91 141.56 53.47 141.17 53.07 140.77 52.72 140.31 52.41 139.83 52.13 139.32 51.9 138.82 51.71 138.3 51.57 137.8 51.45 137.31 51.37 136.86 51.34 136.86 51.53 137.31 51.57 137.77 51.65 138.26 51.76 138.76 51.9 139.25 52.09 139.73 52.32 140.21 52.57 140.64 52.88 141.04 53.23 141.4 53.59 141.71 54.01 141.94 54.47 142.11 54.97 142.22 55.49 142.22 56.1 142.15 56.73 142.15 56.73 142.34 56.76"/><polygon class="cls-4" points="140.66 65.19 140.66 65.19 142.34 56.76 142.15 56.73 140.47 65.16 140.47 65.16 140.66 65.19"/><polygon class="cls-2" points="136.7 61.01 136.67 60.91 136.6 60.83 136.49 60.78 136.33 60.73 136.16 60.72 135.95 60.7 135.71 60.7 135.47 60.72 135.22 60.75 134.96 60.78 134.7 60.81 134.46 60.84 134.22 60.89 134.02 60.92 133.81 60.97 133.65 61.01 133.54 61.02 133.41 61.07 133.25 61.12 133.07 61.18 132.87 61.28 132.68 61.37 132.45 61.48 132.24 61.63 132.04 61.77 131.83 61.95 131.65 62.12 131.48 62.33 131.33 62.55 131.22 62.79 131.13 63.05 131.08 63.32 131.06 63.86 131.14 64.3 131.27 64.61 131.46 64.85 131.7 65.01 131.97 65.11 132.24 65.16 132.51 65.17 132.99 65.16 133.44 65.11 133.86 65.03 134.22 64.92 134.58 64.79 134.88 64.65 135.17 64.49 135.42 64.3 135.65 64.12 135.84 63.91 136.01 63.72 136.16 63.51 136.27 63.32 136.35 63.13 136.41 62.94 136.46 62.76 136.52 62.31 136.6 61.85 136.67 61.4 136.7 61.01"/><polygon class="cls-4" points="169.6 66.53 169.63 66.16 169.76 65.73 169.98 65.35 170.25 65.01 170.59 64.74 170.97 64.55 171.39 64.42 171.84 64.37 172.28 64.42 172.7 64.55 173.08 64.74 173.42 65.01 173.69 65.35 173.91 65.73 174.04 66.16 174.07 66.53 173.59 66.53 173.58 66.24 173.48 65.89 173.32 65.57 173.11 65.3 172.86 65.08 172.55 64.92 172.2 64.81 171.84 64.77 171.47 64.81 171.12 64.92 170.81 65.08 170.56 65.3 170.35 65.57 170.19 65.89 170.09 66.24 170.06 66.53 169.6 66.53"/><polygon class="cls-4" points="171.04 66.53 171.04 65.57 171.91 65.57 172.11 65.59 172.28 65.62 172.41 65.67 172.52 65.73 172.6 65.83 172.66 65.92 172.7 66.03 172.71 66.15 172.7 66.29 172.66 66.4 172.62 66.5 172.59 66.53 171.91 66.53 171.98 66.51 172.09 66.5 172.19 66.47 172.27 66.44 172.33 66.39 172.36 66.34 172.39 66.26 172.39 66.15 172.38 66.07 172.35 66 172.3 65.97 172.25 65.94 172.17 65.92 172.09 65.91 172.01 65.91 171.91 65.91 171.44 65.91 171.44 66.53 171.04 66.53"/><polygon class="cls-4" points="169.6 66.53 169.58 66.63 169.63 67.09 169.76 67.52 169.98 67.9 170.25 68.22 170.59 68.5 170.97 68.7 171.39 68.83 171.84 68.88 172.28 68.83 172.7 68.7 173.08 68.5 173.42 68.22 173.69 67.9 173.91 67.52 174.04 67.09 174.09 66.63 174.07 66.53 173.59 66.53 173.61 66.63 173.58 67.01 173.48 67.36 173.32 67.66 173.11 67.94 172.86 68.16 172.55 68.33 172.2 68.45 171.84 68.48 171.47 68.45 171.12 68.33 170.81 68.16 170.56 67.94 170.35 67.66 170.19 67.36 170.09 67.01 170.06 66.63 170.06 66.53 169.6 66.53"/><polygon class="cls-4" points="171.04 66.53 171.04 67.5 171.44 67.5 171.44 66.71 171.84 66.71 172.31 67.5 172.63 67.5 172.15 66.71 172.27 66.71 172.38 66.67 172.47 66.64 172.55 66.58 172.59 66.53 171.91 66.53 171.84 66.55 171.44 66.55 171.44 66.53 171.04 66.53"/><polyline class="cls-5" points="169.58 66.63 169.58 66.63 169.63 66.16 169.76 65.73 169.98 65.35 170.25 65.01 170.59 64.74 170.97 64.55 171.39 64.42 171.84 64.37 171.84 64.37 172.28 64.42 172.7 64.55 173.08 64.74 173.42 65.01 173.69 65.35 173.91 65.73 174.04 66.16 174.09 66.63 174.09 66.63 174.04 67.09 173.91 67.52 173.69 67.9 173.42 68.22 173.08 68.5 172.7 68.7 172.28 68.83 171.84 68.88 171.84 68.88 171.39 68.83 170.97 68.7 170.59 68.5 170.25 68.22 169.98 67.9 169.76 67.52 169.63 67.09 169.58 66.63"/><polyline class="cls-5" points="171.44 67.5 171.04 67.5 171.04 65.57 171.91 65.57 171.91 65.57 172.11 65.59 172.28 65.62 172.41 65.67 172.52 65.73 172.6 65.83 172.66 65.92 172.7 66.03 172.71 66.15 172.71 66.15 172.7 66.29 172.66 66.4 172.62 66.5 172.55 66.58 172.47 66.64 172.38 66.67 172.27 66.71 172.15 66.71 172.63 67.5 172.31 67.5 171.84 66.71 171.44 66.71 171.44 67.5"/><polyline class="cls-5" points="171.84 66.55 171.84 66.55 171.98 66.51 172.09 66.5 172.19 66.47 172.27 66.44 172.33 66.39 172.36 66.34 172.39 66.26 172.39 66.15 172.39 66.15 172.38 66.07 172.35 66 172.3 65.97 172.25 65.94 172.17 65.92 172.09 65.91 172.01 65.91 171.91 65.91 171.44 65.91 171.44 66.55 171.84 66.55"/><polyline class="cls-5" points="171.84 68.48 171.84 68.48 172.2 68.45 172.55 68.33 172.86 68.16 173.11 67.94 173.32 67.66 173.48 67.36 173.58 67.01 173.61 66.63 173.61 66.63 173.58 66.24 173.48 65.89 173.32 65.57 173.11 65.3 172.86 65.08 172.55 64.92 172.2 64.81 171.84 64.77 171.84 64.77 171.47 64.81 171.12 64.92 170.81 65.08 170.56 65.3 170.35 65.57 170.19 65.89 170.09 66.24 170.06 66.63 170.06 66.63 170.09 67.01 170.19 67.36 170.35 67.66 170.56 67.94 170.81 68.16 171.12 68.33 171.47 68.45 171.84 68.48"/><polygon class="cls-4" points="141.76 68.72 146.27 68.72 146.27 68.72 147.88 59.63 147.94 59.28 148.04 58.93 148.13 58.58 148.26 58.23 148.42 57.87 148.61 57.54 148.82 57.22 149.08 56.92 149.36 56.65 149.68 56.39 150.05 56.15 150.47 55.96 150.93 55.8 151.44 55.67 152 55.58 152.62 55.54 152.85 55.54 152.97 55.54 153.02 55.54 153.02 55.54 153.74 51.44 153.29 51.47 152.86 51.52 152.46 51.6 152.08 51.71 151.73 51.84 151.39 52 151.07 52.17 150.77 52.37 150.48 52.59 150.21 52.81 149.96 53.07 149.7 53.32 149.46 53.59 149.22 53.9 148.98 54.19 148.76 54.51 149.24 51.61 144.75 51.61 141.76 68.72 141.76 68.72"/><polyline class="cls-5" points="141.76 68.72 146.27 68.72 146.27 68.72 147.88 59.63 147.88 59.63 147.94 59.28 148.04 58.93 148.13 58.58 148.26 58.23 148.42 57.87 148.61 57.54 148.82 57.22 149.08 56.92 149.36 56.65 149.68 56.39 150.05 56.15 150.47 55.96 150.93 55.8 151.44 55.67 152 55.58 152.62 55.54 152.62 55.54 152.85 55.54 152.97 55.54 153.02 55.54 153.02 55.54 153.74 51.44 153.74 51.44 153.29 51.47 152.86 51.52 152.46 51.6 152.08 51.71 151.73 51.84 151.39 52 151.07 52.17 150.77 52.37 150.48 52.59 150.21 52.81 149.96 53.07 149.7 53.32 149.46 53.59 149.22 53.9 148.98 54.19 148.76 54.51 149.24 51.61 144.75 51.61 141.76 68.72 141.76 68.72"/><polygon class="cls-4" points="99.47 68.72 103.98 68.72 104.06 68.72 105.59 59.63 105.65 59.28 105.73 58.94 105.81 58.61 105.92 58.29 106.05 57.97 106.21 57.67 106.4 57.38 106.63 57.11 106.88 56.87 107.17 56.63 107.52 56.44 107.91 56.26 108.35 56.12 108.85 55.99 109.39 55.91 110.01 55.86 110.06 55.86 110.13 55.88 110.2 55.89 110.28 55.89 110.36 55.91 110.43 55.93 110.48 55.94 110.49 55.94 110.51 55.88 110.56 55.69 110.62 55.4 110.7 55.05 110.81 54.63 110.92 54.19 111.07 53.74 111.21 53.29 111.34 52.99 111.5 52.68 111.66 52.38 111.82 52.11 111.96 51.87 112.07 51.68 112.15 51.57 112.19 51.52 112.17 51.52 112.11 51.5 112.03 51.49 111.91 51.47 111.8 51.47 111.67 51.45 111.56 51.44 111.45 51.44 110.95 51.47 110.51 51.52 110.09 51.6 109.71 51.69 109.34 51.82 109.01 51.98 108.7 52.14 108.42 52.33 108.14 52.54 107.89 52.78 107.65 53.02 107.41 53.29 107.17 53.56 106.95 53.87 106.71 54.19 106.47 54.51 107.04 51.61 102.46 51.61 99.47 68.72 99.47 68.72"/><polyline class="cls-5" points="99.47 68.72 103.98 68.72 104.06 68.72 105.59 59.63 105.59 59.63 105.65 59.28 105.73 58.94 105.81 58.61 105.92 58.29 106.05 57.97 106.21 57.67 106.4 57.38 106.63 57.11 106.88 56.87 107.17 56.63 107.52 56.44 107.91 56.26 108.35 56.12 108.85 55.99 109.39 55.91 110.01 55.86 110.01 55.86 110.06 55.86 110.13 55.88 110.2 55.89 110.28 55.89 110.36 55.91 110.43 55.93 110.48 55.94 110.49 55.94 110.49 55.94 110.51 55.88 110.56 55.69 110.62 55.4 110.7 55.05 110.81 54.63 110.92 54.19 111.07 53.74 111.21 53.29 111.21 53.29 111.34 52.99 111.5 52.68 111.66 52.38 111.82 52.11 111.96 51.87 112.07 51.68 112.15 51.57 112.19 51.52 112.19 51.52 112.17 51.52 112.11 51.5 112.03 51.49 111.91 51.47 111.8 51.47 111.67 51.45 111.56 51.44 111.45 51.44 111.45 51.44 110.95 51.47 110.51 51.52 110.09 51.6 109.71 51.69 109.34 51.82 109.01 51.98 108.7 52.14 108.42 52.33 108.14 52.54 107.89 52.78 107.65 53.02 107.41 53.29 107.17 53.56 106.95 53.87 106.71 54.19 106.47 54.51 107.04 51.61 102.46 51.61 99.47 68.72 99.47 68.72"/><polygon class="cls-2" points="169.63 85.52 169.63 85.46 169.76 85.04 169.98 84.67 170.25 84.35 170.59 84.1 170.97 83.91 171.39 83.8 171.84 83.75 172.28 83.8 172.7 83.91 173.08 84.1 173.42 84.35 173.69 84.67 173.91 85.04 174.04 85.46 174.04 85.52 173.58 85.52 173.48 85.18 173.32 84.88 173.11 84.61 172.86 84.39 172.55 84.21 172.2 84.1 171.84 84.07 171.47 84.1 171.12 84.21 170.81 84.39 170.56 84.61 170.35 84.88 170.19 85.18 170.09 85.52 169.63 85.52"/><polygon class="cls-2" points="171.04 85.52 171.04 84.96 171.91 84.96 172.11 84.96 172.28 84.99 172.41 85.02 172.52 85.09 172.6 85.17 172.66 85.26 172.7 85.38 172.71 85.52 172.39 85.52 172.39 85.44 172.38 85.36 172.35 85.3 172.3 85.26 172.25 85.23 172.17 85.22 172.09 85.2 172.01 85.2 171.91 85.2 171.44 85.2 171.44 85.52 171.04 85.52"/><polygon class="cls-2" points="169.58 85.87 169.63 85.52 170.09 85.52 170.09 85.53 170.06 85.87 169.58 85.87"/><polygon class="cls-2" points="171.04 85.87 171.04 85.52 171.44 85.52 171.44 85.84 171.84 85.84 171.98 85.81 172.09 85.79 172.19 85.76 172.27 85.73 172.33 85.68 172.36 85.63 172.39 85.55 172.39 85.52 172.71 85.52 172.71 85.52 172.7 85.63 172.66 85.73 172.62 85.81 172.55 85.87 171.04 85.87"/><polygon class="cls-2" points="173.61 85.87 173.58 85.53 173.58 85.52 174.04 85.52 174.09 85.87 173.61 85.87"/><polygon class="cls-2" points="169.58 85.87 169.58 85.92 169.63 86.38 169.76 86.81 169.98 87.2 170.25 87.53 170.59 87.8 170.97 88 171.39 88.12 171.84 88.17 172.28 88.12 172.7 88 173.08 87.8 173.42 87.53 173.69 87.2 173.91 86.81 174.04 86.38 174.09 85.92 174.09 85.87 173.61 85.87 173.61 85.92 173.58 86.3 173.48 86.65 173.32 86.96 173.11 87.23 172.86 87.45 172.55 87.63 172.2 87.74 171.84 87.77 171.47 87.74 171.12 87.63 170.81 87.45 170.56 87.23 170.35 86.96 170.19 86.65 170.09 86.3 170.06 85.92 170.06 85.87 169.58 85.87"/><polygon class="cls-2" points="171.04 85.87 171.04 86.8 171.44 86.8 171.44 86 171.84 86 172.31 86.8 172.63 86.8 172.15 86 172.27 86 172.38 85.97 172.47 85.94 172.55 85.87 172.55 85.87 171.04 85.87"/></svg>