<?xml version="1.0" encoding="utf-8"?>
<!-- Generator: Adobe Illustrator 22.0.1, SVG Export Plug-In . SVG Version: 6.00 Build 0)  -->
<svg version="1.1" id="Layer_1" xmlns="http://www.w3.org/2000/svg" xmlns:xlink="http://www.w3.org/1999/xlink" x="0px" y="0px"
	 viewBox="0 0 192.8 112.2" style="enable-background:new 0 0 192.8 112.2;" xml:space="preserve" width="192" height="112">
<style type="text/css">
	.st0{display:none;fill:#9CB3BF;}
	.st1{fill:#FAB41E;}
	.st2{fill:#E40520;}
	.st3{fill:#FFFFFF;}
</style>
<polygon class="st0" points="0,0 192.8,0 192.8,112.2 0,112.2 0,0 "/>
<path class="st1" d="M177.1,56.7l-0.1,2.4l-0.2,2.4l-0.3,2.4l-0.4,2.3l-0.5,2.3l-0.6,2.2l-0.8,2.2l-0.8,2.1l-1,2.1l-1,2.1l-1.2,2
	l-1.2,1.9l-1.3,1.8l-1.4,1.8l-1.5,1.7l-1.6,1.7l-1.6,1.6l-1.7,1.5l-1.8,1.4l-1.8,1.3l-1.9,1.2l-2,1.2l-2,1l-2.1,1l-2.2,0.9l-2.2,0.8
	l-2.3,0.6l-2.3,0.5l-2.3,0.4l-2.4,0.3l-2.4,0.2l-2.4,0.1l-2.4-0.1l-2.4-0.2l-2.4-0.3l-2.3-0.4l-2.3-0.5l-2.2-0.6l-2.2-0.8l-2.2-0.9
	l-2.1-1l-2-1l-2-1.2l-1.9-1.2l-1.8-1.3l-1.8-1.4l-1.7-1.5l-1.6-1.6l-0.7-0.7h0l-0.2-0.2l-0.7-0.7l-1.5-1.7l-1.4-1.8l-0.9-1.3h0
	l-0.1-0.1l-0.3-0.5l-1.2-1.9l-1.1-2l-0.6-1.2h0l-0.1-0.2L87,77.3l-1-2.1l-0.8-2.1l-0.7-2.2l-0.6-2.2l-0.5-2.3L82.9,64l-0.3-2.4
	l0-0.6H82l-0.2-2.6h0.5l0-1.7l0.1-2.4l0.2-2.4l0.2-1.4h0l0.1-0.3l0.1-0.6l0.4-2.3l0.5-2.3l0.6-2.2l0.7-2.2l0.8-2.1l1-2.1l1-2l1.1-2
	l1.2-1.9l1.3-1.9l0.7-0.8h0l0.1-0.1l0.6-0.8l1.5-1.7l1.6-1.6l1.6-1.6l1.7-1.5l1.8-1.4l1.8-1.3l1.9-1.2l2-1.1l2-1l2.1-1l2.2-0.8
	l2.2-0.8l2.2-0.6l2.3-0.5l2.3-0.4l2.4-0.3l2.4-0.2l2.4-0.1l2.4,0.1l2.4,0.2l2.4,0.3l2.3,0.4l2.3,0.5l2.3,0.6l2.2,0.8l2.2,0.8l2.1,1
	l2,1l2,1.1l1.9,1.2l1.8,1.3l1.8,1.4l1.7,1.5l1.6,1.6l1.6,1.6l1.5,1.7l1.4,1.8l1.3,1.9l1.2,1.9l1.2,2l1,2l1,2.1l0.8,2.1l0.8,2.2
	l0.6,2.2l0.5,2.3l0.4,2.3l0.3,2.4l0.2,2.4L177.1,56.7z M172.7,85.4l0,0.1l0,0.1l0,0.1l0,0.1l-0.1,0.1l-0.1,0.1l-0.1,0l-0.1,0h-0.1
	l0.5,0.8h-0.3l-0.5-0.8h-0.4v0.8H171v-0.9v-0.3V85h0.9h0.2l0.2,0l0.1,0l0.1,0.1l0.1,0.1l0.1,0.1L172.7,85.4z M172.4,85.5L172.4,85.5
	l0-0.2l0-0.1l-0.1,0l0,0l-0.1,0l-0.1,0H172h-0.1h-0.5v0.3v0.3h0.4l0.1,0l0.1,0l0.1,0l0.1,0l0.1-0.1l0,0L172.4,85.5L172.4,85.5z
	 M174,85.5l0.1,0.3v0.1l-0.1,0.5l-0.1,0.4l-0.2,0.4l-0.3,0.3l-0.3,0.3l-0.4,0.2l-0.4,0.1l-0.4,0.1l-0.5-0.1L171,88l-0.4-0.2
	l-0.3-0.3l-0.3-0.3l-0.2-0.4l-0.1-0.4l0-0.5v-0.1l0-0.3v-0.1l0.1-0.4l0.2-0.4l0.3-0.3l0.3-0.2l0.4-0.2l0.4-0.1l0.5-0.1l0.4,0.1
	l0.4,0.1l0.4,0.2l0.3,0.2l0.3,0.3l0.2,0.4L174,85.5L174,85.5z M173.6,85.5L173.6,85.5l-0.1-0.4l-0.2-0.3l-0.2-0.3l-0.2-0.2l-0.3-0.2
	l-0.3-0.1l-0.4,0l-0.4,0l-0.4,0.1l-0.3,0.2l-0.2,0.2l-0.2,0.3l-0.2,0.3l-0.1,0.3v0l0,0.3v0.1l0,0.4l0.1,0.3l0.2,0.3l0.2,0.3l0.2,0.2
	l0.3,0.2l0.4,0.1l0.4,0l0.4,0l0.3-0.1l0.3-0.2l0.2-0.2l0.2-0.3l0.2-0.3l0.1-0.3l0-0.4v-0.1L173.6,85.5z"/>
<path class="st2" d="M95.5,89.5L93.2,87h9.5l0,0l1.4-1.8l0.9-1.3H90.8l-1.6-2.6h17.6l1.1-1.9l0.6-1.2h-21l-1.2-2.6h23.5l0.2-0.4
	l0.8-2.1l0.2-0.6H85l-0.8-2.6h27.5l0.4-1.2l0.4-1.9H104l0.5-2.6h8.5l0-0.2l0.3-2.4l0-0.6H105l0.5-2.6h8l0-1.7l-0.1-2.4l-0.2-2.4
	l-0.2-1.4H82.8l0.5-2.6h29.4l-0.1-0.7l-0.5-2.3l0-0.2H83.9l0.8-2.6h26.5l-0.6-1.7l-0.6-1.5H85.8l1.1-2.6h22l-0.1-0.2l-1-2l-0.5-0.9
	H88.6l1.5-2.6h15.6l-0.3-0.5l-1.3-1.9l-0.7-0.8H92.4l2.2-2.6h6.8l-0.1-0.1l-1.6-1.6l-1.6-1.6l-1.7-1.5l-1.8-1.4l-1.8-1.3l-1.9-1.2
	l-2-1.1l-2-1l-2.1-1l-2.2-0.8l-2.2-0.8L78.1,11l-2.3-0.5L73.5,10l-2.4-0.3l-2.4-0.2l-2.4-0.1l-2.4,0.1l-2.4,0.2L59.1,10l-2.3,0.4
	L54.4,11l-2.3,0.6L50,12.4l-2.2,0.8l-2.1,1l-2.1,1l-2,1.1l-1.9,1.2l-1.9,1.3l-1.8,1.4l-1.7,1.5l-1.6,1.6L31.2,25l-1.5,1.7l-1.4,1.8
	L27,30.3l-1.2,1.9l-1.1,2l-1,2l-1,2.1l-0.8,2.1L21,42.7l-0.6,2.2l-0.5,2.3l-0.4,2.3l-0.3,2.4l-0.2,2.4l-0.1,2.4l0.1,2.4l0.2,2.4
	l0.3,2.4l0.4,2.3l0.5,2.3l0.6,2.2l0.8,2.2l0.8,2.1l1,2.1l1,2.1l1.1,2l1.2,1.9l1.3,1.8l1.4,1.8l1.5,1.7l1.6,1.7l1.6,1.6l1.7,1.5
	l1.8,1.4l1.9,1.3l1.9,1.2l2,1.2l2.1,1l2.1,1l2.2,0.9l2.2,0.8l2.3,0.6l2.3,0.5l2.3,0.4l2.4,0.3l2.4,0.2l2.4,0.1l2.4-0.1l2.4-0.2
	l2.4-0.3l2.3-0.4l2.3-0.5l2.3-0.6l2.2-0.8l2.2-0.9l2.1-1l2-1l2-1.2l1.9-1.2l1.8-1.3l1.8-1.4l1.7-1.5l1.6-1.6l0.7-0.7H95.5z M82,61
	l-0.2-2.6h3.5V61H82z"/>
<path class="st3" d="M84.2,65L84.2,65l-0.5,3l-0.1,0.1l-0.1,0.1l-0.1,0.1l-0.1,0.1l-0.1,0.1l-0.1,0l-0.1,0l-0.1,0l-0.2,0l-0.2,0
	l-0.2,0l-0.2,0l-0.2,0l-0.2,0l-0.3,0l-0.3,0h-1.2l-0.6,0l-0.6-0.1l-0.5-0.1l-0.4-0.1l-0.4-0.2L77,68.1l-0.3-0.2l-0.2-0.2l-0.2-0.2
	l-0.1-0.3l-0.1-0.3l-0.1-0.3l0-0.3v-0.4l0-0.4l0-0.4l3-17.4h4.4L83,51.6h2.7l-0.6,3.6l-2.8-0.1l-1.5,8.9l0,0.3l0.1,0.3l0.2,0.2
	l0.2,0.2l0.3,0.1l0.3,0.1l0.4,0.1l0.4,0l0.3,0l0.3,0l0.3,0l0.2-0.1l0.2-0.1L84.2,65L84.2,65z M174.1,66.6l-0.1,0.5l-0.1,0.4
	l-0.2,0.4l-0.3,0.3l-0.3,0.3l-0.4,0.2l-0.4,0.1l-0.4,0l-0.5,0l-0.4-0.1l-0.4-0.2l-0.3-0.3l-0.3-0.3l-0.2-0.4l-0.1-0.4l0-0.5l0-0.5
	l0.1-0.4l0.2-0.4l0.3-0.3l0.3-0.3l0.4-0.2l0.4-0.1l0.5-0.1l0.4,0.1l0.4,0.1l0.4,0.2l0.3,0.3l0.3,0.3l0.2,0.4l0.1,0.4L174.1,66.6z
	 M173.6,66.6L173.6,66.6l0-0.4l-0.1-0.3l-0.2-0.3l-0.2-0.3l-0.2-0.2l-0.3-0.2l-0.3-0.1l-0.4,0l-0.4,0l-0.4,0.1l-0.3,0.2l-0.2,0.2
	l-0.2,0.3l-0.2,0.3l-0.1,0.3l0,0.4l0,0.4l0.1,0.4l0.2,0.3l0.2,0.3l0.2,0.2l0.3,0.2l0.4,0.1l0.4,0l0.4,0l0.3-0.1l0.3-0.2l0.2-0.2
	l0.2-0.3l0.2-0.3l0.1-0.4L173.6,66.6z M69.1,56.2l0.1-0.2l0.1-0.2l0.1-0.1l0.2-0.2l0.2-0.1l0.2-0.1l0.2-0.1l0.3-0.1l0.3,0l0.3-0.1
	l0.5,0l0.4,0l0.4,0h0.3l0.3,0l0.3,0l0.3,0l0.2,0l0.2,0l0.2,0l0.2,0l0.2,0l0.2,0l0.2,0l0.2,0l0.2,0l0.8-3.6l-0.1,0l-0.1,0l-0.2,0
	l-0.2,0l-0.2,0l-0.2,0l-0.2,0l-0.3,0l-0.3,0l-0.3,0l-0.4,0l-0.4,0l-0.4,0l-0.5,0l-0.5,0h-0.6l-0.9,0l-0.9,0.1l-0.8,0.1L68,51.6
	l-0.6,0.2L66.8,52l-0.5,0.2l-0.5,0.3l-0.4,0.3l-0.3,0.4l-0.3,0.4l-0.2,0.5l-0.2,0.5l-0.2,0.6l-0.1,0.6L64,56.5l0,1l0.1,0.9l0.3,0.7
	l0.4,0.6l0.5,0.5l0.6,0.4l0.6,0.3l0.6,0.3l0.6,0.3l0.6,0.2L69,62l0.5,0.2l0.4,0.3l0.3,0.3l0.1,0.4l0,0.5l-0.1,0.2l-0.1,0.2L70,64.4
	l-0.2,0.2l-0.2,0.2L69.3,65l-0.4,0.1l-0.5,0.1l-0.5,0h-0.5l-0.5,0l-0.5,0l-0.4,0l-0.4,0l-0.4-0.1L64.9,65l-0.4-0.1l-0.4-0.1
	l-0.3-0.1l-0.3-0.1l-0.3-0.1l-0.2-0.1l-0.2,0l-0.1,0L62,68.1l0.3,0.1l0.2,0.1l0.3,0.1l0.3,0.1l0.3,0.1l0.3,0l0.3,0.1l0.3,0l0.4,0
	l0.4,0l0.4,0l0.5,0l0.5,0H67l0.6,0h0.7l0.5,0l0.5,0l0.5,0l0.5-0.1l0.6-0.1l0.5-0.2l0.5-0.2l0.5-0.2l0.5-0.3l0.4-0.3l0.4-0.4l0.4-0.5
	l0.3-0.5l0.3-0.6l0.2-0.7l0.1-0.8l0.1-1l-0.1-0.9L75,61.2l-0.2-0.6l-0.3-0.5l-0.4-0.4l-0.4-0.3l-0.5-0.3l-0.5-0.2l-0.5-0.2l-0.5-0.2
	l-0.5-0.2l-0.5-0.2L70.1,58l-0.4-0.2l-0.3-0.3l-0.2-0.2L69.1,57l-0.1-0.2l0-0.2v-0.2L69.1,56.2z M62.9,56.7l-1.6,8.4l-0.6,3.5h-4
	l0.1-0.7l0.1-0.6l0.1-0.4l0.1-0.2L56.7,67l-0.2,0.3l-0.3,0.2l-0.3,0.2L55.5,68l-0.4,0.2l-0.4,0.2l-0.4,0.2l-0.5,0.1l-0.5,0.1
	l-0.5,0.1l-0.5,0.1l-0.5,0l-0.5,0l-0.4,0l-0.4-0.1L50,68.7l-0.5-0.2L49,68.4l-0.4-0.2l-0.3-0.3L48,67.6l-0.2-0.3L47.5,67l-0.2-0.3
	l-0.2-0.3L47,65.9l-0.1-0.4l-0.1-0.4l0-0.4l0-0.4v-0.3l0-0.6l0.1-0.6l0.2-0.6l0.2-0.5l0.3-0.5l0.3-0.5l0.3-0.4l0.4-0.4l0.4-0.4
	l0.5-0.3l0.5-0.3l0.5-0.2l0.5-0.2l0.5-0.2l0.6-0.2l0.5-0.1h0l0.1,0l0.1,0l0.2,0l0.2,0l0.2,0l0.2,0l0.3,0l0.3,0l0.3,0l0.3,0l0.3,0
	l0.2,0l0.2,0l0.2,0h0.2h0.4l0.4,0l0.3,0h0.4l0.3,0l0.2,0l0.2,0h0l0-0.1l0.1-0.3l0.1-0.3l0-0.3l-0.1-0.3L58,56.1l-0.2-0.3l-0.2-0.2
	l-0.3-0.2l-0.3-0.1l-0.4-0.1l-0.4,0l-0.5,0l-0.5,0h-0.5l-0.5,0l-0.5,0l-0.5,0l-0.5,0l-0.5,0.1l-0.5,0.1l-0.5,0.1l-0.4,0.1l-0.4,0.1
	L50,55.7l-0.3,0.1l-0.2,0.1L49.3,56l1.1-3.8l0.3-0.1l0.3-0.1l0.4-0.1l0.4-0.1l0.4-0.1l0.4-0.1l0.4-0.1l0.4,0l0.5,0l0.5,0l0.5,0h0.5
	H56h0.5l0.6,0l0.6,0l0.5,0l0.5,0.1l0.5,0.1l0.5,0.1L60,52l0.5,0.2l0.5,0.3l0.5,0.3l0.4,0.4l0.4,0.4l0.3,0.4l0.2,0.5l0.2,0.5l0.1,0.5
	v0.6L62.9,56.7z M57.5,61L57.5,61l-0.1-0.2l-0.1,0l-0.2,0l-0.2,0l-0.2,0h-0.2h-0.2l-0.3,0l-0.3,0l-0.3,0l-0.2,0l-0.2,0l-0.2,0
	l-0.2,0l-0.2,0l-0.1,0l-0.1,0L54,61.1l-0.2,0.1l-0.2,0.1l-0.2,0.1l-0.2,0.1L53,61.7l-0.2,0.2L52.5,62l-0.2,0.2l-0.2,0.2L52,62.6
	l-0.1,0.2l-0.1,0.2l0,0.3l0,0.5l0.1,0.4l0.2,0.3l0.2,0.2l0.2,0.2l0.3,0.1l0.2,0l0.3,0l0.5,0l0.4,0l0.4-0.1l0.4-0.1l0.3-0.1l0.3-0.2
	l0.3-0.1l0.2-0.2l0.2-0.1l0.2-0.2l0.2-0.2l0.1-0.2l0.1-0.2l0.1-0.2l0.1-0.2l0-0.2l0.1-0.5l0.1-0.5l0.1-0.5L57.5,61z M111.2,53.3
	l0.1-0.3l0.2-0.3l0.2-0.3l0.2-0.3l0.1-0.2l0.1-0.2l0.1-0.1l0,0h0l-0.1,0l-0.1,0l-0.1,0h-0.1l-0.1,0l-0.1,0h-0.1l-0.5,0l-0.4,0
	l-0.4,0.1l-0.4,0.1l-0.4,0.1L109,52l-0.3,0.2l-0.3,0.2l-0.3,0.2l-0.2,0.2l-0.2,0.2l-0.2,0.3l-0.2,0.3l-0.2,0.3l-0.2,0.3l-0.2,0.3
	l0.6-2.9h-4.6l-3,17.1h4.5h0.1l1.5-9.1l0.1-0.3l0.1-0.3l0.1-0.3l0.1-0.3L106,58l0.2-0.3l0.2-0.3l0.2-0.3l0.2-0.2l0.3-0.2l0.4-0.2
	l0.4-0.2l0.4-0.1l0.5-0.1l0.5-0.1l0.6,0h0l0.1,0l0.1,0h0.1l0.1,0l0.1,0l0,0h0l0-0.1l0-0.2l0.1-0.3l0.1-0.4l0.1-0.4l0.1-0.4l0.2-0.5
	L111.2,53.3z M98.5,64.2l0.5-0.3l-0.6,3.9l-0.2,0.1l-0.3,0.1l-0.2,0.1l-0.2,0.1l-0.2,0.1l-0.3,0.1l-0.2,0.1l-0.3,0l-0.3,0l-0.3,0
	l-0.3,0l-0.4,0l-0.4,0h-0.4l-0.5,0h-0.5l-0.8,0l-0.8-0.1l-0.8-0.1L90,68.3l-0.8-0.2l-0.8-0.3l-0.7-0.4L87,66.9l-0.6-0.5l-0.5-0.6
	L85.4,65L85,64.1l-0.3-1l-0.2-1.1l-0.1-1.2l0.1-1.3l0.1-0.5l0.1-0.6l0.1-0.6l0.2-0.7l0.2-0.7l0.3-0.7l0.4-0.7l0.4-0.7l0.5-0.6
	l0.6-0.6l0.7-0.5l0.8-0.5l0.9-0.4l1-0.3l1.1-0.2l1.3-0.1l0.6,0l0.7,0.1l0.7,0.1l0.6,0.2l0.6,0.2l0.6,0.3l0.6,0.4l0.5,0.4l0.5,0.5
	l0.4,0.6l0.3,0.7l0.2,0.8l0.1,1l0,1.1L99.9,59l-0.2,1.3l-0.1,1H89.2l0,0.2l0,0.3l0,0.3l0.1,0.3l0.1,0.3l0.1,0.3l0.2,0.3l0.2,0.3
	l0.2,0.3l0.2,0.2l0.2,0.2l0.3,0.2l0.3,0.2l0.3,0.2l0.3,0.1l0.3,0.1l0.4,0.1l0.4,0l0.4,0l0.4,0l0.4,0h0.4l0.4,0l0.4,0l0.4-0.1
	l0.4-0.1l0.5-0.1l0.4-0.1l0.5-0.2l0.5-0.2L98.5,64.2z M89.8,58.2h5.8l0-0.4l0-0.4l0-0.4l-0.1-0.3l-0.1-0.3l-0.1-0.3l-0.2-0.2
	L95,55.7l-0.2-0.2l-0.2-0.1l-0.2-0.2l-0.2-0.1L93.9,55l-0.2-0.1l-0.3,0l-0.3,0l-0.3,0l-0.3,0l-0.3,0.1L91.9,55l-0.3,0.1l-0.2,0.1
	l-0.2,0.2L91,55.7l-0.2,0.2l-0.2,0.2l-0.2,0.3l-0.1,0.3L90.1,57L90,57.3l-0.1,0.3l-0.1,0.3L89.8,58.2z M152.6,55.5h0.2h0.1h0
	l0.7-4.1l-0.5,0l-0.4,0l-0.4,0.1l-0.4,0.1l-0.4,0.1l-0.3,0.2l-0.3,0.2l-0.3,0.2l-0.3,0.2l-0.3,0.2l-0.2,0.3l-0.3,0.2l-0.2,0.3
	l-0.2,0.3l-0.2,0.3l-0.2,0.3l0.5-2.9h-4.5l-3,17.1h4.5l1.6-9.1l0.1-0.3l0.1-0.4l0.1-0.3l0.1-0.3l0.2-0.4l0.2-0.3l0.2-0.3l0.3-0.3
	l0.3-0.3l0.3-0.3l0.4-0.2l0.4-0.2l0.5-0.2l0.5-0.1l0.6-0.1L152.6,55.5z M142.3,56.8l-1.7,8.4l-0.7,3.5l0,0.1l-0.1,0h-4h-0.1l0-0.1
	l0-0.7v-0.6l0-0.3l-0.2,0.2l-0.3,0.2l-0.3,0.2l-0.3,0.2l-0.4,0.2l-0.4,0.2l-0.4,0.2l-0.5,0.1l-0.4,0.1l-0.4,0.1l-0.5,0.1l-0.5,0
	l-0.4,0l-0.4,0l-0.4-0.1l-0.6-0.1l-0.5-0.2l-0.5-0.2l-0.4-0.2l-0.4-0.3l-0.3-0.3l-0.2-0.3l-0.2-0.3l-0.2-0.3l-0.1-0.4l-0.1-0.4
	l-0.1-0.3l-0.1-0.4l0-0.4l0-0.4l0-0.3l0.1-0.6l0.1-0.6l0.1-0.6l0.2-0.5l0.2-0.5l0.3-0.5l0.3-0.5l0.4-0.4l0.4-0.4l0.4-0.3l0.5-0.3
	l0.5-0.3l0.5-0.2l0.5-0.2l0.5-0.1l0.6-0.1h0l0.1,0l0.1,0l0.2,0l0.2,0l0.2,0l0.2,0l0.3,0l0.3,0l0.3,0l0.3,0l0.3,0l0.2,0l0.2,0l0.2,0
	h0.2h0.4l0.4,0h0.4h0.3l0.3,0l0.3,0l0.1,0l0,0l0-0.3l0-0.3l0-0.3h0l-0.1-0.3l-0.1-0.3l-0.2-0.3l-0.2-0.2l-0.3-0.2l-0.3-0.1l-0.3-0.1
	l-0.4,0v0l-0.4,0h-0.5H134h-0.5l-0.5,0l-0.5,0l-0.5,0.1l-0.5,0.1l-0.5,0.1l-0.5,0.1l-0.4,0.1l-0.4,0.1l-0.4,0.1l-0.3,0.1l-0.2,0.1
	l-0.2,0.1l-0.2-0.1l1.1-3.8l0-0.1l0,0l0.4-0.2l0.4-0.1l0.4-0.1l0.4-0.1l0.4-0.1l0.4-0.1l0.4-0.1l0.4,0l0.5,0l0.5,0l0.5,0h0.5h0.5
	h0.5l0.5,0l0.5,0l0.5,0l0.5,0.1l0.5,0.1l0.5,0.1l0.5,0.2l0.5,0.2l0.5,0.3l0.5,0.3l0.4,0.3l0.4,0.4l0.3,0.4l0.3,0.5l0.2,0.5l0.1,0.5
	v0.6L142.3,56.8z M136.7,61L136.7,61l-0.1-0.2l-0.1,0l-0.2,0l-0.2,0l-0.2,0h-0.2l-0.2,0l-0.2,0l-0.3,0l-0.3,0l-0.2,0l-0.2,0l-0.2,0
	l-0.2,0l-0.2,0l-0.1,0l-0.1,0l-0.2,0l-0.2,0.1l-0.2,0.1l-0.2,0.1l-0.2,0.1l-0.2,0.1l-0.2,0.1l-0.2,0.2l-0.2,0.2l-0.2,0.2l-0.1,0.2
	l-0.1,0.2l-0.1,0.3l0,0.3l0,0.5l0.1,0.4l0.1,0.3l0.2,0.2l0.2,0.2l0.3,0.1l0.3,0l0.3,0l0.5,0l0.5,0l0.4-0.1l0.4-0.1l0.4-0.1l0.3-0.1
	l0.3-0.2l0.2-0.2l0.2-0.2l0.2-0.2l0.2-0.2l0.2-0.2l0.1-0.2l0.1-0.2l0.1-0.2l0-0.2l0.1-0.5l0.1-0.5l0.1-0.5L136.7,61z M40.5,47.7
	l-5.2,12.4l-0.7-12.4H27l-3.6,21h4.3L30.3,53h0.1h0.1h0.1l0,0.8l0.1,1.8l0.2,2.5L31,61l0.2,2.8l0.1,2.5l0.1,1.7l0,0.7h4.9L42.9,53
	h0.2l-2.7,15.7h4.3l3.7-21H40.5z M172.7,66l0,0.1l0,0.1l0,0.1l0,0.1l-0.1,0.1l-0.1,0.1l-0.1,0l-0.1,0h-0.1l0.5,0.8h-0.3l-0.5-0.8
	h-0.4v0.8H171v-1v-1h0.9l0.2,0l0.2,0l0.1,0.1l0.1,0.1l0.1,0.1l0.1,0.1L172.7,66z M172.4,66.1L172.4,66.1l0-0.2l-0.1,0l0,0l-0.1,0
	l-0.1,0H172h-0.1h-0.5v0.6v0h0.4l0.1,0l0.1,0l0.1,0l0.1,0l0.1,0l0,0l0-0.1V66.1z M126.4,52.1l0.2,0.1l0.2,0.1l0.2,0.1l0.2,0.1
	l0.8-4.4l-0.1,0l-0.2-0.1l-0.2-0.1l-0.2-0.1l-0.3-0.1l-0.3-0.1l-0.3-0.1l-0.4-0.1l-0.4-0.1l-0.4-0.1l-0.4-0.1l-0.5-0.1l-0.5-0.1
	l-0.5,0l-0.5,0l-0.5,0l-0.6,0l-0.6,0l-0.6,0.1l-0.5,0.1l-0.5,0.1l-0.5,0.1l-0.5,0.1l-0.5,0.2l-0.5,0.2l-0.4,0.2l-0.4,0.2l-0.4,0.2
	l-0.4,0.3l-0.4,0.3l-0.4,0.3l-0.4,0.3l-0.3,0.3l-0.3,0.3l-0.3,0.4l-0.3,0.4l-0.3,0.4l-0.3,0.4l-0.2,0.5l-0.2,0.5l-0.2,0.5l-0.2,0.5
	l-0.2,0.6l-0.2,0.6l-0.2,0.6l-0.2,0.6l-0.1,0.6l-0.1,0.7l-0.2,1.3l0,1.2l0.1,1.1l0.2,1.1l0.3,1l0.4,0.9l0.5,0.8l0.5,0.7l0.6,0.6
	l0.6,0.6l0.7,0.5l0.7,0.4l0.7,0.3l0.7,0.2l0.7,0.2l0.7,0.1l0.9,0l0.8,0l0.7,0l0.6,0l0.6-0.1l0.5-0.1l0.4-0.1l0.4-0.1l0.3-0.1
	l0.3-0.1l0.2-0.1l0.2-0.1l0.1-0.1l0.1-0.1l0.1-0.1l0.1-0.1l0.7-4.3l-0.3,0.3l-0.3,0.2l-0.4,0.2l-0.4,0.2l-0.4,0.1l-0.4,0.1l-0.4,0.1
	l-0.4,0l-0.4,0h-0.4h-0.4l-0.4,0l-0.3,0l-0.3,0l-0.2,0l-0.2-0.1l-0.6-0.1l-0.5-0.2l-0.5-0.2l-0.4-0.3l-0.4-0.3l-0.3-0.4l-0.3-0.4
	l-0.2-0.4l-0.2-0.5l-0.1-0.5l-0.1-0.5l0-0.5l0-0.5l0-0.6l0.1-0.6l0.1-0.6l0.3-1l0.3-0.9l0.3-0.8l0.3-0.7l0.4-0.6l0.4-0.5l0.4-0.4
	l0.4-0.3l0.5-0.3l0.4-0.2l0.5-0.2l0.4-0.1l0.4-0.1l0.4,0l0.4,0h0.4h0.4h0.4l0.4,0l0.4,0l0.3,0l0.3,0.1l0.3,0.1l0.3,0.1l0.3,0.1
	l0.3,0.1l0.3,0.1L126.4,52.1z M170.2,47.8l-3.6,20.9h-4.4l0.3-1.8v-0.1l-0.3,0.3l-0.3,0.3l-0.3,0.3l-0.3,0.2l-0.3,0.2l-0.3,0.2
	l-0.3,0.2l-0.3,0.1l-0.3,0.1l-0.3,0.1l-0.3,0.1l-0.3,0.1l-0.3,0l-0.3,0l-0.3,0h-0.3l-0.8-0.1l-0.8-0.2l-0.7-0.3l-0.6-0.4l-0.6-0.5
	l-0.5-0.5l-0.5-0.6l-0.4-0.7l-0.3-0.7l-0.2-0.8l-0.2-0.8l-0.1-0.8l-0.1-0.8l0-0.8l0.1-0.8l0.1-0.8l0.2-0.9l0.3-0.9l0.3-0.8l0.4-0.8
	l0.4-0.7l0.5-0.6l0.5-0.6l0.5-0.5l0.6-0.5l0.6-0.4l0.6-0.4l0.6-0.3l0.6-0.2l0.6-0.1l0.6-0.1l0.7,0l0.5,0l0.5,0l0.4,0.1l0.4,0.1
	l0.4,0.1l0.3,0.1l0.3,0.2l0.3,0.2l0.2,0.2l0.2,0.2l0.2,0.2l0.2,0.2l0.2,0.2l0.1,0.2l0.1,0.2l0.1,0.2l1.1-6.3H170.2z M163.7,59l0-0.5
	l-0.1-0.4l-0.1-0.4l-0.1-0.4l-0.1-0.4l-0.2-0.3l-0.2-0.3l-0.2-0.2l-0.2-0.2l-0.3-0.2l-0.3-0.1l-0.3-0.1l-0.3,0l-0.4,0l-0.4,0.1
	l-0.4,0.1l-0.4,0.2l-0.3,0.2l-0.3,0.3l-0.3,0.3l-0.3,0.3l-0.2,0.4l-0.2,0.4l-0.2,0.4l-0.2,0.4l-0.2,0.4l-0.1,0.4l-0.1,0.5l-0.1,0.5
	l-0.1,0.7l0,0.8l0.1,0.8l0.2,0.8l0.3,0.7l0.4,0.5l0.5,0.4l0.6,0.1l0.4,0l0.4-0.1l0.4-0.1l0.4-0.2l0.3-0.2l0.3-0.2l0.3-0.3l0.3-0.3
	l0.2-0.3l0.2-0.3l0.2-0.4l0.2-0.4l0.2-0.4l0.1-0.4l0.1-0.4l0.1-0.4l0.1-0.5l0-0.5V59z"/>
</svg>
