<svg id="Layer_1" data-name="Layer 1" xmlns="http://www.w3.org/2000/svg" viewBox="0 0 287.61 167.37"><defs><style>.cls-1,.cls-4{fill:#fff;}.cls-1{fill-rule:evenodd;}.cls-2{fill:#e40520;}.cls-3{fill:#0080c3;}.cls-5{fill:none;stroke:#fff;stroke-width:0.21px;}</style></defs><title>ms</title><polygon class="cls-1" points="0 0 287.61 0 287.61 167.37 0 167.37 0 0 0 0"/><polygon class="cls-2" points="196.17 161.57 200.19 161.47 204.16 161.16 208.06 160.68 211.9 159.98 215.69 159.11 219.41 158.06 223.02 156.83 226.58 155.42 230.04 153.86 233.39 152.15 236.67 150.28 239.82 148.23 242.9 146.05 245.84 143.74 248.69 141.28 251.4 138.7 253.96 135.98 256.42 133.14 258.75 130.19 260.93 127.14 262.96 123.97 264.83 120.69 266.57 117.33 268.13 113.87 269.51 110.31 270.74 106.7 271.8 102.98 272.67 99.22 273.36 95.35 273.84 91.46 274.15 87.48 274.25 83.46 274.15 79.47 273.84 75.52 273.36 71.65 272.67 67.81 271.8 64.07 270.74 60.38 269.51 56.77 268.13 53.23 266.57 49.8 264.83 46.45 262.96 43.19 260.93 40.02 258.75 36.97 256.42 34.02 253.96 31.2 251.4 28.49 248.69 25.93 245.84 23.46 242.9 21.16 239.82 18.98 236.67 16.96 233.39 15.09 230.04 13.35 226.58 11.78 223.02 10.4 219.41 9.17 215.69 8.12 211.9 7.25 208.06 6.56 204.16 6.07 200.19 5.76 196.17 5.66 192.15 5.76 188.18 6.07 184.28 6.56 180.44 7.25 176.65 8.12 172.96 9.17 169.32 10.4 165.79 11.78 162.33 13.35 158.97 15.09 155.72 16.96 152.54 18.98 149.49 21.16 146.55 23.46 143.73 25.93 141.04 28.49 138.45 31.2 135.99 34.02 133.69 36.97 131.51 40.02 129.49 43.19 127.62 46.45 125.9 49.8 124.36 53.23 122.95 56.77 121.72 60.38 120.7 64.07 119.83 67.81 119.14 71.65 118.65 75.52 118.34 79.47 118.24 83.46 118.34 87.48 118.65 91.46 119.14 95.35 119.83 99.22 120.7 102.98 121.72 106.7 122.95 110.31 124.36 113.87 125.9 117.33 127.62 120.69 129.49 123.97 131.51 127.14 133.69 130.19 135.99 133.14 138.45 135.98 141.04 138.7 143.73 141.28 146.55 143.74 149.49 146.05 152.54 148.23 155.72 150.28 158.97 152.15 162.33 153.86 165.79 155.42 169.32 156.83 172.96 158.06 176.65 159.11 180.44 159.98 184.28 160.68 188.18 161.16 192.15 161.47 196.17 161.57"/><polygon class="cls-3" points="92.78 161.57 96.8 161.47 100.77 161.16 104.66 160.68 108.5 159.98 112.3 159.11 115.98 158.06 119.62 156.83 123.16 155.42 126.62 153.86 129.97 152.15 133.23 150.28 136.4 148.23 139.45 146.05 142.4 143.74 145.22 141.28 147.93 138.7 150.49 135.98 152.95 133.14 155.26 130.19 157.44 127.14 159.46 123.97 161.33 120.69 163.05 117.33 164.61 113.87 165.99 110.31 167.22 106.7 168.25 102.98 169.12 99.22 169.81 95.35 170.3 91.46 170.6 87.48 170.71 83.46 170.6 79.47 170.3 75.52 169.81 71.65 169.12 67.81 168.25 64.07 167.22 60.38 165.99 56.77 164.61 53.23 163.05 49.8 161.33 46.45 159.46 43.19 157.44 40.02 155.26 36.97 152.95 34.02 150.49 31.2 147.93 28.49 145.22 25.93 142.4 23.46 139.45 21.16 136.4 18.98 133.23 16.96 129.97 15.09 126.62 13.35 123.16 11.78 119.62 10.4 115.98 9.17 112.3 8.12 108.5 7.25 104.66 6.56 100.77 6.07 96.8 5.76 92.78 5.66 88.75 5.76 84.78 6.07 80.89 6.56 77.05 7.25 73.25 8.12 69.54 9.17 65.93 10.4 62.37 11.78 58.91 13.35 55.55 15.09 52.27 16.96 49.12 18.98 46.05 21.16 43.1 23.46 40.26 25.93 37.57 28.49 34.98 31.2 32.52 34.02 30.19 36.97 28.01 40.02 25.99 43.19 24.12 46.45 22.38 49.8 20.81 53.23 19.43 56.77 18.2 60.38 17.15 64.07 16.28 67.81 15.59 71.65 15.1 75.52 14.79 79.47 14.69 83.46 14.79 87.48 15.1 91.46 15.59 95.35 16.28 99.22 17.15 102.98 18.2 106.7 19.43 110.31 20.81 113.87 22.38 117.33 24.12 120.69 25.99 123.97 28.01 127.14 30.19 130.19 32.52 133.14 34.98 135.98 37.57 138.7 40.26 141.28 43.1 143.74 46.05 146.05 49.12 148.23 52.27 150.28 55.55 152.15 58.91 153.86 62.37 155.42 65.93 156.83 69.54 158.06 73.25 159.11 77.05 159.98 80.89 160.68 84.78 161.16 88.75 161.47 92.78 161.57"/><polygon class="cls-2" points="134.87 35.35 174.4 35.35 174.4 31 138.68 31 134.87 35.35"/><polygon class="cls-2" points="128.67 44.58 174.4 44.58 174.4 40.24 131.43 40.24 128.67 44.58"/><polygon class="cls-2" points="124.03 53.95 174.4 53.95 174.4 49.6 126.16 49.6 124.03 53.95"/><polygon class="cls-2" points="121.01 63.17 174.4 63.17 174.4 58.84 122.34 58.84 121.01 63.17"/><polygon class="cls-2" points="119.03 72.42 174.4 72.42 174.4 68.07 119.83 68.07 119.03 72.42"/><polygon class="cls-2" points="118.62 90.33 174.4 90.33 174.4 85.97 118.24 85.97 118.62 90.33"/><polygon class="cls-2" points="119.96 100.09 174.4 100.09 174.4 95.73 119.16 95.73 119.96 100.09"/><polygon class="cls-2" points="122.59 108 174.4 108 174.4 103.65 121.26 103.65 122.59 108"/><polygon class="cls-2" points="126.54 117.64 174.4 117.64 174.4 113.28 124.44 113.28 126.54 117.64"/><polygon class="cls-2" points="132.1 127.4 174.4 127.4 174.4 123.04 129.18 123.04 132.1 127.4"/><polygon class="cls-2" points="139.07 136.77 174.01 136.77 174.01 132.42 135.25 132.42 139.07 136.77"/><polygon class="cls-2" points="261.42 131.34 261.65 130.65 262.03 130.01 262.52 129.45 263.08 128.99 263.73 128.63 264.42 128.4 265.16 128.32 265.93 128.4 266.64 128.63 267.29 128.99 267.85 129.45 268.31 130.01 268.67 130.65 268.9 131.34 268.11 131.34 267.95 130.86 267.67 130.32 267.31 129.86 266.88 129.5 266.36 129.22 265.77 129.04 265.16 128.99 264.55 129.04 263.96 129.22 263.44 129.5 262.98 129.86 262.62 130.32 262.34 130.86 262.19 131.34 261.42 131.34"/><polygon class="cls-2" points="263.83 131.34 263.83 130.42 265.29 130.42 265.62 130.45 265.9 130.47 266.16 130.55 266.36 130.65 266.52 130.78 266.64 130.93 266.72 131.11 266.75 131.34 266.08 131.34 266.08 131.34 266.06 131.22 266 131.11 265.93 131.01 265.83 130.93 265.7 130.88 265.57 130.86 265.44 130.83 265.29 130.83 264.49 130.83 264.49 131.34 263.83 131.34"/><polygon class="cls-2" points="261.37 132.01 261.42 131.37 261.42 131.34 262.19 131.34 262.16 131.47 262.11 132.01 261.37 132.01"/><polygon class="cls-2" points="263.83 132.01 263.83 131.34 264.49 131.34 264.49 131.88 265.16 131.88 265.39 131.88 265.6 131.88 265.75 131.86 265.88 131.8 265.95 131.75 266.03 131.65 266.08 131.52 266.08 131.34 266.75 131.34 266.75 131.34 266.72 131.57 266.67 131.78 266.59 131.93 266.52 132.01 263.83 132.01"/><polygon class="cls-2" points="268.18 132.01 268.13 131.47 268.11 131.34 268.9 131.34 268.9 131.37 268.98 132.01 268.18 132.01"/><polygon class="cls-2" points="261.37 132.01 261.34 132.14 261.42 132.91 261.65 133.62 262.03 134.24 262.52 134.8 263.08 135.24 263.73 135.57 264.42 135.78 265.16 135.85 265.93 135.78 266.64 135.57 267.29 135.24 267.85 134.8 268.31 134.24 268.67 133.62 268.9 132.91 268.98 132.14 268.98 132.01 268.18 132.01 268.18 132.14 268.13 132.8 267.95 133.42 267.67 133.96 267.31 134.42 266.88 134.8 266.36 135.08 265.77 135.26 265.16 135.31 264.55 135.26 263.96 135.08 263.44 134.8 262.98 134.42 262.62 133.96 262.34 133.42 262.16 132.8 262.11 132.14 262.11 132.01 261.37 132.01"/><polygon class="cls-2" points="263.83 132.01 263.83 133.6 264.49 133.6 264.49 132.29 265.16 132.29 265.95 133.6 266.62 133.6 265.67 132.29 265.9 132.27 266.13 132.24 266.31 132.16 266.47 132.06 266.52 132.01 263.83 132.01"/><polygon class="cls-4" points="179.29 76.91 178.78 76.88 178.26 76.83 177.8 76.75 177.34 76.7 176.88 76.62 176.42 76.55 175.93 76.47 175.42 76.39 174.88 76.34 174.32 76.29 173.68 76.24 172.99 76.21 172.22 76.21 171.37 76.24 170.42 76.29 169.4 76.37 168.66 76.47 167.96 76.62 167.32 76.83 166.76 77.06 166.25 77.34 165.79 77.65 165.4 78.01 165.09 78.36 164.87 78.78 164.71 79.21 164.63 79.65 164.63 80.11 164.74 80.59 164.92 81.08 165.2 81.57 165.56 82.05 166.3 82.72 167.17 83.26 168.19 83.72 169.3 84.1 170.45 84.49 171.65 84.87 172.88 85.31 174.06 85.82 175.16 86.44 176.21 87.18 177.14 88.13 177.9 89.25 178.49 90.64 178.88 92.28 179.01 94.22 178.88 96.53 178.6 98.25 178.13 99.78 177.55 101.17 176.8 102.39 175.93 103.47 174.98 104.39 173.93 105.19 172.81 105.88 171.63 106.44 170.4 106.9 169.14 107.29 167.89 107.57 166.63 107.78 165.4 107.9 164.22 107.98 163.07 108 161.48 108 160.05 107.98 158.74 107.95 157.54 107.93 156.44 107.88 155.46 107.83 154.54 107.75 153.72 107.65 152.95 107.54 152.24 107.42 151.57 107.29 150.9 107.11 150.29 106.93 149.67 106.75 149.06 106.52 148.42 106.29 150.01 98.25 150.37 98.32 150.8 98.45 151.34 98.58 151.93 98.73 152.62 98.86 153.39 99.04 154.21 99.19 155.08 99.35 156 99.47 156.97 99.6 157.97 99.7 159.02 99.81 160.07 99.86 161.15 99.88 162.23 99.88 163.33 99.83 164.35 99.65 165.2 99.37 165.84 98.96 166.35 98.5 166.74 97.96 167.02 97.4 167.25 96.84 167.4 96.27 167.48 95.68 167.45 95.17 167.32 94.68 167.12 94.27 166.84 93.86 166.48 93.5 166.04 93.17 165.56 92.86 165.02 92.58 164.43 92.3 163.79 92.02 163.12 91.76 162.46 91.51 161.74 91.22 161.02 90.94 160.28 90.64 159.56 90.33 158.84 90 158.13 89.61 157.44 89.2 156.77 88.77 156.16 88.28 155.56 87.72 155.03 87.13 154.54 86.46 154.1 85.74 153.75 84.95 153.44 84.1 153.23 83.16 153.11 82.13 153.08 81 153.16 79.8 153.23 79.06 153.34 78.34 153.44 77.65 153.59 76.98 153.75 76.34 153.93 75.7 154.16 75.11 154.39 74.52 154.67 73.98 154.95 73.45 155.28 72.96 155.64 72.47 156.03 72.01 156.44 71.58 156.87 71.17 157.36 70.78 157.87 70.42 158.41 70.09 159 69.78 159.61 69.48 160.25 69.22 160.94 68.96 161.66 68.76 162.43 68.55 163.25 68.37 164.1 68.22 164.97 68.09 165.89 67.99 166.86 67.91 167.89 67.86 168.94 67.81 170.04 67.81 171.4 67.81 172.63 67.84 173.73 67.86 174.75 67.91 175.65 67.96 176.47 68.02 177.21 68.09 177.85 68.14 178.44 68.22 178.96 68.3 179.44 68.35 179.85 68.42 180.21 68.48 180.54 68.53 180.85 68.58 181.13 68.6 179.29 76.91"/><polyline class="cls-5" points="179.29 76.91 179.29 76.91 178.78 76.88 178.26 76.83 177.8 76.75 177.34 76.7 176.88 76.62 176.42 76.55 175.93 76.47 175.42 76.39 174.88 76.34 174.32 76.29 173.68 76.24 172.99 76.21 172.22 76.21 171.37 76.24 170.42 76.29 169.4 76.37 169.4 76.37 168.66 76.47 167.96 76.62 167.32 76.83 166.76 77.06 166.25 77.34 165.79 77.65 165.4 78.01 165.09 78.36 164.87 78.78 164.71 79.21 164.63 79.65 164.63 80.11 164.74 80.59 164.92 81.08 165.2 81.57 165.56 82.05 165.56 82.05 166.3 82.72 167.17 83.26 168.19 83.72 169.3 84.1 170.45 84.49 171.65 84.87 172.88 85.31 174.06 85.82 175.16 86.44 176.21 87.18 177.14 88.13 177.9 89.25 178.49 90.64 178.88 92.28 179.01 94.22 178.88 96.53 178.88 96.53 178.6 98.25 178.13 99.78 177.55 101.17 176.8 102.39 175.93 103.47 174.98 104.39 173.93 105.19 172.81 105.88 171.63 106.44 170.4 106.9 169.14 107.29 167.89 107.57 166.63 107.78 165.4 107.9 164.22 107.98 163.07 108 163.07 108 161.48 108 160.05 107.98 158.74 107.95 157.54 107.93 156.44 107.88 155.46 107.83 154.54 107.75 153.72 107.65 152.95 107.54 152.24 107.42 151.57 107.29 150.9 107.11 150.29 106.93 149.67 106.75 149.06 106.52 148.42 106.29 150.01 98.25 150.01 98.25 150.37 98.32 150.8 98.45 151.34 98.58 151.93 98.73 152.62 98.86 153.39 99.04 154.21 99.19 155.08 99.35 156 99.47 156.97 99.6 157.97 99.7 159.02 99.81 160.07 99.86 161.15 99.88 162.23 99.88 163.33 99.83 163.33 99.83 164.35 99.65 165.2 99.37 165.84 98.96 166.35 98.5 166.74 97.96 167.02 97.4 167.25 96.84 167.4 96.27 167.4 96.27 167.48 95.68 167.45 95.17 167.32 94.68 167.12 94.27 166.84 93.86 166.48 93.5 166.04 93.17 165.56 92.86 165.02 92.58 164.43 92.3 163.79 92.02 163.12 91.76 162.46 91.51 161.74 91.22 161.02 90.94 160.28 90.64 159.56 90.33 158.84 90 158.13 89.61 157.44 89.2 156.77 88.77 156.16 88.28 155.56 87.72 155.03 87.13 154.54 86.46 154.1 85.74 153.75 84.95 153.44 84.1 153.23 83.16 153.11 82.13 153.08 81 153.16 79.8 153.16 79.8 153.23 79.06 153.34 78.34 153.44 77.65 153.59 76.98 153.75 76.34 153.93 75.7 154.16 75.11 154.39 74.52 154.67 73.98 154.95 73.45 155.28 72.96 155.64 72.47 156.03 72.01 156.44 71.58 156.87 71.17 157.36 70.78 157.87 70.42 158.41 70.09 159 69.78 159.61 69.48 160.25 69.22 160.94 68.96 161.66 68.76 162.43 68.55 163.25 68.37 164.1 68.22 164.97 68.09 165.89 67.99 166.86 67.91 167.89 67.86 168.94 67.81 170.04 67.81 170.04 67.81 171.4 67.81 172.63 67.84 173.73 67.86 174.75 67.91 175.65 67.96 176.47 68.02 177.21 68.09 177.85 68.14 178.44 68.22 178.96 68.3 179.44 68.35 179.85 68.42 180.21 68.48 180.54 68.53 180.85 68.58 181.13 68.6 179.29 76.91"/><polygon class="cls-4" points="187.72 59.77 198.01 59.77 196.43 68.73 202.75 68.73 201.32 76.91 194.84 76.78 191.43 97.19 191.38 97.63 191.38 98.01 191.43 98.35 191.53 98.66 191.69 98.91 191.87 99.17 192.1 99.37 192.35 99.53 192.66 99.68 192.97 99.81 193.33 99.91 193.69 99.96 194.09 100.04 194.5 100.06 194.94 100.09 195.38 100.09 196.2 100.09 196.91 100.04 197.58 99.94 198.14 99.81 198.58 99.68 198.91 99.55 199.12 99.45 199.19 99.42 198.14 106.42 197.89 106.57 197.6 106.7 197.32 106.83 197.04 106.95 196.76 107.06 196.45 107.16 196.14 107.26 195.79 107.36 195.43 107.47 195.04 107.54 194.61 107.62 194.15 107.7 193.66 107.78 193.15 107.85 192.56 107.93 191.94 108 189.18 108 187.72 107.9 186.41 107.75 185.26 107.54 184.26 107.26 183.41 106.95 182.69 106.57 182.11 106.14 181.62 105.65 181.24 105.11 180.95 104.52 180.77 103.88 180.67 103.16 180.65 102.42 180.67 101.6 180.75 100.75 180.88 99.83 187.72 59.77"/><polyline class="cls-5" points="187.72 59.77 198.01 59.77 196.43 68.73 202.75 68.73 201.32 76.91 194.84 76.78 191.43 97.19 191.43 97.19 191.38 97.63 191.38 98.01 191.43 98.35 191.53 98.66 191.69 98.91 191.87 99.17 192.1 99.37 192.35 99.53 192.66 99.68 192.97 99.81 193.33 99.91 193.69 99.96 194.09 100.04 194.5 100.06 194.94 100.09 195.38 100.09 195.38 100.09 196.2 100.09 196.91 100.04 197.58 99.94 198.14 99.81 198.58 99.68 198.91 99.55 199.12 99.45 199.19 99.42 198.14 106.42 198.14 106.42 197.89 106.57 197.6 106.7 197.32 106.83 197.04 106.95 196.76 107.06 196.45 107.16 196.14 107.26 195.79 107.36 195.43 107.47 195.04 107.54 194.61 107.62 194.15 107.7 193.66 107.78 193.15 107.85 192.56 107.93 191.94 108 189.18 108 189.18 108 187.72 107.9 186.41 107.75 185.26 107.54 184.26 107.26 183.41 106.95 182.69 106.57 182.11 106.14 181.62 105.65 181.24 105.11 180.95 104.52 180.77 103.88 180.67 103.16 180.65 102.42 180.67 101.6 180.75 100.75 180.88 99.83 187.72 59.77"/><polygon class="cls-4" points="125.11 90.87 124.98 91.51 124.95 92.15 125 92.84 125.16 93.5 125.36 94.2 125.67 94.89 126.03 95.56 126.46 96.19 126.95 96.81 127.51 97.4 128.1 97.91 128.74 98.4 129.44 98.81 130.15 99.14 130.92 99.4 131.69 99.58 132.61 99.7 133.53 99.83 134.48 99.94 135.43 99.99 136.4 100.01 137.35 100.01 138.35 99.96 139.32 99.88 140.32 99.73 141.35 99.55 142.37 99.3 143.4 98.96 144.42 98.58 145.5 98.12 146.55 97.55 147.62 96.94 146.03 106.03 145.45 106.34 144.86 106.62 144.32 106.85 143.76 107.06 143.19 107.26 142.63 107.42 142.04 107.54 141.4 107.67 140.73 107.75 140.01 107.83 139.22 107.9 138.38 107.93 137.45 107.98 136.43 107.98 135.3 108 134.07 108 133.18 108 132.25 107.95 131.36 107.9 130.43 107.8 129.49 107.67 128.56 107.52 127.64 107.31 126.72 107.11 125.82 106.83 124.93 106.55 124.06 106.21 123.18 105.83 122.34 105.39 121.52 104.93 120.75 104.42 119.98 103.86 119.27 103.24 118.57 102.57 117.91 101.86 117.32 101.09 116.75 100.24 116.24 99.37 115.78 98.42 115.37 97.42 115.01 96.35 114.73 95.22 114.5 94.04 114.35 92.76 114.24 91.43 114.24 90.05 114.3 88.56 114.42 87.02 114.5 86.49 114.58 85.87 114.68 85.26 114.81 84.59 114.94 83.9 115.11 83.18 115.32 82.44 115.52 81.67 115.78 80.88 116.06 80.11 116.39 79.31 116.75 78.52 117.16 77.72 117.6 76.93 118.09 76.14 118.6 75.37 119.19 74.63 119.8 73.88 120.47 73.17 121.21 72.5 121.98 71.83 122.83 71.22 123.72 70.65 124.7 70.12 125.72 69.66 126.82 69.22 127.97 68.83 129.2 68.53 130.51 68.27 131.89 68.09 133.33 67.99 134.87 67.94 135.58 67.94 136.3 67.99 137.04 68.04 137.79 68.12 138.53 68.22 139.3 68.37 140.04 68.55 140.78 68.76 141.53 68.99 142.27 69.27 142.99 69.58 143.68 69.94 144.34 70.35 145.01 70.78 145.63 71.29 146.24 71.83 146.8 72.42 147.34 73.06 147.83 73.78 148.26 74.52 148.67 75.34 149.03 76.21 149.34 77.16 149.57 78.16 149.78 79.24 149.9 80.36 149.96 81.57 149.96 82.85 149.88 84.21 149.75 85.64 149.52 87.15 149.21 88.74 148.8 91 122.19 91 123.77 83.87 139.73 83.87 139.81 82.9 139.81 82 139.76 81.16 139.6 80.39 139.4 79.7 139.14 79.06 138.81 78.49 138.43 77.98 137.99 77.52 137.5 77.14 136.99 76.83 136.45 76.57 135.87 76.37 135.25 76.21 134.61 76.14 133.94 76.11 133.23 76.11 132.56 76.21 131.89 76.34 131.28 76.55 130.69 76.83 130.13 77.16 129.59 77.55 129.1 77.98 128.64 78.49 128.23 79.03 127.85 79.62 127.49 80.26 127.18 80.93 126.92 81.64 126.72 82.41 126.54 83.21 125.11 90.87"/><polyline class="cls-5" points="125.11 90.87 125.11 90.87 124.98 91.51 124.95 92.15 125 92.84 125.16 93.5 125.36 94.2 125.67 94.89 126.03 95.56 126.46 96.19 126.95 96.81 127.51 97.4 128.1 97.91 128.74 98.4 129.44 98.81 130.15 99.14 130.92 99.4 131.69 99.58 131.69 99.58 132.61 99.7 133.53 99.83 134.48 99.94 135.43 99.99 136.4 100.01 137.35 100.01 138.35 99.96 139.32 99.88 140.32 99.73 141.35 99.55 142.37 99.3 143.4 98.96 144.42 98.58 145.5 98.12 146.55 97.55 147.62 96.94 146.03 106.03 146.03 106.03 145.45 106.34 144.86 106.62 144.32 106.85 143.76 107.06 143.19 107.26 142.63 107.42 142.04 107.54 141.4 107.67 140.73 107.75 140.01 107.83 139.22 107.9 138.38 107.93 137.45 107.98 136.43 107.98 135.3 108 134.07 108 134.07 108 133.18 108 132.25 107.95 131.36 107.9 130.43 107.8 129.49 107.67 128.56 107.52 127.64 107.31 126.72 107.11 125.82 106.83 124.93 106.55 124.06 106.21 123.18 105.83 122.34 105.39 121.52 104.93 120.75 104.42 119.98 103.86 119.27 103.24 118.57 102.57 117.91 101.86 117.32 101.09 116.75 100.24 116.24 99.37 115.78 98.42 115.37 97.42 115.01 96.35 114.73 95.22 114.5 94.04 114.35 92.76 114.24 91.43 114.24 90.05 114.3 88.56 114.42 87.02 114.42 87.02 114.5 86.49 114.58 85.87 114.68 85.26 114.81 84.59 114.94 83.9 115.11 83.18 115.32 82.44 115.52 81.67 115.78 80.88 116.06 80.11 116.39 79.31 116.75 78.52 117.16 77.72 117.6 76.93 118.09 76.14 118.6 75.37 119.19 74.63 119.8 73.88 120.47 73.17 121.21 72.5 121.98 71.83 122.83 71.22 123.72 70.65 124.7 70.12 125.72 69.66 126.82 69.22 127.97 68.83 129.2 68.53 130.51 68.27 131.89 68.09 133.33 67.99 134.87 67.94 134.87 67.94 135.58 67.94 136.3 67.99 137.04 68.04 137.79 68.12 138.53 68.22 139.3 68.37 140.04 68.55 140.78 68.76 141.53 68.99 142.27 69.27 142.99 69.58 143.68 69.94 144.34 70.35 145.01 70.78 145.63 71.29 146.24 71.83 146.8 72.42 147.34 73.06 147.83 73.78 148.26 74.52 148.67 75.34 149.03 76.21 149.34 77.16 149.57 78.16 149.78 79.24 149.9 80.36 149.96 81.57 149.96 82.85 149.88 84.21 149.75 85.64 149.52 87.15 149.21 88.74 148.8 91 122.19 91 123.77 83.87 139.73 83.87 139.73 83.87 139.81 82.9 139.81 82 139.76 81.16 139.6 80.39 139.4 79.7 139.14 79.06 138.81 78.49 138.43 77.98 137.99 77.52 137.5 77.14 136.99 76.83 136.45 76.57 135.87 76.37 135.25 76.21 134.61 76.14 133.94 76.11 133.94 76.11 133.23 76.11 132.56 76.21 131.89 76.34 131.28 76.55 130.69 76.83 130.13 77.16 129.59 77.55 129.1 77.98 128.64 78.49 128.23 79.03 127.85 79.62 127.49 80.26 127.18 80.93 126.92 81.64 126.72 82.41 126.54 83.21 125.11 90.87"/><polygon class="cls-4" points="110.86 99.83 109.4 108 100.15 108 100.26 107.24 100.36 106.47 100.46 105.78 100.56 105.14 100.67 104.6 100.74 104.14 100.84 103.83 100.95 103.65 100.46 104.21 99.85 104.78 99.15 105.31 98.36 105.83 97.52 106.31 96.59 106.78 95.62 107.19 94.62 107.57 93.57 107.9 92.49 108.19 91.42 108.39 90.34 108.54 89.27 108.62 88.22 108.65 87.19 108.57 86.19 108.42 84.89 108.11 83.73 107.7 82.68 107.21 81.76 106.67 80.94 106.08 80.25 105.42 79.63 104.73 79.12 103.96 78.69 103.19 78.33 102.39 78.05 101.58 77.81 100.73 77.66 99.91 77.56 99.06 77.51 98.25 77.48 97.45 77.58 96.02 77.81 94.66 78.15 93.35 78.63 92.12 79.22 90.97 79.89 89.89 80.68 88.89 81.53 87.95 82.48 87.1 83.48 86.36 84.55 85.67 85.68 85.08 86.86 84.56 88.06 84.16 89.29 83.85 90.55 83.62 90.6 83.62 90.78 83.59 91.06 83.57 91.44 83.51 91.88 83.46 92.39 83.41 92.95 83.33 93.57 83.28 94.18 83.23 94.8 83.16 95.44 83.1 96.05 83.05 96.62 83 97.16 82.98 97.64 82.95 98.05 82.95 98.49 82.95 98.92 82.95 99.36 82.95 99.82 82.98 100.26 82.98 100.67 83 101.08 83 101.49 83 101.84 83.03 102.18 83.03 102.46 83.05 102.72 83.05 102.92 83.08 103.07 83.08 103.18 83.08 103.2 83.08 103.28 82.82 103.46 82.21 103.59 81.49 103.59 80.85 103.53 80.39 103.46 79.95 103.33 79.54 103.15 79.16 102.95 78.8 102.69 78.47 102.43 78.16 102.13 77.85 101.79 77.6 101.46 77.39 101.08 77.19 100.69 77.01 100.28 76.88 99.85 76.78 99.41 76.7 98.97 76.65 97.92 76.62 96.82 76.65 95.67 76.67 94.49 76.75 93.31 76.83 92.14 76.93 90.96 77.06 89.8 77.19 88.7 77.37 87.65 77.52 86.7 77.7 85.81 77.9 85.01 78.11 84.35 78.31 83.81 78.52 83.42 78.75 86.06 70.04 86.83 69.68 87.65 69.35 88.47 69.07 89.34 68.83 90.24 68.66 91.16 68.5 92.14 68.37 93.13 68.27 94.16 68.22 95.21 68.17 96.28 68.14 97.41 68.14 98.59 68.14 99.77 68.14 101 68.17 102.28 68.19 103.33 68.3 104.43 68.45 105.58 68.73 106.74 69.07 107.89 69.5 109.04 70.04 110.12 70.65 111.14 71.37 112.09 72.19 112.94 73.09 113.65 74.09 114.22 75.19 114.63 76.39 114.86 77.7 114.88 79.08 114.68 80.59 110.86 99.83"/><polyline class="cls-5" points="110.86 99.83 109.4 108 100.15 108 100.15 108 100.26 107.24 100.36 106.47 100.46 105.78 100.56 105.14 100.67 104.6 100.74 104.14 100.84 103.83 100.95 103.65 100.95 103.65 100.46 104.21 99.85 104.78 99.15 105.31 98.36 105.83 97.52 106.31 96.59 106.78 95.62 107.19 94.62 107.57 93.57 107.9 92.49 108.19 91.42 108.39 90.34 108.54 89.27 108.62 88.22 108.65 87.19 108.57 86.19 108.42 86.19 108.42 84.89 108.11 83.73 107.7 82.68 107.21 81.76 106.67 80.94 106.08 80.25 105.42 79.63 104.73 79.12 103.96 78.69 103.19 78.33 102.39 78.05 101.58 77.81 100.73 77.66 99.91 77.56 99.06 77.51 98.25 77.48 97.45 77.48 97.45 77.58 96.02 77.81 94.66 78.15 93.35 78.63 92.12 79.22 90.97 79.89 89.89 80.68 88.89 81.53 87.95 82.48 87.1 83.48 86.36 84.55 85.67 85.68 85.08 86.86 84.56 88.06 84.16 89.29 83.85 90.55 83.62 90.55 83.62 90.6 83.62 90.78 83.59 91.06 83.57 91.44 83.51 91.88 83.46 92.39 83.41 92.95 83.33 93.57 83.28 94.18 83.23 94.8 83.16 95.44 83.1 96.05 83.05 96.62 83 97.16 82.98 97.64 82.95 98.05 82.95 98.05 82.95 98.49 82.95 98.92 82.95 99.36 82.95 99.82 82.98 100.26 82.98 100.67 83 101.08 83 101.49 83 101.84 83.03 102.18 83.03 102.46 83.05 102.72 83.05 102.92 83.08 103.07 83.08 103.18 83.08 103.2 83.08 103.2 83.08 103.28 82.82 103.46 82.21 103.59 81.49 103.59 80.85 103.59 80.85 103.53 80.39 103.46 79.95 103.33 79.54 103.15 79.16 102.95 78.8 102.69 78.47 102.43 78.16 102.13 77.85 101.79 77.6 101.46 77.39 101.08 77.19 100.69 77.01 100.28 76.88 99.85 76.78 99.41 76.7 98.97 76.65 98.97 76.65 97.92 76.62 96.82 76.65 95.67 76.67 94.49 76.75 93.31 76.83 92.14 76.93 90.96 77.06 89.8 77.19 88.7 77.37 87.65 77.52 86.7 77.7 85.81 77.9 85.01 78.11 84.35 78.31 83.81 78.52 83.42 78.75 86.06 70.04 86.06 70.04 86.83 69.68 87.65 69.35 88.47 69.07 89.34 68.83 90.24 68.66 91.16 68.5 92.14 68.37 93.13 68.27 94.16 68.22 95.21 68.17 96.28 68.14 97.41 68.14 98.59 68.14 99.77 68.14 101 68.17 102.28 68.19 102.28 68.19 103.33 68.3 104.43 68.45 105.58 68.73 106.74 69.07 107.89 69.5 109.04 70.04 110.12 70.65 111.14 71.37 112.09 72.19 112.94 73.09 113.65 74.09 114.22 75.19 114.63 76.39 114.86 77.7 114.88 79.08 114.68 80.59 110.86 99.83"/><polygon class="cls-3" points="102.02 90.2 102 90 101.84 89.84 101.59 89.71 101.25 89.64 100.82 89.59 100.36 89.56 99.82 89.56 99.26 89.56 98.67 89.61 98.05 89.69 97.46 89.77 96.87 89.87 96.31 89.97 95.77 90.07 95.31 90.2 94.9 90.33 94.67 90.38 94.36 90.48 93.98 90.61 93.57 90.79 93.13 90.97 92.65 91.2 92.16 91.48 91.67 91.76 91.19 92.12 90.73 92.51 90.29 92.92 89.91 93.38 89.55 93.86 89.29 94.4 89.09 94.99 88.96 95.61 88.91 96.86 89.09 97.83 89.39 98.6 89.86 99.17 90.42 99.55 91.01 99.81 91.65 99.94 92.26 99.96 93.39 99.94 94.39 99.83 95.34 99.65 96.18 99.42 96.95 99.17 97.64 98.86 98.26 98.5 98.8 98.12 99.28 97.73 99.69 97.3 100.05 96.89 100.36 96.45 100.61 96.02 100.82 95.61 100.97 95.2 101.1 94.81 101.23 94.25 101.36 93.66 101.49 93.04 101.61 92.4 101.72 91.79 101.82 91.22 101.92 90.69 102.02 90.2"/><polygon class="cls-4" points="33.55 108 23.53 108 31.96 59.77 49.38 59.77 51.09 88.48 62.96 59.77 81.04 59.77 72.59 108 62.57 108 68.9 71.88 68.52 71.88 53.6 108 42.38 108 42.28 106.49 42.05 102.47 41.72 96.78 41.34 90.25 40.95 83.67 40.62 77.85 40.39 73.65 40.28 71.88 40.26 71.88 40.16 71.88 40.05 71.88 39.92 71.88 39.82 71.88 39.77 71.88 39.77 71.88 39.87 71.88 33.55 108"/><polyline class="cls-5" points="33.55 108 23.53 108 31.96 59.77 49.38 59.77 51.09 88.48 62.96 59.77 81.04 59.77 72.59 108 62.57 108 68.9 71.88 68.52 71.88 53.6 108 42.38 108 42.38 108 42.28 106.49 42.05 102.47 41.72 96.78 41.34 90.25 40.95 83.67 40.62 77.85 40.39 73.65 40.28 71.88 40.28 71.88 40.26 71.88 40.16 71.88 40.05 71.88 39.92 71.88 39.82 71.88 39.77 71.88 39.77 71.88 39.87 71.88 33.55 108"/><polygon class="cls-4" points="200.91 108 211.34 108 211.34 108 214.9 87.18 215.05 86.36 215.23 85.56 215.44 84.77 215.69 84.03 215.97 83.28 216.33 82.59 216.77 81.93 217.25 81.28 217.84 80.72 218.51 80.21 219.3 79.75 220.17 79.34 221.2 79.01 222.35 78.75 223.63 78.6 225.07 78.49 225.19 78.49 225.35 78.52 225.55 78.54 225.76 78.54 225.94 78.57 226.09 78.6 226.19 78.62 226.25 78.62 226.27 78.47 226.37 78.03 226.5 77.37 226.71 76.52 226.96 75.57 227.25 74.55 227.58 73.52 227.96 72.55 228.24 71.83 228.58 71.14 228.91 70.45 229.27 69.81 229.58 69.27 229.83 68.83 230.01 68.55 230.06 68.45 230.01 68.45 229.88 68.4 229.7 68.37 229.45 68.32 229.19 68.27 228.88 68.25 228.6 68.19 228.35 68.19 227.22 68.27 226.19 68.4 225.25 68.6 224.38 68.83 223.56 69.14 222.81 69.48 222.1 69.89 221.46 70.32 220.81 70.81 220.23 71.35 219.69 71.91 219.12 72.52 218.59 73.17 218.07 73.86 217.54 74.57 217 75.32 218.2 68.73 207.78 68.6 200.91 108 200.91 108"/><polyline class="cls-5" points="200.91 108 211.34 108 211.34 108 214.9 87.18 214.9 87.18 215.05 86.36 215.23 85.56 215.44 84.77 215.69 84.03 215.97 83.28 216.33 82.59 216.77 81.93 217.25 81.28 217.84 80.72 218.51 80.21 219.3 79.75 220.17 79.34 221.2 79.01 222.35 78.75 223.63 78.6 225.07 78.49 225.07 78.49 225.19 78.49 225.35 78.52 225.55 78.54 225.76 78.54 225.94 78.57 226.09 78.6 226.19 78.62 226.25 78.62 226.25 78.62 226.27 78.47 226.37 78.03 226.5 77.37 226.71 76.52 226.96 75.57 227.25 74.55 227.58 73.52 227.96 72.55 227.96 72.55 228.24 71.83 228.58 71.14 228.91 70.45 229.27 69.81 229.58 69.27 229.83 68.83 230.01 68.55 230.06 68.45 230.06 68.45 230.01 68.45 229.88 68.4 229.7 68.37 229.45 68.32 229.19 68.27 228.88 68.25 228.6 68.19 228.35 68.19 228.35 68.19 227.22 68.27 226.19 68.4 225.25 68.6 224.38 68.83 223.56 69.14 222.81 69.48 222.1 69.89 221.46 70.32 220.81 70.81 220.23 71.35 219.69 71.91 219.12 72.52 218.59 73.17 218.07 73.86 217.54 74.57 217 75.32 218.2 68.73 207.78 68.6 200.91 108 200.91 108"/><polygon class="cls-4" points="246.02 68.19 247.18 68.22 248.3 68.3 249.41 68.4 250.48 68.55 251.51 68.76 252.5 69.01 253.45 69.3 254.4 69.63 255.3 70.01 256.14 70.42 256.99 70.86 257.76 71.35 258.52 71.88 259.24 72.45 259.91 73.04 260.55 73.68 261.16 74.34 261.73 75.06 262.24 75.78 262.73 76.55 263.19 77.34 263.57 78.19 263.96 79.03 264.26 79.93 264.55 80.82 264.77 81.77 264.98 82.75 265.13 83.75 265.24 84.74 265.29 85.79 265.31 86.87 265.29 87.95 265.21 89.25 265.06 90.51 264.88 91.71 264.65 92.89 264.39 94.02 264.06 95.09 263.7 96.14 263.31 97.14 262.85 98.09 262.39 99.01 261.86 99.88 261.32 100.7 260.73 101.5 260.09 102.24 259.42 102.93 258.73 103.6 258.01 104.21 257.27 104.8 256.48 105.34 255.68 105.83 254.84 106.29 253.96 106.7 253.09 107.08 252.17 107.42 251.25 107.72 250.28 107.98 249.3 108.19 248.33 108.36 247.3 108.49 246.28 108.59 245.23 108.65 244.18 108.67 243.13 108.65 242.08 108.59 241.08 108.49 240.08 108.34 239.11 108.16 238.13 107.95 237.21 107.7 236.31 107.39 235.42 107.06 234.57 106.67 233.75 106.26 232.96 105.8 232.19 105.31 231.47 104.78 230.75 104.21 230.09 103.6 229.47 102.96 228.86 102.27 228.32 101.55 227.78 100.78 227.32 99.99 226.86 99.14 226.48 98.27 226.12 97.37 225.81 96.43 225.53 95.43 225.3 94.4 225.12 93.35 224.99 92.25 224.91 91.12 224.89 89.94 224.91 88.74 224.99 87.51 225.12 86.33 225.3 85.18 225.53 84.08 225.78 83 226.09 81.95 226.43 80.95 226.81 79.98 227.22 79.03 227.68 78.13 228.19 77.29 228.73 76.44 229.29 75.67 229.91 74.91 230.55 74.22 231.22 73.52 231.93 72.88 232.68 72.29 233.44 71.73 234.24 71.22 235.08 70.76 235.96 70.3 236.85 69.91 237.75 69.55 238.7 69.25 239.67 68.96 240.67 68.73 241.69 68.53 242.74 68.4 243.82 68.27 244.92 68.22 246.02 68.19"/><polyline class="cls-5" points="246.02 68.19 246.02 68.19 247.18 68.22 248.3 68.3 249.41 68.4 250.48 68.55 251.51 68.76 252.5 69.01 253.45 69.3 254.4 69.63 255.3 70.01 256.14 70.42 256.99 70.86 257.76 71.35 258.52 71.88 259.24 72.45 259.91 73.04 260.55 73.68 261.16 74.34 261.73 75.06 262.24 75.78 262.73 76.55 263.19 77.34 263.57 78.19 263.96 79.03 264.26 79.93 264.55 80.82 264.77 81.77 264.98 82.75 265.13 83.75 265.24 84.74 265.29 85.79 265.31 86.87 265.29 87.95 265.29 87.95 265.21 89.25 265.06 90.51 264.88 91.71 264.65 92.89 264.39 94.02 264.06 95.09 263.7 96.14 263.31 97.14 262.85 98.09 262.39 99.01 261.86 99.88 261.32 100.7 260.73 101.5 260.09 102.24 259.42 102.93 258.73 103.6 258.01 104.21 257.27 104.8 256.48 105.34 255.68 105.83 254.84 106.29 253.96 106.7 253.09 107.08 252.17 107.42 251.25 107.72 250.28 107.98 249.3 108.19 248.33 108.36 247.3 108.49 246.28 108.59 245.23 108.65 244.18 108.67 244.18 108.67 243.13 108.65 242.08 108.59 241.08 108.49 240.08 108.34 239.11 108.16 238.13 107.95 237.21 107.7 236.31 107.39 235.42 107.06 234.57 106.67 233.75 106.26 232.96 105.8 232.19 105.31 231.47 104.78 230.75 104.21 230.09 103.6 229.47 102.96 228.86 102.27 228.32 101.55 227.78 100.78 227.32 99.99 226.86 99.14 226.48 98.27 226.12 97.37 225.81 96.43 225.53 95.43 225.3 94.4 225.12 93.35 224.99 92.25 224.91 91.12 224.89 89.94 224.91 88.74 224.91 88.74 224.99 87.51 225.12 86.33 225.3 85.18 225.53 84.08 225.78 83 226.09 81.95 226.43 80.95 226.81 79.98 227.22 79.03 227.68 78.13 228.19 77.29 228.73 76.44 229.29 75.67 229.91 74.91 230.55 74.22 231.22 73.52 231.93 72.88 232.68 72.29 233.44 71.73 234.24 71.22 235.08 70.76 235.96 70.3 236.85 69.91 237.75 69.55 238.7 69.25 239.67 68.96 240.67 68.73 241.69 68.53 242.74 68.4 243.82 68.27 244.92 68.22 246.02 68.19"/><polygon class="cls-4" points="261.34 106.03 264.37 106.03 264.37 106.42 263.19 106.42 263.19 108.93 262.52 108.93 262.52 106.42 261.34 106.42 261.34 106.03"/><polygon class="cls-4" points="264.75 106.03 265.67 106.03 266.75 108.26 266.75 108.26 267.8 106.03 268.72 106.03 268.72 108.93 268.05 108.93 268.05 106.7 268.05 106.7 267 108.93 266.47 108.93 265.42 106.7 265.42 106.7 265.42 108.93 264.75 108.93 264.75 106.03"/><polygon class="cls-2" points="237.85 87.02 237.7 88.46 237.62 89.79 237.62 91 237.7 92.12 237.85 93.15 238.08 94.04 238.36 94.86 238.72 95.61 239.16 96.25 239.64 96.78 240.18 97.25 240.77 97.6 241.41 97.89 242.13 98.09 242.87 98.19 243.67 98.25 244.54 98.22 245.38 98.12 246.18 97.94 246.94 97.66 247.66 97.3 248.35 96.84 249 96.3 249.61 95.66 250.15 94.94 250.66 94.12 251.15 93.2 251.56 92.2 251.94 91.1 252.27 89.89 252.53 88.59 252.76 87.18 252.89 86.08 252.97 85.03 252.97 84 252.89 83.03 252.76 82.13 252.56 81.26 252.27 80.47 251.94 79.72 251.53 79.06 251.07 78.49 250.53 77.98 249.94 77.57 249.28 77.24 248.56 77.03 247.79 76.91 246.94 76.91 245.9 76.98 244.92 77.16 244.03 77.47 243.18 77.85 242.41 78.36 241.69 78.93 241.05 79.57 240.49 80.29 239.95 81.06 239.49 81.88 239.08 82.69 238.75 83.57 238.44 84.44 238.18 85.31 238 86.18 237.85 87.02"/></svg>