<?xml version="1.0" encoding="utf-8"?>
<!-- Generator: Adobe Illustrator 22.0.1, SVG Export Plug-In . SVG Version: 6.00 Build 0)  -->
<svg version="1.1" id="Layer_1" xmlns="http://www.w3.org/2000/svg" xmlns:xlink="http://www.w3.org/1999/xlink" x="0px" y="0px"
	 viewBox="0 0 287.6 167.4" style="enable-background:new 0 0 287.6 167.4;" xml:space="preserve"  width="287" height="167">
<style type="text/css">
	.st0{display:none;fill:#FFFFFF;}
	.st1{fill:#E40520;}
	.st2{fill:#0080C3;}
	.st3{fill:#FFFFFF;}
	.st4{fill:none;stroke:#FFFFFF;stroke-width:0.21;}
</style>
<title>ms</title>
<polygon class="st0" points="0,0 287.6,0 287.6,167.4 0,167.4 0,0 "/>
<polygon class="st1" points="196.2,161.6 200.2,161.5 204.2,161.2 208.1,160.7 211.9,160 215.7,159.1 219.4,158.1 223,156.8
	226.6,155.4 230,153.9 233.4,152.1 236.7,150.3 239.8,148.2 242.9,146 245.8,143.7 248.7,141.3 251.4,138.7 254,136 256.4,133.1
	258.8,130.2 260.9,127.1 263,124 264.8,120.7 266.6,117.3 268.1,113.9 269.5,110.3 270.7,106.7 271.8,103 272.7,99.2 273.4,95.3
	273.8,91.5 274.1,87.5 274.2,83.5 274.1,79.5 273.8,75.5 273.4,71.6 272.7,67.8 271.8,64.1 270.7,60.4 269.5,56.8 268.1,53.2
	266.6,49.8 264.8,46.4 263,43.2 260.9,40 258.8,37 256.4,34 254,31.2 251.4,28.5 248.7,25.9 245.8,23.5 242.9,21.2 239.8,19
	236.7,17 233.4,15.1 230,13.3 226.6,11.8 223,10.4 219.4,9.2 215.7,8.1 211.9,7.2 208.1,6.6 204.2,6.1 200.2,5.8 196.2,5.7
	192.1,5.8 188.2,6.1 184.3,6.6 180.4,7.2 176.6,8.1 173,9.2 169.3,10.4 165.8,11.8 162.3,13.3 159,15.1 155.7,17 152.5,19
	149.5,21.2 146.6,23.5 143.7,25.9 141,28.5 138.4,31.2 136,34 133.7,37 131.5,40 129.5,43.2 127.6,46.4 125.9,49.8 124.4,53.2
	122.9,56.8 121.7,60.4 120.7,64.1 119.8,67.8 119.1,71.6 118.7,75.5 118.3,79.5 118.2,83.5 118.3,87.5 118.7,91.5 119.1,95.3
	119.8,99.2 120.7,103 121.7,106.7 122.9,110.3 124.4,113.9 125.9,117.3 127.6,120.7 129.5,124 131.5,127.1 133.7,130.2 136,133.1
	138.4,136 141,138.7 143.7,141.3 146.6,143.7 149.5,146 152.5,148.2 155.7,150.3 159,152.1 162.3,153.9 165.8,155.4 169.3,156.8
	173,158.1 176.6,159.1 180.4,160 184.3,160.7 188.2,161.2 192.1,161.5 "/>
<polygon class="st2" points="92.8,161.6 96.8,161.5 100.8,161.2 104.7,160.7 108.5,160 112.3,159.1 116,158.1 119.6,156.8
	123.2,155.4 126.6,153.9 130,152.1 133.2,150.3 136.4,148.2 139.4,146 142.4,143.7 145.2,141.3 147.9,138.7 150.5,136 152.9,133.1
	155.3,130.2 157.4,127.1 159.5,124 161.3,120.7 163.1,117.3 164.6,113.9 166,110.3 167.2,106.7 168.2,103 169.1,99.2 169.8,95.3
	170.3,91.5 170.6,87.5 170.7,83.5 170.6,79.5 170.3,75.5 169.8,71.6 169.1,67.8 168.2,64.1 167.2,60.4 166,56.8 164.6,53.2
	163.1,49.8 161.3,46.4 159.5,43.2 157.4,40 155.3,37 152.9,34 150.5,31.2 147.9,28.5 145.2,25.9 142.4,23.5 139.4,21.2 136.4,19
	133.2,17 130,15.1 126.6,13.3 123.2,11.8 119.6,10.4 116,9.2 112.3,8.1 108.5,7.2 104.7,6.6 100.8,6.1 96.8,5.8 92.8,5.7 88.8,5.8
	84.8,6.1 80.9,6.6 77.1,7.2 73.2,8.1 69.5,9.2 65.9,10.4 62.4,11.8 58.9,13.3 55.5,15.1 52.3,17 49.1,19 46,21.2 43.1,23.5
	40.3,25.9 37.6,28.5 35,31.2 32.5,34 30.2,37 28,40 26,43.2 24.1,46.4 22.4,49.8 20.8,53.2 19.4,56.8 18.2,60.4 17.1,64.1
	16.3,67.8 15.6,71.6 15.1,75.5 14.8,79.5 14.7,83.5 14.8,87.5 15.1,91.5 15.6,95.3 16.3,99.2 17.1,103 18.2,106.7 19.4,110.3
	20.8,113.9 22.4,117.3 24.1,120.7 26,124 28,127.1 30.2,130.2 32.5,133.1 35,136 37.6,138.7 40.3,141.3 43.1,143.7 46,146
	49.1,148.2 52.3,150.3 55.5,152.1 58.9,153.9 62.4,155.4 65.9,156.8 69.5,158.1 73.2,159.1 77.1,160 80.9,160.7 84.8,161.2
	88.8,161.5 "/>
<polygon class="st1" points="134.9,35.3 174.4,35.3 174.4,31 138.7,31 "/>
<polygon class="st1" points="128.7,44.6 174.4,44.6 174.4,40.2 131.4,40.2 "/>
<polygon class="st1" points="124,53.9 174.4,53.9 174.4,49.6 126.2,49.6 "/>
<polygon class="st1" points="121,63.2 174.4,63.2 174.4,58.8 122.3,58.8 "/>
<polygon class="st1" points="119,72.4 174.4,72.4 174.4,68.1 119.8,68.1 "/>
<polygon class="st1" points="118.6,90.3 174.4,90.3 174.4,86 118.2,86 "/>
<polygon class="st1" points="120,100.1 174.4,100.1 174.4,95.7 119.2,95.7 "/>
<polygon class="st1" points="122.6,108 174.4,108 174.4,103.6 121.3,103.6 "/>
<polygon class="st1" points="126.5,117.6 174.4,117.6 174.4,113.3 124.4,113.3 "/>
<polygon class="st1" points="132.1,127.4 174.4,127.4 174.4,123 129.2,123 "/>
<polygon class="st1" points="139.1,136.8 174,136.8 174,132.4 135.2,132.4 "/>
<polygon class="st1" points="261.4,131.3 261.6,130.6 262,130 262.5,129.4 263.1,129 263.7,128.6 264.4,128.4 265.2,128.3
	265.9,128.4 266.6,128.6 267.3,129 267.9,129.4 268.3,130 268.7,130.6 268.9,131.3 268.1,131.3 268,130.9 267.7,130.3 267.3,129.9
	266.9,129.5 266.4,129.2 265.8,129 265.2,129 264.5,129 264,129.2 263.4,129.5 263,129.9 262.6,130.3 262.3,130.9 262.2,131.3 "/>
<polygon class="st1" points="263.8,131.3 263.8,130.4 265.3,130.4 265.6,130.4 265.9,130.5 266.2,130.5 266.4,130.6 266.5,130.8
	266.6,130.9 266.7,131.1 266.8,131.3 266.1,131.3 266.1,131.3 266.1,131.2 266,131.1 265.9,131 265.8,130.9 265.7,130.9
	265.6,130.9 265.4,130.8 265.3,130.8 264.5,130.8 264.5,131.3 "/>
<polygon class="st1" points="261.4,132 261.4,131.4 261.4,131.3 262.2,131.3 262.2,131.5 262.1,132 "/>
<polygon class="st1" points="263.8,132 263.8,131.3 264.5,131.3 264.5,131.9 265.2,131.9 265.4,131.9 265.6,131.9 265.8,131.9
	265.9,131.8 266,131.7 266,131.6 266.1,131.5 266.1,131.3 266.8,131.3 266.8,131.3 266.7,131.6 266.7,131.8 266.6,131.9 266.5,132
	"/>
<polygon class="st1" points="268.2,132 268.1,131.5 268.1,131.3 268.9,131.3 268.9,131.4 269,132 "/>
<polygon class="st1" points="261.4,132 261.3,132.1 261.4,132.9 261.6,133.6 262,134.2 262.5,134.8 263.1,135.2 263.7,135.6
	264.4,135.8 265.2,135.8 265.9,135.8 266.6,135.6 267.3,135.2 267.9,134.8 268.3,134.2 268.7,133.6 268.9,132.9 269,132.1 269,132
	268.2,132 268.2,132.1 268.1,132.8 268,133.4 267.7,134 267.3,134.4 266.9,134.8 266.4,135.1 265.8,135.3 265.2,135.3 264.5,135.3
	264,135.1 263.4,134.8 263,134.4 262.6,134 262.3,133.4 262.2,132.8 262.1,132.1 262.1,132 "/>
<polygon class="st1" points="263.8,132 263.8,133.6 264.5,133.6 264.5,132.3 265.2,132.3 266,133.6 266.6,133.6 265.7,132.3
	265.9,132.3 266.1,132.2 266.3,132.2 266.5,132.1 266.5,132 "/>
<polygon class="st3" points="179.3,76.9 178.8,76.9 178.3,76.8 177.8,76.7 177.3,76.7 176.9,76.6 176.4,76.5 175.9,76.5 175.4,76.4
	174.9,76.3 174.3,76.3 173.7,76.2 173,76.2 172.2,76.2 171.4,76.2 170.4,76.3 169.4,76.4 168.7,76.5 168,76.6 167.3,76.8
	166.8,77.1 166.2,77.3 165.8,77.6 165.4,78 165.1,78.4 164.9,78.8 164.7,79.2 164.6,79.6 164.6,80.1 164.7,80.6 164.9,81.1
	165.2,81.6 165.6,82 166.3,82.7 167.2,83.3 168.2,83.7 169.3,84.1 170.4,84.5 171.6,84.9 172.9,85.3 174.1,85.8 175.2,86.4
	176.2,87.2 177.1,88.1 177.9,89.2 178.5,90.6 178.9,92.3 179,94.2 178.9,96.5 178.6,98.2 178.1,99.8 177.6,101.2 176.8,102.4
	175.9,103.5 175,104.4 173.9,105.2 172.8,105.9 171.6,106.4 170.4,106.9 169.1,107.3 167.9,107.6 166.6,107.8 165.4,107.9
	164.2,108 163.1,108 161.5,108 160.1,108 158.7,107.9 157.5,107.9 156.4,107.9 155.5,107.8 154.5,107.7 153.7,107.6 152.9,107.5
	152.2,107.4 151.6,107.3 150.9,107.1 150.3,106.9 149.7,106.7 149.1,106.5 148.4,106.3 150,98.2 150.4,98.3 150.8,98.4 151.3,98.6
	151.9,98.7 152.6,98.9 153.4,99 154.2,99.2 155.1,99.3 156,99.5 157,99.6 158,99.7 159,99.8 160.1,99.9 161.1,99.9 162.2,99.9
	163.3,99.8 164.4,99.6 165.2,99.4 165.8,99 166.4,98.5 166.7,98 167,97.4 167.2,96.8 167.4,96.3 167.5,95.7 167.4,95.2 167.3,94.7
	167.1,94.3 166.8,93.9 166.5,93.5 166,93.2 165.6,92.9 165,92.6 164.4,92.3 163.8,92 163.1,91.8 162.5,91.5 161.7,91.2 161,90.9
	160.3,90.6 159.6,90.3 158.8,90 158.1,89.6 157.4,89.2 156.8,88.8 156.2,88.3 155.6,87.7 155,87.1 154.5,86.5 154.1,85.7
	153.8,84.9 153.4,84.1 153.2,83.2 153.1,82.1 153.1,81 153.2,79.8 153.2,79.1 153.3,78.3 153.4,77.6 153.6,77 153.8,76.3
	153.9,75.7 154.2,75.1 154.4,74.5 154.7,74 154.9,73.4 155.3,73 155.6,72.5 156,72 156.4,71.6 156.9,71.2 157.4,70.8 157.9,70.4
	158.4,70.1 159,69.8 159.6,69.5 160.2,69.2 160.9,69 161.7,68.8 162.4,68.5 163.2,68.4 164.1,68.2 165,68.1 165.9,68 166.9,67.9
	167.9,67.9 168.9,67.8 170,67.8 171.4,67.8 172.6,67.8 173.7,67.9 174.8,67.9 175.6,68 176.5,68 177.2,68.1 177.9,68.1 178.4,68.2
	179,68.3 179.4,68.3 179.9,68.4 180.2,68.5 180.5,68.5 180.9,68.6 181.1,68.6 "/>
<polyline class="st4" points="179.3,76.9 179.3,76.9 178.8,76.9 178.3,76.8 177.8,76.7 177.3,76.7 176.9,76.6 176.4,76.5
	175.9,76.5 175.4,76.4 174.9,76.3 174.3,76.3 173.7,76.2 173,76.2 172.2,76.2 171.4,76.2 170.4,76.3 169.4,76.4 169.4,76.4
	168.7,76.5 168,76.6 167.3,76.8 166.8,77.1 166.2,77.3 165.8,77.6 165.4,78 165.1,78.4 164.9,78.8 164.7,79.2 164.6,79.6
	164.6,80.1 164.7,80.6 164.9,81.1 165.2,81.6 165.6,82 165.6,82 166.3,82.7 167.2,83.3 168.2,83.7 169.3,84.1 170.4,84.5
	171.6,84.9 172.9,85.3 174.1,85.8 175.2,86.4 176.2,87.2 177.1,88.1 177.9,89.2 178.5,90.6 178.9,92.3 179,94.2 178.9,96.5
	178.9,96.5 178.6,98.2 178.1,99.8 177.6,101.2 176.8,102.4 175.9,103.5 175,104.4 173.9,105.2 172.8,105.9 171.6,106.4 170.4,106.9
	169.1,107.3 167.9,107.6 166.6,107.8 165.4,107.9 164.2,108 163.1,108 163.1,108 161.5,108 160.1,108 158.7,107.9 157.5,107.9
	156.4,107.9 155.5,107.8 154.5,107.7 153.7,107.6 152.9,107.5 152.2,107.4 151.6,107.3 150.9,107.1 150.3,106.9 149.7,106.7
	149.1,106.5 148.4,106.3 150,98.2 150,98.2 150.4,98.3 150.8,98.4 151.3,98.6 151.9,98.7 152.6,98.9 153.4,99 154.2,99.2
	155.1,99.3 156,99.5 157,99.6 158,99.7 159,99.8 160.1,99.9 161.1,99.9 162.2,99.9 163.3,99.8 163.3,99.8 164.4,99.6 165.2,99.4
	165.8,99 166.4,98.5 166.7,98 167,97.4 167.2,96.8 167.4,96.3 167.4,96.3 167.5,95.7 167.4,95.2 167.3,94.7 167.1,94.3 166.8,93.9
	166.5,93.5 166,93.2 165.6,92.9 165,92.6 164.4,92.3 163.8,92 163.1,91.8 162.5,91.5 161.7,91.2 161,90.9 160.3,90.6 159.6,90.3
	158.8,90 158.1,89.6 157.4,89.2 156.8,88.8 156.2,88.3 155.6,87.7 155,87.1 154.5,86.5 154.1,85.7 153.8,84.9 153.4,84.1
	153.2,83.2 153.1,82.1 153.1,81 153.2,79.8 153.2,79.8 153.2,79.1 153.3,78.3 153.4,77.6 153.6,77 153.8,76.3 153.9,75.7
	154.2,75.1 154.4,74.5 154.7,74 154.9,73.4 155.3,73 155.6,72.5 156,72 156.4,71.6 156.9,71.2 157.4,70.8 157.9,70.4 158.4,70.1
	159,69.8 159.6,69.5 160.2,69.2 160.9,69 161.7,68.8 162.4,68.5 163.2,68.4 164.1,68.2 165,68.1 165.9,68 166.9,67.9 167.9,67.9
	168.9,67.8 170,67.8 170,67.8 171.4,67.8 172.6,67.8 173.7,67.9 174.8,67.9 175.6,68 176.5,68 177.2,68.1 177.9,68.1 178.4,68.2
	179,68.3 179.4,68.3 179.9,68.4 180.2,68.5 180.5,68.5 180.9,68.6 181.1,68.6 179.3,76.9 "/>
<polygon class="st3" points="187.7,59.8 198,59.8 196.4,68.7 202.8,68.7 201.3,76.9 194.8,76.8 191.4,97.2 191.4,97.6 191.4,98
	191.4,98.3 191.5,98.7 191.7,98.9 191.9,99.2 192.1,99.4 192.4,99.5 192.7,99.7 193,99.8 193.3,99.9 193.7,100 194.1,100
	194.5,100.1 194.9,100.1 195.4,100.1 196.2,100.1 196.9,100 197.6,99.9 198.1,99.8 198.6,99.7 198.9,99.5 199.1,99.4 199.2,99.4
	198.1,106.4 197.9,106.6 197.6,106.7 197.3,106.8 197,106.9 196.8,107.1 196.4,107.2 196.1,107.3 195.8,107.4 195.4,107.5
	195,107.5 194.6,107.6 194.1,107.7 193.7,107.8 193.1,107.8 192.6,107.9 191.9,108 189.2,108 187.7,107.9 186.4,107.7 185.3,107.5
	184.3,107.3 183.4,106.9 182.7,106.6 182.1,106.1 181.6,105.6 181.2,105.1 180.9,104.5 180.8,103.9 180.7,103.2 180.6,102.4
	180.7,101.6 180.8,100.7 180.9,99.8 "/>
<polyline class="st4" points="187.7,59.8 198,59.8 196.4,68.7 202.8,68.7 201.3,76.9 194.8,76.8 191.4,97.2 191.4,97.2 191.4,97.6
	191.4,98 191.4,98.3 191.5,98.7 191.7,98.9 191.9,99.2 192.1,99.4 192.4,99.5 192.7,99.7 193,99.8 193.3,99.9 193.7,100 194.1,100
	194.5,100.1 194.9,100.1 195.4,100.1 195.4,100.1 196.2,100.1 196.9,100 197.6,99.9 198.1,99.8 198.6,99.7 198.9,99.5 199.1,99.4
	199.2,99.4 198.1,106.4 198.1,106.4 197.9,106.6 197.6,106.7 197.3,106.8 197,106.9 196.8,107.1 196.4,107.2 196.1,107.3
	195.8,107.4 195.4,107.5 195,107.5 194.6,107.6 194.1,107.7 193.7,107.8 193.1,107.8 192.6,107.9 191.9,108 189.2,108 189.2,108
	187.7,107.9 186.4,107.7 185.3,107.5 184.3,107.3 183.4,106.9 182.7,106.6 182.1,106.1 181.6,105.6 181.2,105.1 180.9,104.5
	180.8,103.9 180.7,103.2 180.6,102.4 180.7,101.6 180.8,100.7 180.9,99.8 187.7,59.8 "/>
<polygon class="st3" points="125.1,90.9 125,91.5 124.9,92.1 125,92.8 125.2,93.5 125.4,94.2 125.7,94.9 126,95.6 126.5,96.2
	126.9,96.8 127.5,97.4 128.1,97.9 128.7,98.4 129.4,98.8 130.1,99.1 130.9,99.4 131.7,99.6 132.6,99.7 133.5,99.8 134.5,99.9
	135.4,100 136.4,100 137.4,100 138.4,100 139.3,99.9 140.3,99.7 141.4,99.5 142.4,99.3 143.4,99 144.4,98.6 145.5,98.1 146.6,97.5
	147.6,96.9 146,106 145.4,106.3 144.9,106.6 144.3,106.8 143.8,107.1 143.2,107.3 142.6,107.4 142,107.5 141.4,107.7 140.7,107.7
	140,107.8 139.2,107.9 138.4,107.9 137.4,108 136.4,108 135.3,108 134.1,108 133.2,108 132.2,107.9 131.4,107.9 130.4,107.8
	129.5,107.7 128.6,107.5 127.6,107.3 126.7,107.1 125.8,106.8 124.9,106.5 124.1,106.2 123.2,105.8 122.3,105.4 121.5,104.9
	120.8,104.4 120,103.9 119.3,103.2 118.6,102.6 117.9,101.9 117.3,101.1 116.8,100.2 116.2,99.4 115.8,98.4 115.4,97.4 115,96.3
	114.7,95.2 114.5,94 114.3,92.8 114.2,91.4 114.2,90 114.3,88.6 114.4,87 114.5,86.5 114.6,85.9 114.7,85.3 114.8,84.6 114.9,83.9
	115.1,83.2 115.3,82.4 115.5,81.7 115.8,80.9 116.1,80.1 116.4,79.3 116.8,78.5 117.2,77.7 117.6,76.9 118.1,76.1 118.6,75.4
	119.2,74.6 119.8,73.9 120.5,73.2 121.2,72.5 122,71.8 122.8,71.2 123.7,70.6 124.7,70.1 125.7,69.7 126.8,69.2 128,68.8
	129.2,68.5 130.5,68.3 131.9,68.1 133.3,68 134.9,67.9 135.6,67.9 136.3,68 137,68 137.8,68.1 138.5,68.2 139.3,68.4 140,68.5
	140.8,68.8 141.5,69 142.3,69.3 143,69.6 143.7,69.9 144.3,70.3 145,70.8 145.6,71.3 146.2,71.8 146.8,72.4 147.3,73.1 147.8,73.8
	148.3,74.5 148.7,75.3 149,76.2 149.3,77.2 149.6,78.2 149.8,79.2 149.9,80.4 150,81.6 150,82.8 149.9,84.2 149.8,85.6 149.5,87.1
	149.2,88.7 148.8,91 122.2,91 123.8,83.9 139.7,83.9 139.8,82.9 139.8,82 139.8,81.2 139.6,80.4 139.4,79.7 139.1,79.1 138.8,78.5
	138.4,78 138,77.5 137.5,77.1 137,76.8 136.4,76.6 135.9,76.4 135.2,76.2 134.6,76.1 133.9,76.1 133.2,76.1 132.6,76.2 131.9,76.3
	131.3,76.5 130.7,76.8 130.1,77.2 129.6,77.5 129.1,78 128.6,78.5 128.2,79 127.8,79.6 127.5,80.3 127.2,80.9 126.9,81.6
	126.7,82.4 126.5,83.2 "/>
<polyline class="st4" points="125.1,90.9 125.1,90.9 125,91.5 124.9,92.1 125,92.8 125.2,93.5 125.4,94.2 125.7,94.9 126,95.6
	126.5,96.2 126.9,96.8 127.5,97.4 128.1,97.9 128.7,98.4 129.4,98.8 130.1,99.1 130.9,99.4 131.7,99.6 131.7,99.6 132.6,99.7
	133.5,99.8 134.5,99.9 135.4,100 136.4,100 137.4,100 138.4,100 139.3,99.9 140.3,99.7 141.4,99.5 142.4,99.3 143.4,99 144.4,98.6
	145.5,98.1 146.6,97.5 147.6,96.9 146,106 146,106 145.4,106.3 144.9,106.6 144.3,106.8 143.8,107.1 143.2,107.3 142.6,107.4
	142,107.5 141.4,107.7 140.7,107.7 140,107.8 139.2,107.9 138.4,107.9 137.4,108 136.4,108 135.3,108 134.1,108 134.1,108
	133.2,108 132.2,107.9 131.4,107.9 130.4,107.8 129.5,107.7 128.6,107.5 127.6,107.3 126.7,107.1 125.8,106.8 124.9,106.5
	124.1,106.2 123.2,105.8 122.3,105.4 121.5,104.9 120.8,104.4 120,103.9 119.3,103.2 118.6,102.6 117.9,101.9 117.3,101.1
	116.8,100.2 116.2,99.4 115.8,98.4 115.4,97.4 115,96.3 114.7,95.2 114.5,94 114.3,92.8 114.2,91.4 114.2,90 114.3,88.6 114.4,87
	114.4,87 114.5,86.5 114.6,85.9 114.7,85.3 114.8,84.6 114.9,83.9 115.1,83.2 115.3,82.4 115.5,81.7 115.8,80.9 116.1,80.1
	116.4,79.3 116.8,78.5 117.2,77.7 117.6,76.9 118.1,76.1 118.6,75.4 119.2,74.6 119.8,73.9 120.5,73.2 121.2,72.5 122,71.8
	122.8,71.2 123.7,70.6 124.7,70.1 125.7,69.7 126.8,69.2 128,68.8 129.2,68.5 130.5,68.3 131.9,68.1 133.3,68 134.9,67.9
	134.9,67.9 135.6,67.9 136.3,68 137,68 137.8,68.1 138.5,68.2 139.3,68.4 140,68.5 140.8,68.8 141.5,69 142.3,69.3 143,69.6
	143.7,69.9 144.3,70.3 145,70.8 145.6,71.3 146.2,71.8 146.8,72.4 147.3,73.1 147.8,73.8 148.3,74.5 148.7,75.3 149,76.2
	149.3,77.2 149.6,78.2 149.8,79.2 149.9,80.4 150,81.6 150,82.8 149.9,84.2 149.8,85.6 149.5,87.1 149.2,88.7 148.8,91 122.2,91
	123.8,83.9 139.7,83.9 139.7,83.9 139.8,82.9 139.8,82 139.8,81.2 139.6,80.4 139.4,79.7 139.1,79.1 138.8,78.5 138.4,78 138,77.5
	137.5,77.1 137,76.8 136.4,76.6 135.9,76.4 135.2,76.2 134.6,76.1 133.9,76.1 133.9,76.1 133.2,76.1 132.6,76.2 131.9,76.3
	131.3,76.5 130.7,76.8 130.1,77.2 129.6,77.5 129.1,78 128.6,78.5 128.2,79 127.8,79.6 127.5,80.3 127.2,80.9 126.9,81.6
	126.7,82.4 126.5,83.2 125.1,90.9 "/>
<polygon class="st3" points="110.9,99.8 109.4,108 100.2,108 100.3,107.2 100.4,106.5 100.5,105.8 100.6,105.1 100.7,104.6
	100.7,104.1 100.8,103.8 100.9,103.6 100.5,104.2 99.8,104.8 99.2,105.3 98.4,105.8 97.5,106.3 96.6,106.8 95.6,107.2 94.6,107.6
	93.6,107.9 92.5,108.2 91.4,108.4 90.3,108.5 89.3,108.6 88.2,108.6 87.2,108.6 86.2,108.4 84.9,108.1 83.7,107.7 82.7,107.2
	81.8,106.7 80.9,106.1 80.2,105.4 79.6,104.7 79.1,104 78.7,103.2 78.3,102.4 78.1,101.6 77.8,100.7 77.7,99.9 77.6,99.1 77.5,98.2
	77.5,97.4 77.6,96 77.8,94.7 78.2,93.3 78.6,92.1 79.2,91 79.9,89.9 80.7,88.9 81.5,87.9 82.5,87.1 83.5,86.4 84.6,85.7 85.7,85.1
	86.9,84.6 88.1,84.2 89.3,83.8 90.6,83.6 90.6,83.6 90.8,83.6 91.1,83.6 91.4,83.5 91.9,83.5 92.4,83.4 92.9,83.3 93.6,83.3
	94.2,83.2 94.8,83.2 95.4,83.1 96.1,83 96.6,83 97.2,83 97.6,82.9 98.1,82.9 98.5,82.9 98.9,82.9 99.4,82.9 99.8,83 100.3,83
	100.7,83 101.1,83 101.5,83 101.8,83 102.2,83 102.5,83 102.7,83 102.9,83.1 103.1,83.1 103.2,83.1 103.2,83.1 103.3,82.8
	103.5,82.2 103.6,81.5 103.6,80.8 103.5,80.4 103.5,79.9 103.3,79.5 103.2,79.2 102.9,78.8 102.7,78.5 102.4,78.2 102.1,77.8
	101.8,77.6 101.5,77.4 101.1,77.2 100.7,77 100.3,76.9 99.8,76.8 99.4,76.7 99,76.6 97.9,76.6 96.8,76.6 95.7,76.7 94.5,76.7
	93.3,76.8 92.1,76.9 91,77.1 89.8,77.2 88.7,77.4 87.7,77.5 86.7,77.7 85.8,77.9 85,78.1 84.3,78.3 83.8,78.5 83.4,78.7 86.1,70
	86.8,69.7 87.7,69.3 88.5,69.1 89.3,68.8 90.2,68.7 91.2,68.5 92.1,68.4 93.1,68.3 94.2,68.2 95.2,68.2 96.3,68.1 97.4,68.1
	98.6,68.1 99.8,68.1 101,68.2 102.3,68.2 103.3,68.3 104.4,68.4 105.6,68.7 106.7,69.1 107.9,69.5 109,70 110.1,70.6 111.1,71.4
	112.1,72.2 112.9,73.1 113.7,74.1 114.2,75.2 114.6,76.4 114.9,77.7 114.9,79.1 114.7,80.6 "/>
<polyline class="st4" points="110.9,99.8 109.4,108 100.2,108 100.2,108 100.3,107.2 100.4,106.5 100.5,105.8 100.6,105.1
	100.7,104.6 100.7,104.1 100.8,103.8 100.9,103.6 100.9,103.6 100.5,104.2 99.8,104.8 99.2,105.3 98.4,105.8 97.5,106.3 96.6,106.8
	95.6,107.2 94.6,107.6 93.6,107.9 92.5,108.2 91.4,108.4 90.3,108.5 89.3,108.6 88.2,108.6 87.2,108.6 86.2,108.4 86.2,108.4
	84.9,108.1 83.7,107.7 82.7,107.2 81.8,106.7 80.9,106.1 80.2,105.4 79.6,104.7 79.1,104 78.7,103.2 78.3,102.4 78.1,101.6
	77.8,100.7 77.7,99.9 77.6,99.1 77.5,98.2 77.5,97.4 77.5,97.4 77.6,96 77.8,94.7 78.2,93.3 78.6,92.1 79.2,91 79.9,89.9 80.7,88.9
	81.5,87.9 82.5,87.1 83.5,86.4 84.6,85.7 85.7,85.1 86.9,84.6 88.1,84.2 89.3,83.8 90.6,83.6 90.6,83.6 90.6,83.6 90.8,83.6
	91.1,83.6 91.4,83.5 91.9,83.5 92.4,83.4 92.9,83.3 93.6,83.3 94.2,83.2 94.8,83.2 95.4,83.1 96.1,83 96.6,83 97.2,83 97.6,82.9
	98.1,82.9 98.1,82.9 98.5,82.9 98.9,82.9 99.4,82.9 99.8,83 100.3,83 100.7,83 101.1,83 101.5,83 101.8,83 102.2,83 102.5,83
	102.7,83 102.9,83.1 103.1,83.1 103.2,83.1 103.2,83.1 103.2,83.1 103.3,82.8 103.5,82.2 103.6,81.5 103.6,80.8 103.6,80.8
	103.5,80.4 103.5,79.9 103.3,79.5 103.2,79.2 102.9,78.8 102.7,78.5 102.4,78.2 102.1,77.8 101.8,77.6 101.5,77.4 101.1,77.2
	100.7,77 100.3,76.9 99.8,76.8 99.4,76.7 99,76.6 99,76.6 97.9,76.6 96.8,76.6 95.7,76.7 94.5,76.7 93.3,76.8 92.1,76.9 91,77.1
	89.8,77.2 88.7,77.4 87.7,77.5 86.7,77.7 85.8,77.9 85,78.1 84.3,78.3 83.8,78.5 83.4,78.7 86.1,70 86.1,70 86.8,69.7 87.7,69.3
	88.5,69.1 89.3,68.8 90.2,68.7 91.2,68.5 92.1,68.4 93.1,68.3 94.2,68.2 95.2,68.2 96.3,68.1 97.4,68.1 98.6,68.1 99.8,68.1
	101,68.2 102.3,68.2 102.3,68.2 103.3,68.3 104.4,68.4 105.6,68.7 106.7,69.1 107.9,69.5 109,70 110.1,70.6 111.1,71.4 112.1,72.2
	112.9,73.1 113.7,74.1 114.2,75.2 114.6,76.4 114.9,77.7 114.9,79.1 114.7,80.6 110.9,99.8 "/>
<polygon class="st2" points="102,90.2 102,90 101.8,89.8 101.6,89.7 101.2,89.6 100.8,89.6 100.4,89.6 99.8,89.6 99.3,89.6
	98.7,89.6 98.1,89.7 97.5,89.8 96.9,89.9 96.3,90 95.8,90.1 95.3,90.2 94.9,90.3 94.7,90.4 94.4,90.5 94,90.6 93.6,90.8 93.1,91
	92.7,91.2 92.2,91.5 91.7,91.8 91.2,92.1 90.7,92.5 90.3,92.9 89.9,93.4 89.6,93.9 89.3,94.4 89.1,95 89,95.6 88.9,96.9 89.1,97.8
	89.4,98.6 89.9,99.2 90.4,99.5 91,99.8 91.7,99.9 92.3,100 93.4,99.9 94.4,99.8 95.3,99.6 96.2,99.4 96.9,99.2 97.6,98.9 98.3,98.5
	98.8,98.1 99.3,97.7 99.7,97.3 100.1,96.9 100.4,96.4 100.6,96 100.8,95.6 101,95.2 101.1,94.8 101.2,94.2 101.4,93.7 101.5,93
	101.6,92.4 101.7,91.8 101.8,91.2 101.9,90.7 "/>
<polygon class="st3" points="33.5,108 23.5,108 32,59.8 49.4,59.8 51.1,88.5 63,59.8 81,59.8 72.6,108 62.6,108 68.9,71.9
	68.5,71.9 53.6,108 42.4,108 42.3,106.5 42,102.5 41.7,96.8 41.3,90.2 41,83.7 40.6,77.8 40.4,73.6 40.3,71.9 40.3,71.9 40.2,71.9
	40,71.9 39.9,71.9 39.8,71.9 39.8,71.9 39.8,71.9 39.9,71.9 "/>
<polyline class="st4" points="33.5,108 23.5,108 32,59.8 49.4,59.8 51.1,88.5 63,59.8 81,59.8 72.6,108 62.6,108 68.9,71.9
	68.5,71.9 53.6,108 42.4,108 42.4,108 42.3,106.5 42,102.5 41.7,96.8 41.3,90.2 41,83.7 40.6,77.8 40.4,73.6 40.3,71.9 40.3,71.9
	40.3,71.9 40.2,71.9 40,71.9 39.9,71.9 39.8,71.9 39.8,71.9 39.8,71.9 39.9,71.9 33.5,108 "/>
<polygon class="st3" points="200.9,108 211.3,108 211.3,108 214.9,87.2 215.1,86.4 215.2,85.6 215.4,84.8 215.7,84 216,83.3
	216.3,82.6 216.8,81.9 217.2,81.3 217.8,80.7 218.5,80.2 219.3,79.7 220.2,79.3 221.2,79 222.4,78.7 223.6,78.6 225.1,78.5
	225.2,78.5 225.4,78.5 225.6,78.5 225.8,78.5 225.9,78.6 226.1,78.6 226.2,78.6 226.2,78.6 226.3,78.5 226.4,78 226.5,77.4
	226.7,76.5 227,75.6 227.2,74.5 227.6,73.5 228,72.5 228.2,71.8 228.6,71.1 228.9,70.4 229.3,69.8 229.6,69.3 229.8,68.8 230,68.5
	230.1,68.4 230,68.4 229.9,68.4 229.7,68.4 229.4,68.3 229.2,68.3 228.9,68.2 228.6,68.2 228.4,68.2 227.2,68.3 226.2,68.4
	225.2,68.6 224.4,68.8 223.6,69.1 222.8,69.5 222.1,69.9 221.5,70.3 220.8,70.8 220.2,71.3 219.7,71.9 219.1,72.5 218.6,73.2
	218.1,73.9 217.5,74.6 217,75.3 218.2,68.7 207.8,68.6 200.9,108 "/>
<polyline class="st4" points="200.9,108 211.3,108 211.3,108 214.9,87.2 214.9,87.2 215.1,86.4 215.2,85.6 215.4,84.8 215.7,84
	216,83.3 216.3,82.6 216.8,81.9 217.2,81.3 217.8,80.7 218.5,80.2 219.3,79.7 220.2,79.3 221.2,79 222.4,78.7 223.6,78.6
	225.1,78.5 225.1,78.5 225.2,78.5 225.4,78.5 225.6,78.5 225.8,78.5 225.9,78.6 226.1,78.6 226.2,78.6 226.2,78.6 226.2,78.6
	226.3,78.5 226.4,78 226.5,77.4 226.7,76.5 227,75.6 227.2,74.5 227.6,73.5 228,72.5 228,72.5 228.2,71.8 228.6,71.1 228.9,70.4
	229.3,69.8 229.6,69.3 229.8,68.8 230,68.5 230.1,68.4 230.1,68.4 230,68.4 229.9,68.4 229.7,68.4 229.4,68.3 229.2,68.3
	228.9,68.2 228.6,68.2 228.4,68.2 228.4,68.2 227.2,68.3 226.2,68.4 225.2,68.6 224.4,68.8 223.6,69.1 222.8,69.5 222.1,69.9
	221.5,70.3 220.8,70.8 220.2,71.3 219.7,71.9 219.1,72.5 218.6,73.2 218.1,73.9 217.5,74.6 217,75.3 218.2,68.7 207.8,68.6
	200.9,108 200.9,108 "/>
<polygon class="st3" points="246,68.2 247.2,68.2 248.3,68.3 249.4,68.4 250.5,68.5 251.5,68.8 252.5,69 253.4,69.3 254.4,69.6
	255.3,70 256.1,70.4 257,70.9 257.8,71.3 258.5,71.9 259.2,72.4 259.9,73 260.5,73.7 261.2,74.3 261.7,75.1 262.2,75.8 262.7,76.5
	263.2,77.3 263.6,78.2 264,79 264.3,79.9 264.5,80.8 264.8,81.8 265,82.7 265.1,83.7 265.2,84.7 265.3,85.8 265.3,86.9 265.3,87.9
	265.2,89.2 265.1,90.5 264.9,91.7 264.6,92.9 264.4,94 264.1,95.1 263.7,96.1 263.3,97.1 262.9,98.1 262.4,99 261.9,99.9
	261.3,100.7 260.7,101.5 260.1,102.2 259.4,102.9 258.7,103.6 258,104.2 257.3,104.8 256.5,105.3 255.7,105.8 254.8,106.3
	254,106.7 253.1,107.1 252.2,107.4 251.2,107.7 250.3,108 249.3,108.2 248.3,108.4 247.3,108.5 246.3,108.6 245.2,108.6
	244.2,108.7 243.1,108.6 242.1,108.6 241.1,108.5 240.1,108.3 239.1,108.2 238.1,107.9 237.2,107.7 236.3,107.4 235.4,107.1
	234.6,106.7 233.8,106.3 233,105.8 232.2,105.3 231.5,104.8 230.8,104.2 230.1,103.6 229.5,103 228.9,102.3 228.3,101.5
	227.8,100.8 227.3,100 226.9,99.1 226.5,98.3 226.1,97.4 225.8,96.4 225.5,95.4 225.3,94.4 225.1,93.3 225,92.2 224.9,91.1
	224.9,89.9 224.9,88.7 225,87.5 225.1,86.3 225.3,85.2 225.5,84.1 225.8,83 226.1,81.9 226.4,80.9 226.8,80 227.2,79 227.7,78.1
	228.2,77.3 228.7,76.4 229.3,75.7 229.9,74.9 230.6,74.2 231.2,73.5 231.9,72.9 232.7,72.3 233.4,71.7 234.2,71.2 235.1,70.8
	236,70.3 236.9,69.9 237.8,69.5 238.7,69.2 239.7,69 240.7,68.7 241.7,68.5 242.7,68.4 243.8,68.3 244.9,68.2 "/>
<polyline class="st4" points="246,68.2 246,68.2 247.2,68.2 248.3,68.3 249.4,68.4 250.5,68.5 251.5,68.8 252.5,69 253.4,69.3
	254.4,69.6 255.3,70 256.1,70.4 257,70.9 257.8,71.3 258.5,71.9 259.2,72.4 259.9,73 260.5,73.7 261.2,74.3 261.7,75.1 262.2,75.8
	262.7,76.5 263.2,77.3 263.6,78.2 264,79 264.3,79.9 264.5,80.8 264.8,81.8 265,82.7 265.1,83.7 265.2,84.7 265.3,85.8 265.3,86.9
	265.3,87.9 265.3,87.9 265.2,89.2 265.1,90.5 264.9,91.7 264.6,92.9 264.4,94 264.1,95.1 263.7,96.1 263.3,97.1 262.9,98.1
	262.4,99 261.9,99.9 261.3,100.7 260.7,101.5 260.1,102.2 259.4,102.9 258.7,103.6 258,104.2 257.3,104.8 256.5,105.3 255.7,105.8
	254.8,106.3 254,106.7 253.1,107.1 252.2,107.4 251.2,107.7 250.3,108 249.3,108.2 248.3,108.4 247.3,108.5 246.3,108.6
	245.2,108.6 244.2,108.7 244.2,108.7 243.1,108.6 242.1,108.6 241.1,108.5 240.1,108.3 239.1,108.2 238.1,107.9 237.2,107.7
	236.3,107.4 235.4,107.1 234.6,106.7 233.8,106.3 233,105.8 232.2,105.3 231.5,104.8 230.8,104.2 230.1,103.6 229.5,103
	228.9,102.3 228.3,101.5 227.8,100.8 227.3,100 226.9,99.1 226.5,98.3 226.1,97.4 225.8,96.4 225.5,95.4 225.3,94.4 225.1,93.3
	225,92.2 224.9,91.1 224.9,89.9 224.9,88.7 224.9,88.7 225,87.5 225.1,86.3 225.3,85.2 225.5,84.1 225.8,83 226.1,81.9 226.4,80.9
	226.8,80 227.2,79 227.7,78.1 228.2,77.3 228.7,76.4 229.3,75.7 229.9,74.9 230.6,74.2 231.2,73.5 231.9,72.9 232.7,72.3
	233.4,71.7 234.2,71.2 235.1,70.8 236,70.3 236.9,69.9 237.8,69.5 238.7,69.2 239.7,69 240.7,68.7 241.7,68.5 242.7,68.4
	243.8,68.3 244.9,68.2 246,68.2 "/>
<polygon class="st3" points="261.3,106 264.4,106 264.4,106.4 263.2,106.4 263.2,108.9 262.5,108.9 262.5,106.4 261.3,106.4 "/>
<polygon class="st3" points="264.8,106 265.7,106 266.8,108.3 266.8,108.3 267.8,106 268.7,106 268.7,108.9 268,108.9 268,106.7
	268,106.7 267,108.9 266.5,108.9 265.4,106.7 265.4,106.7 265.4,108.9 264.8,108.9 "/>
<polygon class="st1" points="237.9,87 237.7,88.5 237.6,89.8 237.6,91 237.7,92.1 237.9,93.1 238.1,94 238.4,94.9 238.7,95.6
	239.2,96.2 239.6,96.8 240.2,97.2 240.8,97.6 241.4,97.9 242.1,98.1 242.9,98.2 243.7,98.2 244.5,98.2 245.4,98.1 246.2,97.9
	246.9,97.7 247.7,97.3 248.4,96.8 249,96.3 249.6,95.7 250.1,94.9 250.7,94.1 251.1,93.2 251.6,92.2 251.9,91.1 252.3,89.9
	252.5,88.6 252.8,87.2 252.9,86.1 253,85 253,84 252.9,83 252.8,82.1 252.6,81.3 252.3,80.5 251.9,79.7 251.5,79.1 251.1,78.5
	250.5,78 249.9,77.6 249.3,77.2 248.6,77 247.8,76.9 246.9,76.9 245.9,77 244.9,77.2 244,77.5 243.2,77.8 242.4,78.4 241.7,78.9
	241.1,79.6 240.5,80.3 239.9,81.1 239.5,81.9 239.1,82.7 238.8,83.6 238.4,84.4 238.2,85.3 238,86.2 "/>
</svg>
