<svg id="Layer_1" data-name="Layer 1" xmlns="http://www.w3.org/2000/svg" viewBox="0 0 192.76 112.17"><defs><style>.cls-1{fill:#fff;}.cls-1,.cls-2,.cls-3{fill-rule:evenodd;}.cls-2{fill:#107db1;}.cls-3,.cls-4{fill:#1b557d;}</style></defs><title>pp</title><polygon class="cls-1" points="0 0 192.76 0 192.76 112.17 0 112.17 0 0 0 0"/><path class="cls-2" d="M145.59,72.8c-4.1,0-7.35,1.09-9.83,1.58L135,80.62a26.76,26.76,0,0,1,8.4-1.78c3.25-.1,5.15.59,4.49,3.37-9.64,0-16.13,2-17.47,8.22-1.91,10.69,9.83,10.4,14.51,5.74l-.57,2.57h8.59l3.72-17C158.19,74.48,151.6,72.7,145.59,72.8Zm.57,17.42c-.48,2.28-2.29,3.27-4.48,3.37-1.91.1-3.63-1.59-2.39-3.57,1-1.68,3.63-2.08,5.25-2.08h2.1C146.45,88.74,146.35,89.43,146.16,90.22Z" transform="translate(0.38 -33.2)"/><polygon class="cls-2" points="164.39 32.87 157.28 65.54 166 65.54 173.2 32.87 164.39 32.87 164.39 32.87 164.39 32.87"/><path class="cls-2" d="M123.92,66.17h-16l-7.08,32.57h9.28l2.39-10.79h6.6a13.1,13.1,0,0,0,13.3-10.69C134.06,69.63,128.51,66.17,123.92,66.17Zm-.29,11.09a6,6,0,0,1-5.46,4.46h-4.3l1.91-8.91h4.59C122.77,72.8,124.21,74.78,123.63,77.25Z" transform="translate(0.38 -33.2)"/><path class="cls-3" d="M61.93,72.8c-4.05,0-7.26,1.09-9.62,1.58l-.75,6.24a24.86,24.86,0,0,1,8.2-1.78c3.21-.1,5.09.59,4.53,3.37-9.52,0-15.93,2-17.25,8.22-1.89,10.69,9.71,10.4,14.24,5.74l-.56,2.57h8.58l3.68-17C74.47,74.48,67.87,72.7,61.93,72.8Zm.66,17.42c-.47,2.28-2.36,3.27-4.53,3.37-1.89.1-3.49-1.59-2.26-3.57.94-1.68,3.58-2.08,5.09-2.08h2.17A19.7,19.7,0,0,0,62.59,90.22Z" transform="translate(0.38 -33.2)"/><polygon class="cls-3" points="77.08 40.07 85.65 40.07 87.04 55.24 95.43 40.07 104.29 40.07 83.9 76.37 74.31 76.37 80.58 65.7 77.08 40.07 77.08 40.07 77.08 40.07"/><path class="cls-3" d="M40.59,66.17h-16l-7.1,32.57h9.4l2.3-10.79h6.71A13.09,13.09,0,0,0,49.13,77.25C50.75,69.63,45.29,66.17,40.59,66.17ZM40.3,77.25a5.86,5.86,0,0,1-5.37,4.46H30.52l2-8.91h4.6A3.3,3.3,0,0,1,40.3,77.25Z" transform="translate(0.38 -33.2)"/><path class="cls-4" d="M174.71,70.29V66.44h-1.44v-.52h3.46v.52h-1.44v3.85Z" transform="translate(0.38 -33.2)"/><path class="cls-4" d="M177.3,70.29V65.92h.87l1,3.09.21.65.23-.7,1-3h.78v4.37h-.56V66.63l-1.27,3.66h-.52l-1.26-3.72v3.72Z" transform="translate(0.38 -33.2)"/></svg>