<?xml version="1.0" encoding="utf-8"?>
<!-- Generator: Adobe Illustrator 22.0.1, SVG Export Plug-In . SVG Version: 6.00 Build 0)  -->
<svg version="1.1" id="Layer_1" xmlns="http://www.w3.org/2000/svg" xmlns:xlink="http://www.w3.org/1999/xlink" x="0px" y="0px"
	 viewBox="0 0 192.8 112.2" style="enable-background:new 0 0 192.8 112.2;" xml:space="preserve"  width="192" height="112">
<style type="text/css">
	.st0{display:none;fill:#FFFFFF;}
	.st1{fill:#FFFFFF;}
	.st2{fill:#E0E2E2;}
</style>
<title>pp</title>
<polygon class="st0" points="0,0 192.8,0 192.8,112.2 0,112.2 0,0 "/>
<path class="st1" d="M146,39.6c-4.1,0-7.4,1.1-9.8,1.6l-0.8,6.2c2.7-1,5.5-1.6,8.4-1.8c3.2-0.1,5.1,0.6,4.5,3.4
	c-9.6,0-16.1,2-17.5,8.2c-1.9,10.7,9.8,10.4,14.5,5.7l-0.6,2.6h8.6l3.7-17C158.6,41.3,152,39.5,146,39.6z M146.5,57
	c-0.5,2.3-2.3,3.3-4.5,3.4c-1.9,0.1-3.6-1.6-2.4-3.6c1-1.7,3.6-2.1,5.2-2.1h2.1C146.8,55.5,146.7,56.2,146.5,57z M164.4,32.9
	l-7.1,32.7h8.7l7.2-32.7H164.4L164.4,32.9L164.4,32.9z M124.3,33h-16l-7.1,32.6h9.3l2.4-10.8h6.6c6.5,0.2,12.1-4.3,13.3-10.7
	C134.4,36.4,128.9,33,124.3,33z M124,44.1c-0.7,2.5-2.9,4.3-5.5,4.5h-4.3l1.9-8.9h4.6C123.1,39.6,124.6,41.6,124,44.1L124,44.1z"/>
<path class="st2" d="M62.3,39.6c-4,0-7.3,1.1-9.6,1.6l-0.8,6.2c2.6-1.1,5.4-1.7,8.2-1.8c3.2-0.1,5.1,0.6,4.5,3.4
	c-9.5,0-15.9,2-17.2,8.2c-1.9,10.7,9.7,10.4,14.2,5.7l-0.6,2.6h8.6l3.7-17C74.8,41.3,68.2,39.5,62.3,39.6z M63,57
	c-0.5,2.3-2.4,3.3-4.5,3.4c-1.9,0.1-3.5-1.6-2.3-3.6c0.9-1.7,3.6-2.1,5.1-2.1h2.2C63.2,55.5,63.1,56.3,63,57z M77.1,40.1h8.6
	L87,55.2l8.4-15.2h8.9L83.9,76.4h-9.6l6.3-10.7L77.1,40.1L77.1,40.1L77.1,40.1z M41,33H25l-7.1,32.6h9.4l2.3-10.8h6.7
	c6.4,0.2,12.1-4.4,13.2-10.7C51.1,36.4,45.7,33,41,33z M40.7,44c-0.6,2.5-2.8,4.3-5.4,4.5h-4.4l2-8.9h4.6c1.8,0,3.3,1.4,3.4,3.2
	C40.9,43.2,40.8,43.7,40.7,44z M175.1,37.1v-3.8h-1.4v-0.5h3.5v0.5h-1.4v3.8H175.1z M177.7,37.1v-4.4h0.9l1,3.1l0.2,0.7l0.2-0.7l1-3
	h0.8v4.4h-0.6v-3.7l-1.3,3.7h-0.5l-1.3-3.7v3.7H177.7z"/>
</svg>
