<?xml version="1.0" encoding="utf-8"?>
<!-- Generator: Adobe Illustrator 22.0.1, SVG Export Plug-In . SVG Version: 6.00 Build 0)  -->
<svg version="1.1" id="Layer_1" xmlns="http://www.w3.org/2000/svg" xmlns:xlink="http://www.w3.org/1999/xlink" x="0px" y="0px"
	 viewBox="0 0 192.8 112.2" style="enable-background:new 0 0 192.8 112.2;" xml:space="preserve"  width="192" height="112">
<style type="text/css">
	.st0{display:none;fill:#FFFFFF;}
	.st1{fill:#FFFFFF;}
	.st2{fill:#F59C24;}
</style>
<title>qivi</title>
<polygon class="st0" points="0,0 192.8,0 192.8,112.2 0,112.2 0,0 "/>
<path id="russia_word" class="st1" d="M179.5,35.8h-4.1c-0.8,0-0.9,0.3-0.9,0.9v28.7c0,0.8,0.3,0.9,0.9,1h4c0.6,0,0.9-0.1,0.9-1
	V36.7C180.4,35.9,180.2,35.8,179.5,35.8z M126.3,35.8h-4.1c-0.8,0-0.9,0.3-0.9,0.9v28.7c0,0.8,0.3,0.9,0.9,1h4c0.6,0,0.9-0.1,0.9-1
	V36.7C127.2,35.9,126.9,35.8,126.3,35.8z M115.3,74c-2.6-0.7-8-2.6-9.4-7.5c7.8-2.9,9.6-10.4,9.6-15.6c0-9.4-5.6-15.9-13.7-15.9
	c-7.5,0-13.9,5.5-13.9,16.2c0,7,3.2,14.3,11.8,15.7c3.6,8.3,14.9,9.7,15.8,9.7c1.2,0,1.5-0.8,1.5-1.3C117,74.4,116.4,74.2,115.3,74
	L115.3,74z M101.7,63.5c-0.6,0-3.6,0-5.8-3.6C94.4,57.2,94,53.6,94,51c0-2.9,0.4-6.4,1.9-8.8c1.2-2.1,3.4-3.4,5.8-3.4
	c2.3,0,4.5,1.3,5.7,3.3c1.8,2.8,2,6.7,2,8.8c0,2.5-0.2,6.2-1.7,8.8C106.5,61.9,104.3,63.4,101.7,63.5L101.7,63.5z M168,35.8h-2.9
	c-0.6,0-0.8,0.2-1,0.9l-5,19.8l-6.2-19.7c-0.3-0.8-0.3-0.9-0.6-1h-1.6c-0.5,0-0.6,0.2-0.8,0.9l-6.1,19.8l-5-19.8
	c-0.2-0.9-0.4-0.9-1.1-0.9h-4.1c-0.4,0-0.8,0.1-0.8,0.7c0,0.2,0.1,0.5,0.1,0.7l8.1,28.4c0.2,0.7,0.4,0.8,1.2,0.8s1.8,0,1.9,0
	c0.4,0,0.5-0.2,0.7-0.8l5.8-18.5l6.2,18.5c0.2,0.7,0.4,0.8,0.8,0.8h2.1c0.6,0,0.7-0.2,0.9-0.8l8-28.4c0.1-0.3,0.1-0.5,0.1-0.8
	C168.9,35.8,168.5,35.8,168,35.8z"/>
<path id="sign" class="st2" d="M65.7,67.7c-0.7-0.3-0.8,0.6-0.6,1.1c0.2,0.9,0.6,1.7,1.3,2.4c0.4,0.2,0.8-0.3,0.5-1.5
	C66.8,69.1,66.4,67.9,65.7,67.7z M60.2,70L60.2,70L60.2,70h-0.1l0,0H60c-0.4-0.1-0.9,0-1.2,0.2c-0.8,0.7-1,2-0.3,2.8
	c0.3,0.4,0.7,0.8,1.2,0.9h0.1h0.1l0,0H60c0.4,0.1,0.9,0,1.2-0.2c0.8-0.7,1-1.9,0.3-2.8C61.2,70.5,60.7,70.1,60.2,70z M79.5,89.5
	c-2-4-5.5-7-9.3-9.3c-1.3-0.7-2.7-1.3-4.1-1.8c-3-1-5.9-1.2-9.2-1.8c-2.6-0.5-5.1-1.6-7.2-3.2c-1.2-0.9-2.2-1.9-3-3.2
	c-0.2-0.2-0.9-1.2-0.8-1.5c-0.3,1.7-0.1,3.5,0.5,5.2c-9.8-0.4-18.4-5.9-22.3-12.5c-7.2-12.1-4.7-26.8,5-33.3s24.4-1.9,32.3,9.8
	c5,7.4,6.2,15.9,4.1,22.9l-0.1,0.2c-2.3-1.8-5.3-2.3-8-1.5c4.2-0.4,7.5,2.9,7.5,2.9c0.5,0.4,1,0.9,1.4,1.4l0.3,0.4
	c1.1,1.4,1.8,3.1,2.1,4.8c8.3-10.6,9.7-25.2,2.3-36.6c-9.5-14.5-29.5-18.2-44.8-8.3S6,54.1,15.4,68.6c7.7,11.9,25.8,15.6,36.2,12.3
	c9.8-2.4,20.2,1,26.7,8.7c0.5,0.6,0.9,1.3,1.2,2c0.1,0.2,0.2,0.3,0.4,0.2c0,0,0,0,0.1,0C80.1,91.6,80.4,91.3,79.5,89.5z"/>
</svg>
