<svg id="Layer_1" data-name="Layer 1" xmlns="http://www.w3.org/2000/svg" viewBox="0 0 192.76 112.17"><defs><style>.cls-1{fill:#fff;fill-rule:evenodd;}.cls-2{fill:#243986;}.cls-3{fill:#f59c24;}</style></defs><title>qivi</title><polygon class="cls-1" points="0 0 192.76 0 192.76 112.17 0 112.17 0 0 0 0"/><path id="russia_word" class="cls-2" d="M179.13,69H175c-.78,0-.87.3-.9.91V98.6c0,.79.34.91.94,1h4c.56,0,.94-.12.94-1V69.89C180,69.12,179.77,69,179.13,69ZM125.9,69h-4.12c-.78,0-.86.3-.9.91V98.6c0,.79.34.91.94,1h4c.56,0,.95-.12.95-1V69.89C126.81,69.12,126.55,69,125.9,69Zm-11,38.17c-2.6-.7-8-2.57-9.4-7.46,7.75-2.9,9.61-10.4,9.61-15.55,0-9.36-5.55-15.87-13.73-15.87-7.54,0-13.86,5.47-13.86,16.2,0,7,3.25,14.26,11.82,15.65,3.55,8.35,14.9,9.66,15.77,9.66,1.22,0,1.51-.78,1.51-1.26C116.67,107.58,116,107.4,114.94,107.15Zm-13.6-10.48c-.56,0-3.6,0-5.77-3.6-1.55-2.65-1.91-6.24-1.91-8.92,0-2.91.4-6.36,1.91-8.8a7,7,0,0,1,5.81-3.43A6.56,6.56,0,0,1,107,75.22C108.79,78,109,81.89,109,84c0,2.54-.22,6.19-1.69,8.83A7,7,0,0,1,101.34,96.67ZM167.61,69h-2.94c-.6,0-.83.17-1,.87l-5,19.84L152.49,70c-.26-.82-.3-.9-.6-1h-1.65c-.47,0-.56.25-.78.87L143.4,89.69l-5-19.76c-.22-.91-.4-.95-1.13-.95h-4.07c-.43,0-.83.14-.83.65a2,2,0,0,0,.14.69l8.11,28.42c.21.7.44.81,1.22.81s1.81,0,1.94,0c.43,0,.52-.17.74-.81l5.81-18.47,6.19,18.5c.22.66.35.77.78.81h2.14c.6,0,.73-.16.95-.85l8-28.38a5.15,5.15,0,0,0,.12-.78C168.48,69,168.1,69,167.61,69Z" transform="translate(0.38 -33.2)"/><path id="sign" class="cls-3" d="M65.29,100.87c-.69-.26-.75.56-.58,1.08A4.66,4.66,0,0,0,66,104.32c.36.22.79-.29.52-1.53C66.4,102.26,66,101.14,65.29,100.87Zm-5.43,2.29,0,0h-.05l-.06,0h0l-.1,0a1.69,1.69,0,0,0-1.22.22,2,2,0,0,0-.27,2.8,2.53,2.53,0,0,0,1.17.94h.08l.06,0h0l.1,0a1.6,1.6,0,0,0,1.23-.22,2,2,0,0,0,.27-2.79A2.39,2.39,0,0,0,59.86,103.16Zm19.27,19.58c-2-4-5.5-7-9.3-9.26a20.7,20.7,0,0,0-4.11-1.77c-3-1-5.88-1.19-9.25-1.77a17.79,17.79,0,0,1-7.23-3.17,12,12,0,0,1-3-3.16c-.15-.24-.93-1.18-.85-1.51a9.78,9.78,0,0,0,.53,5.18c-9.81-.44-18.41-5.88-22.34-12.47-7.25-12.13-4.7-26.83,5-33.33s24.4-1.91,32.29,9.81c5,7.36,6.22,15.92,4.1,22.88l-.05.16a8.7,8.7,0,0,0-8-1.49c4.2-.43,7.52,2.91,7.52,2.91a11.8,11.8,0,0,1,1.38,1.45l.29.4a11.44,11.44,0,0,1,2.08,4.84c8.34-10.58,9.72-25.23,2.34-36.61C61,51.32,41,47.62,25.68,57.54S5.57,87.27,15,101.77c7.72,11.93,25.85,15.57,36.23,12.28a26.85,26.85,0,0,1,26.74,8.65,8.38,8.38,0,0,1,1.25,2,.33.33,0,0,0,.48.19C79.76,124.82,80,124.52,79.13,122.74Z" transform="translate(0.38 -33.2)"/></svg>