<svg id="Layer_1" data-name="Layer 1" xmlns="http://www.w3.org/2000/svg" viewBox="0 0 192.76 99.64"><defs><style>.cls-1{fill:#fff;fill-rule:evenodd;}.cls-2{fill:#005098;}.cls-3{fill:#f7a600;}</style></defs><title>visa</title><polygon class="cls-1" points="0 0 192.76 0 192.76 99.64 0 99.64 0 0 0 0"/><polygon class="cls-2" points="70.42 77.47 79.31 25.27 93.54 25.27 84.64 77.47 70.42 77.47"/><path class="cls-2" d="M135.87,71.25a36.75,36.75,0,0,0-12.75-2.19c-14.06,0-24,7.08-24,17.23-.08,7.5,7.07,11.69,12.47,14.18s7.4,4.19,7.37,6.48c0,3.5-4.42,5.1-8.51,5.1A29.83,29.83,0,0,1,97,109.3l-1.83-.83-2,11.69c3.32,1.46,9.47,2.72,15.85,2.79,15,0,24.67-7,24.78-17.84.05-5.94-3.74-10.46-11.95-14.18-5-2.42-8-4-8-6.47,0-2.17,2.58-4.49,8.15-4.49a26.25,26.25,0,0,1,10.65,2l1.28.6,1.93-11.31" transform="translate(0.38 -44.7)"/><path class="cls-2" d="M172.36,70h-11c-3.41,0-6,.93-7.45,4.33l-21.13,47.84h14.94s2.44-6.43,3-7.84l18.22,0c.43,1.83,1.73,7.82,1.73,7.82h13.2L172.36,70m-17.55,33.65c1.18-3,5.67-14.59,5.67-14.59s1.17-3,1.89-5l1,4.5,3.29,15.07Z" transform="translate(0.38 -44.7)"/><path class="cls-2" d="M58.11,70,44.18,105.6l-1.48-7.23C40.1,90,32,81,23,76.47l12.74,45.65,15.05,0L73.18,70H58.11" transform="translate(0.38 -44.7)"/><path class="cls-3" d="M31.25,70H8.31l-.18,1.09C26,75.38,37.79,85.82,42.69,98.37l-5-24c-.86-3.31-3.36-4.29-6.45-4.41" transform="translate(0.38 -44.7)"/></svg>