<?xml version="1.0" encoding="utf-8"?>
<!-- Generator: Adobe Illustrator 22.0.1, SVG Export Plug-In . SVG Version: 6.00 Build 0)  -->
<svg version="1.1" id="Layer_1" xmlns="http://www.w3.org/2000/svg" xmlns:xlink="http://www.w3.org/1999/xlink" x="0px" y="0px"
	 viewBox="0 0 192.8 99.6" style="enable-background:new 0 0 192.8 99.6;" xml:space="preserve"  width="192" height="100">
<style type="text/css">
	.st0{display:none;fill:#9CB3BF;}
	.st1{fill:#FFFFFF;}
	.st2{fill:#F7A600;}
</style>
<polygon class="st0" points="0,0 192.8,0 192.8,99.6 0,99.6 "/>
<polygon class="st1" points="70.4,77.5 79.3,25.3 93.5,25.3 84.6,77.5 "/>
<path class="st1" d="M136.2,26.5c-4.1-1.5-8.4-2.2-12.8-2.2c-14.1,0-24,7.1-24,17.2c-0.1,7.5,7.1,11.7,12.5,14.2s7.4,4.2,7.4,6.5
	c0,3.5-4.4,5.1-8.5,5.1c-4.6,0.1-9.2-0.8-13.4-2.7l-1.8-0.8l-2,11.7c3.3,1.5,9.5,2.7,15.8,2.8c15,0,24.7-7,24.8-17.8
	c0.1-5.9-3.7-10.5-12-14.2c-5-2.4-8-4-8-6.5c0-2.2,2.6-4.5,8.2-4.5c3.7-0.1,7.3,0.6,10.7,2l1.3,0.6L136.2,26.5"/>
<path class="st1" d="M172.7,25.3h-11c-3.4,0-6,0.9-7.4,4.3l-21.1,47.8h14.9c0,0,2.4-6.4,3-7.8h18.2c0.4,1.8,1.7,7.8,1.7,7.8h13.2
	L172.7,25.3 M155.2,58.9c1.2-3,5.7-14.6,5.7-14.6s1.2-3,1.9-5l1,4.5l3.3,15.1H155.2z"/>
<path class="st1" d="M58.5,25.3L44.6,60.9l-1.5-7.2c-2.6-8.4-10.7-17.4-19.7-21.9l12.7,45.7h15l22.4-52.1h-15"/>
<path class="st2" d="M31.6,25.3H8.7l-0.2,1.1c17.9,4.3,29.7,14.7,34.6,27.3l-5-24C37.2,26.4,34.7,25.4,31.6,25.3"/>
</svg>
