<?xml version="1.0" encoding="utf-8"?>
<!-- Generator: Adobe Illustrator 22.0.1, SVG Export Plug-In . SVG Version: 6.00 Build 0)  -->
<svg version="1.1" id="Layer_1" xmlns="http://www.w3.org/2000/svg" xmlns:xlink="http://www.w3.org/1999/xlink" x="0px" y="0px"
	 viewBox="0 0 192.8 112.2" style="enable-background:new 0 0 192.8 112.2;" xml:space="preserve"  width="192" height="112">
<style type="text/css">
	.st0{display:none;fill:#FFFFFF;}
	.st1{fill:#FFD000;}
	.st2{fill:#D8B100;}
	.st3{fill:#1D1D1B;}
</style>
<title>yd</title>
<polygon class="st0" points="0,0 192.8,0 192.8,112.2 0,112.2 0,0 "/>
<path class="st1" d="M60.5,50.3c0-5.3,0.4-8.7,11.4-16.8c9.1-6.8,38.2-29.9,38.2-29.9v38.7h22.1v55.7H67.4c-3.8,0-6.9-3.1-6.9-6.9
	L60.5,50.3z"/>
<polygon class="st2" points="110.1,42.2 110.1,64.6 69.4,92.3 120.9,75.6 120.9,42.2 "/>
<path class="st3" d="M91.5,41.1c2.4-2.8,5.8-3.8,7.8-2.3s1.5,5.2-0.8,8s-5.8,3.8-7.8,2.2S89.2,43.8,91.5,41.1"/>
</svg>
