<svg id="Layer_1" data-name="Layer 1" xmlns="http://www.w3.org/2000/svg" viewBox="0 0 192.76 112.17"><defs><style>.cls-1{fill:#fff;fill-rule:evenodd;}.cls-2{fill:#ffd000;}.cls-3{fill:#d8b100;}.cls-4{fill:#1d1d1b;}</style></defs><title>yd</title><polygon class="cls-1" points="0 0 192.76 0 192.76 112.17 0 112.17 0 0 0 0"/><path class="cls-2" d="M60.13,83.54c0-5.3.44-8.66,11.41-16.85,9.08-6.78,38.19-29.95,38.19-29.95V75.42h22.14v55.66H67a6.94,6.94,0,0,1-6.92-6.92Z" transform="translate(0.38 -33.2)"/><polygon class="cls-3" points="110.11 42.22 110.11 64.63 69.43 92.34 120.87 75.61 120.87 42.22 110.11 42.22"/><path class="cls-4" d="M91.15,74.26C93.52,71.43,97,70.42,98.91,72s1.53,5.2-.85,8-5.85,3.83-7.76,2.23-1.53-5.2.85-8" transform="translate(0.38 -33.2)"/></svg>