<?xml version="1.0" encoding="utf-8"?>
<!-- Generator: Adobe Illustrator 17.0.1, SVG Export Plug-In . SVG Version: 6.00 Build 0)  -->
<!DOCTYPE svg PUBLIC "-//W3C//DTD SVG 1.1//EN" "http://www.w3.org/Graphics/SVG/1.1/DTD/svg11.dtd">
<svg version="1.1" id="Слой_1" xmlns="http://www.w3.org/2000/svg" xmlns:xlink="http://www.w3.org/1999/xlink" x="0px" y="0px"
	 width="710px" height="710px" viewBox="0.002 -146.355 710 710" enable-background="new 0.002 -146.355 710 710"
	 xml:space="preserve">
<path fill="#F04124" d="M355.003-146.355c-196.061,0-355,158.939-355,355s158.939,355,355,355s355-158.939,355-355
	S551.064-146.355,355.003-146.355z M359.739,9.604l217.1,9.868v4.737H529.37l88.949,207.554c0.782,1.826,1.144,3.73,1.144,5.599
	h0.007c0,54.937-44.535,99.471-99.471,99.471s-99.471-44.535-99.471-99.471h0.007c-0.007-1.869,0.362-3.773,1.144-5.599
	l88.949-207.554H361.713l21.71,373.675l178.806,39.863v12.175H147.768v-12.175l178.814-39.863l21.71-373.675H199.378l88.956,207.554
	c0.782,1.826,1.144,3.73,1.144,5.599c0,54.937-44.535,99.471-99.471,99.471s-99.471-44.535-99.471-99.471
	c0-1.869,0.362-3.773,1.144-5.599l88.956-207.554h-33.259v-4.737l201.903-9.868"/>
<polygon fill="#F04124" points="110.338,237.362 269.675,237.362 190.006,25.15 "/>
<polygon fill="#F04124" points="440.33,237.362 599.667,237.362 519.999,25.15 "/>
</svg>
