<?xml version="1.0" encoding="utf-8"?>
<!-- Generator: Adobe Illustrator 17.0.1, SVG Export Plug-In . SVG Version: 6.00 Build 0)  -->
<!DOCTYPE svg PUBLIC "-//W3C//DTD SVG 1.1//EN" "http://www.w3.org/Graphics/SVG/1.1/DTD/svg11.dtd">
<svg version="1.1" id="Слой_1" xmlns="http://www.w3.org/2000/svg" xmlns:xlink="http://www.w3.org/1999/xlink" x="0px" y="0px"
	 width="360px" height="322px" viewBox="0 0 360 322" enable-background="new 0 0 360 322" xml:space="preserve">
<line fill="none" stroke="#F04124" stroke-width="6" stroke-linecap="round" stroke-linejoin="round" stroke-miterlimit="10" x1="205" y1="289" x2="205" y2="151"/>
<line fill="none" stroke="#F04124" stroke-width="6" stroke-linecap="round" stroke-linejoin="round" stroke-miterlimit="10" x1="160" y1="224" x2="178" y2="224"/>
<path fill="none" stroke="#F04124" stroke-width="6" stroke-linecap="round" stroke-linejoin="round" stroke-miterlimit="10" d="
	M326.517,207H29.483C14.857,207,3,219.331,3,233.957v28.612C3,277.196,14.857,289,29.483,289h20.885
	c0-16,12.96-28.947,28.947-28.947S108.263,273,108.263,289h147.368c0-16,12.96-28.947,28.947-28.947S313.526,273,313.526,289h12.99
	C341.143,289,353,277.196,353,262.569v-28.612C353,219.331,341.143,207,326.517,207z"/>
<path fill="none" stroke="#F04124" stroke-width="6" stroke-linecap="round" stroke-linejoin="round" stroke-miterlimit="10" d="
	M50.368,289.053c0,15.987,12.96,28.947,28.947,28.947s28.947-12.96,28.947-28.947"/>
<path fill="none" stroke="#F04124" stroke-width="6" stroke-linecap="round" stroke-linejoin="round" stroke-miterlimit="10" d="
	M255.632,289.053c0,15.987,12.96,28.947,28.947,28.947s28.947-12.96,28.947-28.947"/>
<path fill="none" stroke="#F04124" stroke-width="6" stroke-linejoin="round" stroke-miterlimit="10" d="M303.877,205.719
	l-26.316-51.105c0-2.422-1.964-4.614-4.386-4.614H138.965C136.543,150,91,207,91,207"/>
<path fill="none" stroke="#F04124" stroke-width="6" stroke-linejoin="round" stroke-miterlimit="10" d="M323.647,68
	c5.496,0,9.951-4.393,9.951-9.889s-4.455-9.92-9.951-9.92c-1.147,0-2.243,0.219-3.268,0.576c0.464-1.596,0.717-3.273,0.717-5.018
	c0-9.935-8.054-17.984-17.988-17.984c-8.399,0-15.452,5.759-17.433,13.541c-1.446-0.819-3.113-1.291-4.893-1.291
	c-5.496,0-9.951,4.456-9.951,9.951c0,0.091,0.011,0.179,0.014,0.269c-0.09-0.002-0.178-0.013-0.269-0.013
	c-5.496,0-9.951,4.393-9.951,9.889S265.08,68,270.576,68H323.647z"/>
<path fill="none" stroke="#F04124" stroke-width="6" stroke-linejoin="round" stroke-miterlimit="10" d="M46.18,113
	c-11.905,0-21.555-9.695-21.555-21.545s9.651-21.501,21.555-21.501c2.484,0,4.859,0.417,7.08,1.187
	c-1.004-3.44-1.553-7.085-1.553-10.848c0-21.422,17.445-38.793,38.965-38.793c18.193,0,33.472,12.41,37.762,29.192
	c3.132-1.766,6.743-2.787,10.599-2.787c11.905,0,21.555,9.606,21.555,21.456c0,0.196-0.024,0.385-0.029,0.579
	c0.195-0.005,0.386-0.029,0.582-0.029c11.905,0,21.555,9.695,21.555,21.545S173.045,113,161.141,113H46.18z"/>
<line fill="none" stroke="#F04124" stroke-width="6" stroke-linecap="round" stroke-linejoin="round" stroke-miterlimit="10" x1="26" y1="224" x2="104" y2="224"/>
<line fill="none" stroke="#F04124" stroke-width="6" stroke-linecap="round" stroke-linejoin="round" stroke-miterlimit="10" x1="285" y1="318" x2="331" y2="318"/>
<line fill="none" stroke="#F04124" stroke-width="6" stroke-linecap="round" stroke-linejoin="round" stroke-miterlimit="10" x1="325" y1="307" x2="338" y2="307"/>
<line fill="none" stroke="#F04124" stroke-width="6" stroke-linecap="round" stroke-linejoin="round" stroke-miterlimit="10" x1="296" y1="224" x2="331" y2="224"/>
<line fill="none" stroke="#F04124" stroke-width="6" stroke-linecap="round" stroke-linejoin="round" stroke-miterlimit="10" x1="79" y1="318" x2="114" y2="318"/>
<line fill="none" stroke="#F04124" stroke-width="6" stroke-linecap="round" stroke-linejoin="round" stroke-miterlimit="10" x1="122" y1="318" x2="133" y2="318"/>
<line fill="none" stroke="#F04124" stroke-width="6" stroke-linecap="round" stroke-linejoin="round" stroke-miterlimit="10" x1="141" y1="318" x2="146" y2="318"/>
<line fill="none" stroke="#F04124" stroke-width="6" stroke-linecap="round" stroke-linejoin="round" stroke-miterlimit="10" x1="339" y1="318" x2="351" y2="318"/>
<line fill="none" stroke="#F04124" stroke-width="6" stroke-linecap="round" stroke-linejoin="round" stroke-miterlimit="10" x1="136" y1="306" x2="167" y2="306"/>
<line fill="none" stroke="#F04124" stroke-width="6" stroke-linecap="round" stroke-linejoin="round" stroke-miterlimit="10" x1="175" y1="306" x2="185" y2="306"/>
</svg>
