<?xml version="1.0" encoding="utf-8"?>
<!-- Generator: Adobe Illustrator 17.0.1, SVG Export Plug-In . SVG Version: 6.00 Build 0)  -->
<!DOCTYPE svg PUBLIC "-//W3C//DTD SVG 1.1//EN" "http://www.w3.org/Graphics/SVG/1.1/DTD/svg11.dtd">
<svg version="1.1" id="Слой_1" xmlns="http://www.w3.org/2000/svg" xmlns:xlink="http://www.w3.org/1999/xlink" x="0px" y="0px"
	 width="710px" height="710px" viewBox="0 0 710 710" enable-background="new 0 0 710 710" xml:space="preserve">
<path fill="#F04124" d="M208.587,351.669c12.212,6.661,23.869,42.742,23.869,42.742l27.755,18.873c0.555,0.555,1.11,1.11,1.665,1.11
	c1.11,0,1.665,0.555,2.775,0c1.665-0.555,2.775-2.22,2.775-3.886l0-54.399c0,0,4.996-55.509-22.759-62.17
	c-25.534-6.661-39.966,9.437-38.856,24.979c1.11,14.432-2.22,22.204-2.22,22.204c-1.918,3.744-4.71,6.595-7.952,8.502
	c0.994-0.105,1.985-0.176,2.956-0.176C202.481,349.449,205.812,349.449,208.587,351.669z"/>
<path fill="#F04124" d="M355,0C158.939,0,0,158.939,0,355s158.939,355,355,355s355-158.939,355-355S551.061,0,355,0z
	 M472.255,578.146c-3.886,14.987-17.763,26.089-33.861,26.089l-106.577,0.555c-4.996,0-9.437-0.555-13.322-2.22
	c-6.661-2.775-12.767-7.771-16.653-13.877L196.931,439.929c0,0-22.204-49.958-23.314-52.178c-4.441-11.657-1.11-24.979,8.881-32.75
	c1.157-1.013,2.431-1.867,3.776-2.588c-15.599,0.744-32.687-16.238-20.428-55.697c0,0,18.318-54.399,80.488-49.403
	c71.607,5.551,64.39,96.586,64.39,96.586c0.555,4.441,3.331,8.326,7.216,9.991c1.11,0.555,2.22,0.555,3.886,0.555
	c2.775,0,5.551-1.11,7.771-3.331c2.22-2.22,3.331-4.996,3.331-7.771l-1.11-215.93c0-12.212,9.437-22.204,21.648-22.204
	c2.775,0,5.551,0.555,8.326,1.665c8.326,2.776,13.877,10.547,13.877,19.983v217.04c0.555,4.441,3.331,8.326,7.216,9.991
	c1.11,0.555,2.22,0.555,3.886,0.555c2.775,0,5.551-1.11,7.771-3.331c2.22-2.22,3.331-4.996,3.331-7.771l-1.11-194.281
	c0-12.212,9.437-22.204,21.648-22.204c3.331,0,5.551,0.555,8.326,1.665c8.326,2.776,13.877,10.547,13.877,19.983l1.11,194.281
	c0.555,4.441,3.331,8.326,7.216,9.992c1.11,0.555,2.22,0.555,3.886,0.555c2.775,0,5.551-1.11,7.771-3.33
	c2.22-2.22,3.331-4.996,3.331-7.771l-0.555-128.226c0-12.212,9.437-22.204,21.648-22.204c3.331,0,5.551,0.555,8.326,1.665
	c8.326,2.776,13.877,10.547,13.877,19.983l1.11,227.032L472.255,578.146z"/>
</svg>
