<?xml version="1.0" encoding="utf-8"?>
<!-- Generator: Adobe Illustrator 22.0.1, SVG Export Plug-In . SVG Version: 6.00 Build 0)  -->
<svg version="1.1" id="Layer_1" xmlns="http://www.w3.org/2000/svg" xmlns:xlink="http://www.w3.org/1999/xlink" x="0px" y="0px"
	 viewBox="0 0 162.5 30.4" style="enable-background:new 0 0 162.5 30.4;" xml:space="preserve" width="140" height="26">
<style type="text/css">
	.st0{fill:#FFFFFF;}
</style>
<path class="st0" d="M4,1.7C6.2,1.2,8.4,0.5,10.5,0c0.2,1.1,0.5,2.2,0.9,3.3C11.6,4,11.7,4.7,12,5.6c0,0.2,0.3,0.9,0.2,1
	s-0.9,0.2-1,0.2C10.5,7,9.8,7.1,9,7.4C7.9,7.6,6.8,8,5.7,8.3C5.2,6.1,4.6,3.9,4,1.7 M2.4,9.6c1.7-0.4,3.4-0.9,5-1.3
	c0.3,1.3,0.8,2.5,1,3.9c0.1,0.2,0.2,0.7,0.2,0.9c0.1,0.4-0.1,0.3-0.5,0.4c-0.7,0.2-1.3,0.3-2,0.5s-1.3,0.3-1.9,0.4
	c-0.4,0.1-0.5,0.2-0.8-0.1c-0.1-0.2-0.2-0.7-0.2-0.9C3,12.1,2.6,10.9,2.4,9.6 M1,16.3c0.9-0.2,1.9-0.5,2.8-0.8
	c0.2,0,0.3-0.1,0.5-0.1c0.4-0.1,0.4-0.2,0.5,0.2s0.2,1,0.3,1.4s0.2,0.9,0.3,1.3c0,0.1,0.2,0.5,0.1,0.7l-0.8,0.2
	C4,19.5,3.1,19.7,2.1,20C1.6,18.8,1.4,17.5,1,16.3 M0,22c0.3-0.1,0.8-0.2,1.2-0.2c0.2,0,1-0.3,1.2-0.2c0.2,0.1,0.2,0.9,0.2,1.1
	c0.1,0.4,0.2,0.8,0.3,1.3c-0.8,0.2-1.5,0.3-2.4,0.7C0.5,24.3,0.1,22.2,0,22 M13,4c2.2-0.5,4.4-1.2,6.4-1.7l0.8,3.3
	c0.2,0.8,0.3,1.4,0.5,2.3c0,0.2,0.3,0.9,0.2,1c-0.1,0.2-0.9,0.2-1,0.2c-0.8,0.2-1.4,0.3-2.3,0.7c-1.1,0.2-2.2,0.5-3.3,0.9
	C14.1,8.4,13.5,6.2,13,4 M11.3,11.9c1.7-0.4,3.4-0.9,5-1.3c0.4,1.7,0.9,3.4,1.3,5c0,0-4.6,1.3-5,1.4L11.3,11.9 M9.9,18.5
	c1.3-0.2,2.4-0.7,3.7-1c0.2,0.9,0.5,1.9,0.8,2.8c0.2,0.7,0.4,0.9-0.2,1.1c-0.4,0.1-0.9,0.2-1.4,0.3c-0.4,0.1-0.9,0.2-1.3,0.3
	c-0.2,0.1-0.4,0.2-0.5-0.1c-0.1-0.2-0.2-0.4-0.2-0.8C10.4,20.4,10.2,19.5,9.9,18.5 M8.9,24.1c0.8-0.2,1.5-0.4,2.4-0.7l0.2,1.1
	c0.1,0.2,0.4,1.1,0.3,1.3C11.7,26,10.9,26,10.7,26c-0.4,0.1-0.8,0.2-1.3,0.3C9.3,25.8,9.2,25,8.9,24.1 M21.9,6.3
	c1.1-0.2,2.2-0.5,3.3-0.9c0.8-0.2,1.4-0.3,2.3-0.7c0.2,0,0.9-0.3,1-0.2c0.1,0.1,0.2,0.9,0.2,1C28.8,6.3,29,7,29.3,7.9
	c0.2,1.1,0.5,2.2,0.9,3.3c-1.1,0.2-2.2,0.5-3.3,0.9c-0.8,0.2-1.4,0.3-2.3,0.7c-0.2,0-0.9,0.3-1,0.2s-0.2-0.9-0.2-1
	c-0.2-0.8-0.3-1.4-0.7-2.3C22.5,8.4,22.3,7.3,21.9,6.3 M20.2,14.2c0.9-0.2,1.7-0.4,2.5-0.8c0.4-0.1,0.9-0.2,1.3-0.3
	c0.2-0.1,1.1-0.4,1.3-0.3c0.2,0.1,0.2,1.1,0.3,1.3c0.1,0.4,0.2,0.9,0.3,1.3c0.1,0.4,0.2,0.8,0.3,1.3c0.1,0.2,0.4,1.1,0.3,1.3
	c-0.1,0.1-1.1,0.2-1.3,0.3c-0.4,0.1-0.9,0.2-1.3,0.3c-0.4,0.1-0.8,0.2-1.3,0.3c-0.2,0-1.2,0.4-1.3,0.3s-0.2-1.1-0.3-1.3
	c-0.1-0.4-0.2-0.9-0.3-1.3C20.7,15.8,20.3,15,20.2,14.2 M18.8,20.8c1.2-0.3,2.5-0.5,3.7-1c0.4,1.3,0.7,2.5,1,3.7
	c-1.3,0.2-2.4,0.8-3.7,1C19.8,24.5,18.9,21.1,18.8,20.8 M17.8,26.4c0.8-0.2,1.5-0.4,2.4-0.7c0.1,0.3,0.2,0.8,0.2,1.2
	c0,0.2,0.3,1,0.2,1.2c-0.1,0.2-0.9,0.2-1.1,0.2c-0.4,0.1-0.8,0.2-1.3,0.3C18.2,28,18.1,27.2,17.8,26.4 M42.2,3.1H51
	c0.4,0-0.2,2.5-0.3,2.8c-0.4,1-1.3,2.1-2.4,2.5c-1.2,0.4-2.2,0.5-3.4,0.8c-1.3,0.2-2.4,0-3.5,0.7c-2.4,1.3-2.1,3.9-2.4,6.2
	c-0.2,2-0.1,5.2,1.3,6.8c1.7,1.7,4.6,1.3,6.8,1.6c2.3,0.4,3.9,2.8,3.9,5c0,0.8,0.1,0.8-0.5,0.8h-8.2c-2.2,0-4.6-0.2-6.2-1.7
	c-1.9-1.6-2.6-4.2-2.8-6.6c-0.2-2.7-0.3-5.4-0.2-8.1c0.1-2.4,0.2-4.9,1.2-7.1C35.8,3.9,39.1,3.1,42.2,3.1 M63.3,9.2
	c-2.4,0.4-3.7,1.3-4.3,3.7c-0.2,0.7-0.2,0.8,0.4,0.8h8.2c-0.2-1.1-0.4-2.4-1.3-3.2C65.5,9.6,64.4,9.4,63.3,9.2 M61.6,3.1
	c2.4,0,5.5-0.3,7.8,0.8c2.4,1.3,3.4,3.2,3.9,5.7c0.5,2.7,0.4,5.5,0.4,8.3c0,0.4,0.1,1,0,1.5c-0.1,0.4-0.2,0.2-0.7,0.2H58.9
	c0.3,2.2,1.2,3.9,3.5,4.4c2.4,0.5,5-0.1,6.9,1.9c0.8,0.9,1.2,2,1.3,3.2c0,0.2,0.2,1.2,0,1.2h-1.7c-3,0-6.1,0.3-9.1-0.1
	c-2.5-0.4-4.8-1.4-5.9-3.9c-1-2.4-1.1-4.8-1.3-7.2c-0.2-2.6-0.2-5.6,0.2-8.2c0.3-2.3,0.9-4.7,2.8-6.2C57.5,3.4,59.7,3.1,61.6,3.1
	 M91.8,3.1h9.1v0.8l-0.1,0.4v0.3l-0.1,0.2l-0.2,0.9l-0.2,0.2l-0.1,0.2L100,6.3l-0.1,0.2l-0.2,0.2v0.4l-0.2,0.1l-0.2,0.2l-0.2,0.2
	l-0.2,0.1l-0.2,0.2l-0.1,0.2l-0.2,0.1l-0.2,0.1l-0.5,0.2l-0.2,0.1L96.9,9h-0.2l-0.2,0.1h-0.2L96,9.2h-0.8l-0.5,0.1h-1.3l-0.3,0.1
	h-0.8H92l-0.3,0.1l-0.2,0.1l-0.2,0.2L91,10.1h-0.4l-0.2,0.2l-0.1,0.2L90,10.7l-0.1,0.2l-0.2,0.2l-0.1,0.2l-0.2,0.2l-0.1,0.2L89.2,12
	l-0.1,0.2L89,12.5V13l-0.1,0.3l-0.1,0.3v1.2l-0.1,0.3v15.1h-6V12.6l0.1-0.7v-0.5l0.2-0.8v-0.5l0-0.6L83.3,9l0.1-0.5L83.6,8l0.2-0.4
	L84,7l0.2-0.4l0.2-0.4l0.2-0.3L85,5.5l0.4-0.4l0.2-0.2L86,4.7l0.4-0.2l0.7-0.4l0.4-0.2l0.7-0.1l0.5-0.2l0.8-0.1l0.7-0.1L91.1,3
	L91.8,3.1 M111.5,9.2c-1.2,0.2-2.3,0.3-3.2,1.3c-0.8,0.9-1,2-1.3,3.2h7.9c0.7,0,1,0.2,0.8-0.7C115.1,10.6,113.9,9.6,111.5,9.2
	 M109.8,3.1c2.4,0,5.5-0.3,7.8,0.8c2.3,1.3,3.4,3.2,3.8,5.7c0.5,2.5,0.4,5.2,0.4,7.9c0,0.5-0.1,1.1-0.1,1.6c0,0.7,0.2,0.8-0.4,0.8
	h-14.4c0.2,1.3,0.5,2.7,1.7,3.6c1.3,0.9,3,0.9,4.5,1c1.3,0.1,3.3,0.3,4.2,1.5c0.5,0.8,1,1.3,1.3,2.2c0.2,0.8,0.2,1.5,0.3,2.3h-9.2
	c-2.2,0-4.5-0.4-6-2c-1.7-1.7-2.4-4.2-2.5-6.6c-0.2-2.7-0.3-5.5-0.2-8.1c0.2-2.5,0.2-5.4,1.9-7.5C104.4,3.7,107.2,3.1,109.8,3.1
	 M134,3.1h8.9c0.4,0-0.2,2.4-0.3,2.8c-0.3,1.1-1.3,2-2.4,2.5c-2.1,1.1-4.6,0.2-6.7,1.3c-2.5,1.3-2.3,3.9-2.5,6.2c-0.3,2.8,0,6,0,9
	v5.5h-2.1c-0.3,0-3.9,0.1-3.9-0.1V16.8c0-3.1-0.1-6.4,1.1-9.3C127.3,4.2,130.6,3.1,134,3.1 M156.5,17.6c0.1,2.3-0.3,4.5-2.3,5.9
	c-1.4,1.1-3.9,0.8-5.2-0.4c-0.4-0.3-1.2-1.3-1.2-1.9c0-0.8,0.8-1.5,1.3-2c1.5-1.5,4-0.8,6-1.3C155.6,17.8,156,17.7,156.5,17.6
	 M142.6,25.7c0.9,2.4,2.7,3.5,5,4.3c1.2,0.3,2.4,0.2,3.6,0.2c1.3,0,2.7,0.1,4-0.1c0.5-0.1,1.2-0.2,1.6-0.3c0.4-0.1,1.3-0.8,1.6-0.8
	c0.2,0,1,0.5,1.3,0.8c0.5,0.2,1.1,0.3,1.7,0.3c0.2,0,0.9,0.2,0.9-0.2v-7.1c0-2.8,0.1-5.6,0-8.3c-0.1-2.4,0-5-1.1-7.3
	c-2.4-5.6-9.7-4.4-14.5-4.4h-2.4c-0.2,0,0.3,2.3,0.3,2.5c0.5,1.7,2,3,3.8,3.4c2.6,0.5,6.6-0.2,7.3,3.3c-3.7,0-9-0.8-11.8,2.1
	C141.3,17,141.2,22.2,142.6,25.7 M82.3,9.2h-7c-0.1,0-0.8,0.1-0.8,0c-0.1-0.1,0-1.1,0.1-1.3c0.1-0.8,0.4-1.7,0.8-2.4
	c2.2-3.4,7.6-2.4,10.9-2.4C84.2,4.2,82.5,6.8,82.3,9.2"/>
</svg>
