<?xml version="1.0" encoding="utf-8"?>
<!-- Generator: Adobe Illustrator 17.0.1, SVG Export Plug-In . SVG Version: 6.00 Build 0)  -->
<!DOCTYPE svg PUBLIC "-//W3C//DTD SVG 1.1//EN" "http://www.w3.org/Graphics/SVG/1.1/DTD/svg11.dtd">
<svg version="1.1" id="Слой_1" xmlns="http://www.w3.org/2000/svg" xmlns:xlink="http://www.w3.org/1999/xlink" x="0px" y="0px"
	 width="360px" height="322px" viewBox="0 0 360 322" enable-background="new 0 0 360 322" xml:space="preserve">
<line fill="none" stroke="#F04124" stroke-width="6" stroke-linecap="round" stroke-linejoin="round" stroke-miterlimit="10" x1="116" y1="231" x2="194" y2="231"/>
<line fill="none" stroke="#F04124" stroke-width="6" stroke-linecap="round" stroke-linejoin="round" stroke-miterlimit="10" x1="116" y1="56" x2="194" y2="56"/>
<line fill="none" stroke="#F04124" stroke-width="6" stroke-linecap="round" stroke-linejoin="round" stroke-miterlimit="10" x1="218" y1="205" x2="230" y2="205"/>
<line fill="none" stroke="#F04124" stroke-width="6" stroke-linecap="round" stroke-linejoin="round" stroke-miterlimit="10" x1="87" y1="75" x2="99" y2="75"/>
<path fill="none" stroke="#F04124" stroke-width="6" stroke-miterlimit="10" d="M238.167,255.667L238,290H67.167
	c-9.205,0-16.75-7.795-16.75-17S57.795,256,67,256h181V23H66c0,0-35.667-2.333-43,39v200c0,0,0,37,37.333,37
	c32,0,187.667,0,187.667,0v-43"/>
<line fill="none" stroke="#F04124" stroke-width="6" stroke-miterlimit="10" x1="53" y1="266" x2="238" y2="266"/>
<line fill="none" stroke="#F04124" stroke-width="6" stroke-miterlimit="10" x1="53" y1="277" x2="238" y2="277"/>
<line fill="none" stroke="#F04124" stroke-width="6" stroke-miterlimit="10" x1="67" y1="256" x2="67" y2="23"/>
<path fill="none" stroke="#F04124" stroke-width="6" stroke-linecap="round" stroke-linejoin="round" stroke-miterlimit="10" d="
	M202.829,106.761"/>
<path fill="none" stroke="#F04124" stroke-width="6" stroke-linecap="round" stroke-linejoin="round" stroke-miterlimit="10" d="
	M199.46,103.75c0,0,16.788,8.145,0.536,20.631l0,0c0,0,9.005,25.586-6.995,37.874V189h-12.765l-3.964-13.868
	c0,0-14.27,11.195-38.053,3.267l-4.36,10.6h-11.892L119,169.589v-1.784c0,0-3.769-1.586-9.715-8.721l-14.173-5.649l-2.528-15.806
	l10.727-7.507c0,0,5.562-15.447,15.075-19.807l-2.372-14.66l12.687,7.397c0,0,34.687-17.053,65.011,12.947h0.198
	C193.91,116,208.692,120.857,199.46,103.75z"/>
<path fill="none" stroke="#F04124" stroke-width="6" stroke-linecap="round" stroke-linejoin="round" stroke-miterlimit="10" d="
	M125.731,124.202c0,3.393-2.751,6.144-6.144,6.144s-6.144-2.751-6.144-6.144"/>
<path fill="none" stroke="#F04124" stroke-width="6" stroke-linecap="round" stroke-linejoin="round" stroke-miterlimit="10" d="
	M144.56,106.761c0,0,12.862-3.964,23.079,1.982"/>
<path fill="none" stroke="#F04124" stroke-width="6" stroke-linecap="round" stroke-linejoin="round" stroke-miterlimit="10" d="
	M312,234V51c0-2.761-2.239-5-5-5h-12c-2.761,0-5,2.239-5,5v15v168l11,24L312,234z"/>
<line fill="none" stroke="#F04124" stroke-width="6" stroke-linecap="round" stroke-linejoin="round" stroke-miterlimit="10" x1="312" y1="66" x2="292" y2="66"/>
<line fill="none" stroke="#F04124" stroke-width="6" stroke-linecap="round" stroke-linejoin="round" stroke-miterlimit="10" x1="312" y1="78" x2="291" y2="78"/>
<line fill="none" stroke="#F04124" stroke-width="6" stroke-linecap="round" stroke-linejoin="round" stroke-miterlimit="10" x1="301" y1="226" x2="301" y2="79"/>
<path fill="none" stroke="#F04124" stroke-width="6" stroke-linecap="round" stroke-linejoin="round" stroke-miterlimit="10" d="
	M310.218,235.866c0-5.367-4.351-9.718-9.718-9.718s-9.718,4.351-9.718,9.718"/>
<path fill="none" stroke="#F04124" stroke-width="6" stroke-linecap="round" stroke-linejoin="round" stroke-miterlimit="10" d="
	M305.486,246.5c0-2.754-2.232-4.986-4.986-4.986s-4.986,2.232-4.986,4.986"/>
</svg>
