<?xml version="1.0" encoding="utf-8"?>
<!-- Generator: Adobe Illustrator 16.0.0, SVG Export Plug-In . SVG Version: 6.00 Build 0)  -->
<!DOCTYPE svg PUBLIC "-//W3C//DTD SVG 1.1//EN" "http://www.w3.org/Graphics/SVG/1.1/DTD/svg11.dtd">
<svg version="1.1" id="Слой_1" xmlns="http://www.w3.org/2000/svg" xmlns:xlink="http://www.w3.org/1999/xlink" x="0px" y="0px"
	 width="242px" height="61px" viewBox="0 0 242 61" enable-background="new 0 0 242 61" xml:space="preserve">
<g>
	<path fill="#1A9F29" d="M63.315,28.208c1.002,1.103,2.205,1.904,3.709,2.506c1.503,0.603,3.208,0.903,5.313,0.903
		c1.002,0,2.004-0.101,2.807-0.201c0.902-0.1,1.604-0.301,2.306-0.601c0.702-0.201,1.303-0.501,1.904-0.703
		c0.501-0.3,1.003-0.5,1.404-0.702l-0.802-1.502c-0.401,0.201-0.802,0.4-1.203,0.601c-0.4,0.2-0.802,0.301-1.303,0.501
		c-0.501,0.101-1.002,0.301-1.604,0.301c-0.602,0.099-1.303,0.099-2.105,0.099c-1.504,0-2.806-0.299-3.709-0.901
		c-1.002-0.601-1.704-1.403-2.306-2.305c-0.501-1.003-0.901-2.206-1.102-3.509c-0.201-1.403-0.301-2.807-0.301-4.41
		c0-1.204,0.1-2.507,0.2-3.81c0.101-1.303,0.401-2.406,0.902-3.409c0.501-1.002,1.103-1.804,2.005-2.506
		c0.902-0.602,2.105-1.002,3.609-1.002c1.403,0,2.606,0.4,3.608,1.103c1.003,0.702,1.604,1.904,1.905,3.408h1.604V7.158
		c-0.501-0.202-1.002-0.402-1.604-0.602c-0.601-0.2-1.203-0.301-1.905-0.401c-0.701-0.101-1.303-0.101-2.004-0.201
		c-0.602,0-1.203-0.1-1.704-0.1c-2.206,0-4.01,0.301-5.614,0.902c-1.503,0.602-2.807,1.503-3.809,2.606
		c-1.003,1.103-1.705,2.506-2.206,4.11c-0.501,1.603-0.702,3.508-0.702,5.514c0,1.904,0.201,3.708,0.702,5.212
		C61.711,25.902,62.413,27.206,63.315,28.208z"/>
	<path fill="#1A9F29" d="M161.103,30.815c1.203-0.101,2.407-0.501,3.309-1.003c1.003-0.602,1.805-1.403,2.306-2.506
		c0.602-1.102,0.902-2.606,0.902-4.51c0-1.404-0.2-2.506-0.603-3.508c-0.4-1.002-1.002-1.705-1.904-2.406
		c-0.901-0.603-2.004-1.003-3.407-1.304c-1.403-0.3-3.107-0.4-5.112-0.4h-2.105V9.312c0-0.601,0.1-1.002,0.401-1.202
		c0.3-0.201,0.801-0.201,1.604-0.201h3.006c0.904,0,1.705,0,2.308,0.1c0.602,0.101,1.102,0.201,1.402,0.501
		c0.4,0.301,0.703,0.701,0.903,1.203c0.2,0.501,0.5,1.203,0.701,2.105h1.303V6.305h-17.042h-1.402v0.801c0.101,0,0.2,0.1,0.501,0.1
		c0.3,0.1,0.501,0.202,0.602,0.302c0.099,0.1,0.2,0.3,0.3,0.602c0,0.301,0.101,0.601,0.101,1.002v5.012v9.072v5.012
		c0,0.401,0,0.802-0.101,1.002c0,0.301-0.1,0.501-0.3,0.602c-0.101,0.1-0.302,0.3-0.602,0.3c-0.301,0.1-0.4,0.1-0.501,0.1v0.803
		h9.272C158.496,31.016,159.801,31.016,161.103,30.815z M154.987,29.01c-0.199-0.2-0.3-0.4-0.3-0.702
		c0-0.301-0.101-0.701-0.101-1.203V16.681h2.105c1.905,0,3.309,0.5,4.11,1.503c0.801,1.003,1.202,2.607,1.202,4.812
		c0,1.504-0.1,2.606-0.401,3.509c-0.301,0.902-0.6,1.503-1.103,2.004c-0.5,0.401-1.003,0.702-1.503,0.901
		c-0.601,0.101-1.202,0.202-1.804,0.202c-0.602-0.101-1.104-0.101-1.404-0.202C155.489,29.311,155.188,29.21,154.987,29.01z"/>
	<path fill="#1A9F29" d="M134.79,30.212c-0.102,0-0.202-0.1-0.502-0.1c-0.302-0.1-0.501-0.2-0.602-0.3
		c-0.101-0.101-0.2-0.301-0.3-0.602c0-0.3-0.102-0.601-0.102-1.002v-6.917h2.507c1.303,0,2.506-0.101,3.708-0.301
		c1.204-0.2,2.206-0.602,3.107-1.103c0.903-0.601,1.604-1.303,2.104-2.405c0.503-1.003,0.804-2.407,0.804-4.11
		c0-1.604-0.301-2.907-0.701-3.81c-0.503-0.902-1.204-1.704-2.006-2.205c-0.801-0.501-1.803-0.802-2.907-0.902
		c-1.103-0.1-2.205-0.201-3.408-0.201h-8.421h-1.402v0.802c0.101,0,0.2,0.101,0.502,0.101c0.299,0.1,0.5,0.2,0.601,0.3
		c0.101,0.101,0.2,0.301,0.3,0.602c0,0.301,0.102,0.602,0.102,1.003v18.996c0,0.4,0,0.802-0.102,1.002c0,0.301-0.1,0.501-0.3,0.601
		c-0.101,0.1-0.302,0.301-0.601,0.301c-0.302,0.1-0.401,0.1-0.502,0.1v0.802h8.12V30.212z M133.387,9.112c0-0.2,0-0.401,0.1-0.602
		c0-0.2,0.1-0.3,0.2-0.401c0.101-0.1,0.3-0.2,0.602-0.2c0.3,0,0.603-0.101,1.103-0.101c0.601,0,1.202,0.101,1.805,0.201
		c0.601,0.201,1.002,0.501,1.503,0.902c0.401,0.4,0.702,1.002,1.003,1.704c0.2,0.702,0.301,1.604,0.301,2.606
		c0,2.105-0.301,3.709-0.902,4.813c-0.603,1.102-1.704,1.703-3.207,1.703h-2.506V9.112z"/>
	<path fill="#1A9F29" d="M123.411,25.302h-1.604c-0.202,1.002-0.401,1.704-0.602,2.305c-0.2,0.601-0.401,1.002-0.801,1.303
		c-0.301,0.3-0.803,0.5-1.403,0.5c-0.602,0.101-1.403,0.101-2.507,0.101c-1.001,0-1.804,0-2.305-0.101
		c-0.601-0.099-1.003-0.2-1.303-0.4c-0.301-0.2-0.501-0.501-0.501-0.802c-0.1-0.401-0.1-0.802-0.1-1.403v-7.819h3.308
		c0.3,0,0.602,0,1.002,0c0.4,0,0.802,0.1,1.203,0.1c0.4,0,0.801,0.101,1.203,0.201c0.4,0.1,0.702,0.2,1.002,0.4v-3.208
		c-0.3,0.201-0.602,0.301-1.002,0.401c-0.401,0.1-0.802,0.2-1.203,0.2c-0.401,0.1-0.803,0.1-1.203,0.1c-0.401,0-0.702,0-1.002,0
		h-3.308v-8.17c0-0.501,0.1-0.901,0.2-1.102c0.2-0.201,0.501-0.201,1.002-0.201h2.707c0.902,0,1.704,0,2.306,0.1
		c0.601,0.101,1.101,0.201,1.404,0.501c0.4,0.301,0.7,0.701,0.901,1.203c0.201,0.501,0.501,1.203,0.703,2.105h1.302V6.305h-15.788
		h-1.404v0.801c0.101,0,0.201,0.1,0.501,0.1c0.301,0.1,0.501,0.202,0.602,0.302c0.1,0.1,0.2,0.3,0.301,0.602
		c0,0.301,0.1,0.601,0.1,1.002v18.997c0,0.4,0,0.802-0.1,1.002c0,0.299-0.101,0.501-0.301,0.601
		c-0.101,0.101-0.301,0.301-0.602,0.301c-0.3,0.1-0.4,0.1-0.501,0.1v0.802h17.793V25.302z"/>
	<path fill="#1A9F29" d="M96.195,30.815c1.204-0.101,2.406-0.501,3.309-1.003c1.002-0.602,1.804-1.403,2.406-2.506
		c0.601-1.102,0.902-2.606,0.902-4.51c0-1.404-0.2-2.506-0.601-3.508c-0.401-1.002-1.002-1.705-1.904-2.406
		c-0.902-0.603-2.005-1.003-3.409-1.304c-1.403-0.3-3.107-0.4-5.112-0.4h-2.105V9.312c0-0.601,0.1-1.002,0.401-1.202
		c0.301-0.201,0.803-0.201,1.604-0.201h3.007c0.902,0,1.704,0,2.306,0.1C97.599,8.11,98.1,8.21,98.401,8.51
		c0.401,0.301,0.702,0.701,0.902,1.203c0.201,0.501,0.501,1.203,0.702,2.105h1.303V6.305H84.316h-1.403v0.801
		c0.101,0,0.2,0.1,0.501,0.1c0.301,0.1,0.501,0.202,0.601,0.302s0.201,0.3,0.301,0.602c0,0.301,0.1,0.601,0.1,1.002v0.501v4.36
		v9.073v3.708c0,0,0,0,0,0.1v1.303c0,0.401,0,0.702-0.1,1.002c0,0.301-0.1,0.501-0.301,0.601c-0.1,0.101-0.301,0.301-0.601,0.301
		c-0.301,0.101-0.401,0.101-0.501,0.101v0.853h9.272C93.739,31.016,94.892,31.016,96.195,30.815z M90.13,29.01
		c-0.2-0.2-0.3-0.4-0.3-0.702c0-0.301-0.101-0.701-0.101-1.203V16.681h2.105c1.904,0,3.308,0.5,4.109,1.503
		c0.802,1.003,1.203,2.607,1.203,4.812c0,1.504-0.1,2.606-0.401,3.509c-0.301,0.902-0.601,1.503-1.102,2.004
		c-0.501,0.401-1.002,0.702-1.504,0.901c-0.602,0.101-1.204,0.202-1.805,0.202c-0.602-0.101-1.002-0.101-1.404-0.202
		C90.632,29.311,90.331,29.21,90.13,29.01z"/>
	<rect x="60.508" y="37.982" fill="#1A9F29" width="181.342" height="2.405"/>
	<path fill="#1A9F29" d="M227.264,21.692c0.502,0.701,0.902,1.303,1.402,1.905c0.403,0.602,0.904,1.203,1.305,1.804
		c0.4,0.602,0.802,1.203,1.304,1.805c0.5,0.702,0.901,1.303,1.304,2.004c0.399,0.602,0.701,1.304,1.002,1.905l8.42,0.1
		c-0.903-0.901-1.705-1.805-2.606-2.706c-0.802-0.902-1.504-1.704-2.004-2.205c-0.802-0.902-1.505-1.704-2.105-2.406
		c-0.702-0.802-1.304-1.504-1.905-2.205c-0.603-0.702-1.203-1.503-1.704-2.205s-1.103-1.604-1.604-2.406l0.401-0.501
		c0.602-0.802,1.302-1.604,2.105-2.606c0.801-1.002,1.602-2.005,2.506-2.907c0.902-1.002,1.704-1.905,2.606-2.707
		c0.901-0.802,1.603-1.404,2.305-1.904h-5.815c-0.199,0.5-0.5,1.103-0.9,1.804c-0.401,0.702-0.803,1.504-1.403,2.306
		c-0.502,0.803-1.104,1.705-1.604,2.607c-0.602,0.902-1.103,1.704-1.704,2.506c-0.602,0.802-1.103,1.604-1.604,2.206
		c-0.501,0.701-0.901,1.203-1.202,1.704C226.261,20.289,226.763,20.991,227.264,21.692z"/>
	<path fill="#1A9F29" d="M226.563,30.212c-0.101,0-0.2-0.1-0.501-0.1c-0.301-0.1-0.502-0.2-0.602-0.3
		c-0.101-0.101-0.2-0.301-0.301-0.602c0-0.3-0.1-0.601-0.1-1.002V9.211c0-0.4,0-0.801,0.1-1.001c0-0.301,0.101-0.501,0.301-0.602
		c0.1-0.1,0.301-0.2,0.602-0.302c0.301-0.1,0.4-0.1,0.501-0.1V6.305h-6.716h-1.403v0.801c0.099,0,0.199,0.1,0.501,0.1
		c0.301,0.1,0.502,0.202,0.601,0.302c0.101,0.1,0.201,0.3,0.302,0.602c0,0.301,0.1,0.601,0.1,1.002v18.997c0,0.4,0,0.802-0.1,1.002
		c0,0.299-0.101,0.501-0.302,0.601c-0.099,0.101-0.3,0.301-0.601,0.301c-0.302,0.1-0.402,0.1-0.501,0.1v0.802h8.119V30.212z"/>
	<path fill="#1A9F29" d="M172.782,28.007c0.301-1.403,0.901-3.407,1.704-5.914h7.919l1.103,3.208c0.5,1.403,0.901,2.606,1.103,3.608
		c0.302,1.002,0.501,1.704,0.501,2.205h6.316c-0.302-0.501-0.602-1.203-1.002-2.004c-0.401-0.803-0.904-2.005-1.404-3.509
		l-5.714-16.189c-0.302-0.702-0.4-1.303-0.501-1.805c-0.101-0.502-0.101-0.903-0.201-1.203h-7.118v0.801
		c0.102,0,0.201,0.1,0.502,0.1c0.301,0.102,0.501,0.202,0.603,0.302c0.099,0.1,0.2,0.301,0.3,0.602c0,0.201,0,0.3,0,0.501
		c0,0.601-0.1,1.203-0.3,1.604l-4.011,9.773c-0.702,1.805-1.403,3.409-1.904,4.611c-0.502,1.203-1.002,2.306-1.304,3.108
		c-0.4,0.802-0.7,1.504-1.003,2.005c-0.3,0.501-0.501,0.902-0.7,1.303h4.511C172.281,30.414,172.481,29.41,172.782,28.007z
		 M178.495,10.415l3.309,9.974h-6.816L178.495,10.415z"/>
	<path fill="#1A9F29" d="M200.899,30.212h-0.2c-0.101,0-0.2-0.1-0.501-0.1c-0.301-0.1-0.5-0.2-0.602-0.3
		c-0.1-0.101-0.2-0.301-0.3-0.602c0-0.3-0.101-0.601-0.101-1.002v-9.523h9.573v9.373c0,0.4,0,0.802-0.1,1.002
		c0,0.301-0.101,0.501-0.301,0.601c-0.103,0.1-0.302,0.301-0.603,0.301c-0.301,0.1-0.4,0.1-0.502,0.1v0.802h8.12v-0.802
		c-0.1,0-0.2-0.1-0.5-0.1c-0.301-0.1-0.502-0.201-0.603-0.301c-0.1-0.1-0.2-0.3-0.3-0.601c0-0.301-0.101-0.602-0.101-1.002v-4.912
		v-0.1v-9.073v-0.101V8.961c0-0.4,0-0.802,0.101-1.002c0-0.3,0.1-0.501,0.3-0.601c0.101-0.101,0.302-0.2,0.603-0.301
		c0.3-0.101,0.4-0.101,0.5-0.101V6.255h-6.715h-1.204v0.802c0.101,0,0.202,0.101,0.501,0.101c0.3,0.1,0.501,0.2,0.603,0.3
		c0.101,0.101,0.2,0.301,0.3,0.602c0,0.301,0.101,0.602,0.101,1.003v7.918h-9.573V9.112c0-0.401,0-0.802,0.101-1.002
		c0-0.301,0.1-0.501,0.301-0.601c0.1-0.1,0.301-0.202,0.601-0.302c0.301-0.1,0.401-0.1,0.501-0.1V6.305h-6.715h-1.404v0.801
		c0.1,0,0.2,0.1,0.501,0.1c0.301,0.1,0.501,0.202,0.602,0.302s0.2,0.3,0.302,0.601c0,0.301,0.099,0.602,0.099,1.002v0.602v17.092
		v0.1v1.303c0,0.401,0,0.702-0.099,1.002c0,0.301-0.102,0.501-0.302,0.602c-0.101,0.1-0.301,0.3-0.602,0.3
		c-0.301,0.1-0.401,0.1-0.501,0.1v0.803h8.119V30.212z"/>
	<path fill="#1A9F29" d="M166.015,52.518c0.903-0.351,1.354-1.003,1.354-2.056c0-1.653-1.103-2.405-3.007-2.405h-3.007v9.272h3.208
		c2.203,0,3.256-0.953,3.256-2.506C167.818,53.619,167.219,52.867,166.015,52.518z M162.407,49.108h1.804
		c1.252,0,1.955,0.452,1.955,1.555c0,1.053-0.602,1.654-1.955,1.654h-1.804V49.108z M164.461,56.427h-2.054v-3.358h2.054
		c1.455,0,2.155,0.551,2.155,1.653C166.616,55.926,165.916,56.427,164.461,56.427z"/>
	<path fill="#1A9F29" d="M172.13,51.515c0.601,0,1.054,0.251,1.554,0.602l0.301-0.853c-0.501-0.35-1.053-0.601-1.804-0.601
		c-1.805,0-3.107,1.201-3.107,3.509c0,2.255,1.202,3.358,2.905,3.358c0.752,0,1.456-0.251,1.956-0.602l-0.251-0.853
		c-0.45,0.351-0.953,0.501-1.554,0.501c-1.102,0-1.955-0.801-1.955-2.505C170.175,52.266,171.028,51.515,172.13,51.515z"/>
	<path fill="#1A9F29" d="M178.094,50.763c-1.653,0-3.007,1.203-3.007,3.51c0,2.256,1.304,3.357,3.107,3.357
		c0.752,0,1.705-0.252,2.406-0.701l-0.25-0.853c-0.753,0.351-1.354,0.602-2.056,0.602c-1.178,0-1.921-0.626-2.047-2.205h4.503
		c0-0.151,0-0.252,0-0.502C180.751,51.815,179.648,50.763,178.094,50.763z M176.24,53.57c0.101-1.354,0.852-2.056,1.854-2.056
		c0.953,0,1.655,0.602,1.655,2.056H176.24z"/>
	<polygon fill="#1A9F29" points="182.455,57.329 183.558,57.329 183.558,51.666 186.465,51.666 186.465,50.813 182.455,50.813 	"/>
	<path fill="#1A9F29" d="M192.932,50.813h-4.312c0,3.809-0.651,5.112-1.403,5.764h-0.501v2.507h1.052v-1.706h4.813v1.706h1.052
		v-2.507h-0.7V50.813z M191.727,56.528h-3.357c0.602-0.702,1.104-1.855,1.203-4.813h2.154V56.528z"/>
	<path fill="#1A9F29" d="M200.099,52.919c0-1.655-0.902-2.256-2.257-2.256c-1.002,0-1.954,0.251-2.655,0.702l0.25,0.851
		c0.702-0.352,1.354-0.602,2.306-0.65c0.902,0,1.354,0.299,1.354,1.354v0.451c-0.451-0.103-0.802-0.103-1.053-0.103
		c-2.155,0-3.106,0.904-3.106,2.258c0,1.252,0.852,1.954,1.953,1.954c0.853,0,1.555-0.352,2.156-0.951c0,0.5,0.05,0.751,0.15,0.85
		h1.053c-0.051-0.148-0.15-0.4-0.15-1.452V52.919z M198.945,55.725c-0.501,0.502-1.203,0.953-1.904,0.853
		c-0.701,0-1.204-0.351-1.204-1.203c0-0.852,0.503-1.302,2.056-1.302c0.301,0,0.552,0,1.053,0.1V55.725z"/>
	<path fill="#1A9F29" d="M207.967,50.663c-0.852,0-1.554,0.4-2.155,1.103v-0.952h-1.001v9.272h1.102v-3.509
		c0.501,0.602,1.203,0.953,1.955,0.953c1.454,0,2.656-1.204,2.656-3.51C210.523,51.864,209.422,50.663,207.967,50.663z
		 M207.616,56.678c-0.702,0-1.303-0.352-1.805-0.953v-3.108c0.553-0.601,1.254-1.002,1.905-0.95c1.002,0,1.705,0.751,1.705,2.506
		C209.422,55.926,208.67,56.678,207.616,56.678z"/>
	<path fill="#1A9F29" d="M212.026,52.768c0,0.852,0.453,1.453,1.203,1.705l-1.703,2.856h1.102l1.555-2.656h1.804v2.656h1.104v-6.516
		h-2.557C212.979,50.813,212.026,51.465,212.026,52.768z M216.088,51.716v2.305h-1.455c-1.102,0-1.553-0.45-1.553-1.202
		c0-0.651,0.451-1.103,1.553-1.103H216.088z"/>
	<path fill="#1A9F29" d="M224.857,50.813h-4.311c0,3.809-0.7,5.112-1.402,5.764h-0.502v2.507h1.053v-1.706h4.812v1.706h1.053v-2.507
		h-0.702V50.813z M223.655,56.528h-3.358c0.602-0.702,1.103-1.855,1.203-4.813h2.155V56.528z"/>
	<path fill="#1A9F29" d="M229.771,50.613c-1.653,0-3.008,1.053-3.008,3.459c0,2.405,1.253,3.458,2.907,3.458
		s3.007-1.104,3.007-3.458C232.677,51.666,231.423,50.613,229.771,50.613z M229.67,56.627c-1.053,0-1.904-0.751-1.904-2.555
		c0-1.807,0.852-2.558,1.904-2.558c1.002,0,1.905,0.751,1.905,2.558C231.575,55.876,230.723,56.627,229.67,56.627z"/>
	<path fill="#1A9F29" d="M241.248,50.813v0.05h-1.453l-1.554,3.858c-0.15,0.502-0.352,1.055-0.501,1.556
		c-0.05-0.501-0.351-1.054-0.502-1.556l-1.453-3.959h-1.303l-0.703,6.517h1.054l0.35-3.709c0.102-0.502,0.102-1.253,0.102-1.706
		c0.1,0.453,0.601,1.656,0.601,1.656l1.454,3.809h0.951l1.556-3.809c0.25-0.602,0.501-1.404,0.602-1.656
		c0,0.453,0.1,1.154,0.1,1.656l0.35,3.809h1.055l-0.603-6.516H241.248z"/>
	<path fill="#1A9F29" d="M43.989,8.883c-0.487-0.715-1.003-1.424-1.541-2.093L14.784,22.702L1.359,14.987
		c-0.265,0.853-0.464,1.718-0.629,2.622l14.055,8.086L43.989,8.883z"/>
	<path fill="#1A9F29" d="M14.784,28.69L0.389,20.403c-0.053,0.522-0.068,1.055-0.068,1.582c0,13.148,10.641,23.794,23.8,23.794
		c13.148,0,23.791-10.646,23.791-23.794c0-3.905-0.938-7.598-2.606-10.847L14.784,28.69z"/>
	<path fill="#1A9F29" d="M40.627,4.848c-0.667-0.65-1.354-1.237-2.09-1.792L14.784,16.705l-11.348-6.51
		c-0.425,0.739-0.797,1.529-1.166,2.325l12.514,7.187L40.627,4.848z"/>
	<path fill="#1A9F29" d="M36.125,1.436c-0.886-0.517-1.819-0.984-2.773-1.385L14.784,10.722L6.513,5.968
		C5.929,6.624,5.362,7.292,4.85,8.007l9.935,5.719L36.125,1.436z"/>
</g>
</svg>
