<?xml version="1.0" encoding="utf-8"?>
<!-- Generator: Adobe Illustrator 17.0.1, SVG Export Plug-In . SVG Version: 6.00 Build 0)  -->
<!DOCTYPE svg PUBLIC "-//W3C//DTD SVG 1.1//EN" "http://www.w3.org/Graphics/SVG/1.1/DTD/svg11.dtd">
<svg version="1.1" id="Слой_1" xmlns="http://www.w3.org/2000/svg" xmlns:xlink="http://www.w3.org/1999/xlink" x="0px" y="0px"
	 width="710px" height="710px" viewBox="0.003 -142.723 710 710" enable-background="new 0.003 -142.723 710 710"
	 xml:space="preserve">
<g>
	<path fill="#F04124" d="M354.663,92.821c-55.371,0-107.76,14.555-152.903,40.469l62.118,116.471
		c28.364-11.475,59.099-17.697,90.784-17.697c10.815,0,21.501,0.778,32.031,2.166l63.161-126.556
		C419.818,98.001,387.787,92.821,354.663,92.821z"/>
	<path fill="#F04124" d="M467.3,113.921l-42.18,128.563c50.587,15.315,95.02,46.958,125.853,91.013l89.853-38.297
		C612.307,210.496,548.091,145.489,467.3,113.921z"/>
	<path fill="#F04124" d="M355.003-142.723c-196.061,0-355,158.939-355,355s158.939,355,355,355s355-158.939,355-355
		S551.064-142.723,355.003-142.723z M653.696,306.915l-102.501,43.692c-1.013,0.432-2.068,0.636-3.111,0.636
		c-2.593,0-5.105-1.271-6.611-3.555c-28.92-43.877-71.994-75.266-121.309-90.112L384.411,366.54
		c-6.013,14.618-22.735,21.581-37.334,15.575c-14.617-6.007-21.567-22.704-15.568-37.315l47.661-95.507
		c-8.086-0.87-16.253-1.395-24.512-1.395c-74.846,0-144.212,36.581-185.551,97.859c-2.117,3.148-6.173,4.358-9.667,2.852
		L56.315,304.657c-3.766-1.599-5.679-5.802-4.445-9.691c41.617-130.39,163.297-217.99,302.793-217.99
		c35.661,0,70.105,5.716,102.347,16.364l35.445-71.019c0.025-0.191,0.025-0.191,0.025-0.191c0.519-1.265,1.908-2.222,3.142-1.703
		c1.259,0.513,1.846,1.92,1.327,3.179c-0.006,0.031-0.075,0.044-0.087,0.087l0.037,0.019l-24.655,75.136
		c87.723,33.988,157.026,105.414,185.903,198.446C659.357,301.175,657.432,305.336,653.696,306.915z"/>
</g>
<rect x="0.003" y="-142.723" width="0" height="0"/>
</svg>
