<?xml version="1.0" encoding="utf-8"?>
<!-- Generator: Adobe Illustrator 17.0.1, SVG Export Plug-In . SVG Version: 6.00 Build 0)  -->
<!DOCTYPE svg PUBLIC "-//W3C//DTD SVG 1.1//EN" "http://www.w3.org/Graphics/SVG/1.1/DTD/svg11.dtd">
<svg version="1.1" id="Слой_1" xmlns="http://www.w3.org/2000/svg" xmlns:xlink="http://www.w3.org/1999/xlink" x="0px" y="0px"
	 width="710px" height="710px" viewBox="0 0 710 710" enable-background="new 0 0 710 710" xml:space="preserve">
<path fill="#F04124" d="M639.637,140.541C601.132,90.269,549.789,49.623,490.96,26.091C450.316,8.978,407.531,0.42,363.675-0.649
	h-14.974c-37.437,1.069-73.803,7.487-110.175,21.391c-40.646,13.906-79.151,36.368-112.311,64.178
	c-39.576,33.158-71.664,74.874-93.057,121.938C11.767,250.711,1.071,298.845,0,348.047v14.975
	c1.068,45.995,10.696,91.988,28.879,133.703c13.906,32.089,32.089,60.968,54.552,87.709c38.508,44.924,88.779,81.291,145.47,102.684
	c37.437,14.974,78.083,22.462,118.729,23.531h14.974c29.95-1.069,58.829-5.348,86.641-12.835
	c55.62-14.974,106.963-43.854,148.677-82.361c41.714-38.508,73.803-87.71,93.057-142.261
	c12.835-35.297,19.251-71.664,20.322-109.101v-12.835C711.301,275.313,685.631,200.44,639.637,140.541z M444.821,197.029
	c5.139-2.205,10.69-3.664,16.543-4.251c31.024-3.077,58.686,19.747,61.779,51.009c3.109,31.262-19.525,59.114-50.549,62.191
	c-19.699,1.951-38.003-6.567-49.55-21.032c-15.686,13.181-32.785,40.287-67.028-1.872C408.5,288.5,394.796,214.428,444.821,197.029z
	 M242.736,192.5c31.255,0,56.592,25.337,56.592,56.592c0,31.255-25.337,56.592-56.592,56.592s-56.592-25.337-56.592-56.592
	C186.144,217.837,211.481,192.5,242.736,192.5z M146.151,517.206c-22.731-104.888-16.059-163.78-16.059-163.78
	c1.475-16.146,15.036-28.502,31.246-28.486l154.264,0.159c15.782,0.016,29.105,11.785,31.056,27.455l7.21,77.751
	c7.987-33.729,5.162-76.585,5.162-76.585c1.459-16.146,15.02-28.502,31.23-28.486c0,0,28.499-3.962,36.782,0.032
	c12.689,6.117,28.976,36.336,43.063,36.338c14.053,0.001,30.303-30.153,42.967-36.242c7.083-3.406,31.436,0.032,31.436,0.032
	c15.782,0.016,29.105,11.785,31.056,27.455c0,0,15.576,60.223-10.413,164.653C557.167,549.581,153.167,549.581,146.151,517.206z"/>
</svg>
