<?xml version="1.0" encoding="utf-8"?>
<!-- Generator: Adobe Illustrator 17.0.1, SVG Export Plug-In . SVG Version: 6.00 Build 0)  -->
<!DOCTYPE svg PUBLIC "-//W3C//DTD SVG 1.1//EN" "http://www.w3.org/Graphics/SVG/1.1/DTD/svg11.dtd">
<svg version="1.1" id="Слой_1" xmlns="http://www.w3.org/2000/svg" xmlns:xlink="http://www.w3.org/1999/xlink" x="0px" y="0px"
	 width="360px" height="322px" viewBox="0 0 360 322" enable-background="new 0 0 360 322" xml:space="preserve">
<path fill="none" stroke="#F04124" stroke-width="6" stroke-miterlimit="10" d="M356,239.393c0,6.3-3.317,13.607-9.748,13.607
	H19.036C12.606,253,6,245.692,6,239.393V14.73C6,8.431,12.606,5,19.036,5h327.216c6.43,0,9.748,3.431,9.748,9.73V239.393z"/>
<path fill="none" stroke="#F04124" stroke-width="6" stroke-miterlimit="10" d="M341,205.164c0,4.873-2.96,10.836-8.837,10.836
	H33.067C27.189,216,21,210.036,21,205.164V31.392C21,26.519,27.189,25,33.067,25h299.096c5.878,0,8.837,1.519,8.837,6.392V205.164z"
	/>
<path fill="none" stroke="#F04124" stroke-width="6" stroke-miterlimit="10" d="M140.885,251.48v14.034
	c0,40.39-43.128,42.786-43.128,42.786H79.445c-2.552,0-4.621,2.069-4.621,4.621v0.342c0,2.552,2.069,4.621,4.621,4.621h199.553
	c2.552,0,4.621-2.069,4.621-4.621v-0.342c0-2.552-2.069-4.621-4.621-4.621h-21.051c0,0-39.705-3.081-39.705-44.155V251.48"/>
<path fill="none" stroke="#F04124" stroke-width="6" stroke-miterlimit="10" d="M217,183.577c0,1.89-1.532,3.423-3.423,3.423H66.423
	c-1.89,0-3.423-1.532-3.423-3.423V85.423C63,83.532,64.532,82,66.423,82h147.154c1.89,0,3.423,1.532,3.423,3.423V183.577z"/>
<line fill="none" stroke="#F04124" stroke-width="6" stroke-miterlimit="10" x1="64" y1="91" x2="218" y2="91"/>
<line fill="none" stroke="#F04124" stroke-width="6" stroke-miterlimit="10" x1="93" y1="90" x2="93" y2="186"/>
<line fill="none" stroke="#F04124" stroke-width="6" stroke-miterlimit="10" x1="188" y1="90" x2="188" y2="186"/>
<path fill="none" stroke="#F04124" stroke-width="6" stroke-miterlimit="10" d="M175,139.577c0,1.89-1.371,3.423-3.063,3.423
	h-61.875c-1.691,0-3.063-1.532-3.063-3.423v-15.154c0-1.89,1.371-3.423,3.063-3.423h61.875c1.691,0,3.063,1.532,3.063,3.423V139.577
	z"/>
<path fill="none" stroke="#F04124" stroke-width="6" stroke-miterlimit="10" d="M136,108.577c0,1.89-1.532,3.423-3.423,3.423
	h-22.154c-1.89,0-3.423-1.532-3.423-3.423v-4.154c0-1.89,1.532-3.423,3.423-3.423h22.154c1.89,0,3.423,1.532,3.423,3.423V108.577z"
	/>
<path fill="none" stroke="#F04124" stroke-width="6" stroke-miterlimit="10" d="M107,187v-31.678c0-1.648,3.26-2.322,4.908-2.322
	h10.743c1.648,0,1.35,0.674,1.35,2.322V187"/>
<path fill="none" stroke="#F04124" stroke-width="6" stroke-miterlimit="10" d="M133,187v-31.678c0-1.648,2.43-2.322,4.078-2.322
	h10.743c1.648,0,2.18,0.674,2.18,2.322V187"/>
<path fill="none" stroke="#F04124" stroke-width="6" stroke-miterlimit="10" d="M158,187v-31.678c0-1.648,2.989-2.322,4.637-2.322
	h10.743c1.648,0,1.621,0.674,1.621,2.322V187"/>
<path fill="none" stroke="#F04124" stroke-width="6" stroke-miterlimit="10" d="M218,168h79.311c1.89,0,1.689-3.624,1.689-5.514
	V53.638c0-1.89,0.201-2.638-1.689-2.638H152.865c-1.89,0-4.865,0.748-4.865,2.638V81"/>
<line fill="none" stroke="#F04124" stroke-width="6" stroke-miterlimit="10" x1="149" y1="61" x2="301" y2="61"/>
<line fill="none" stroke="#F04124" stroke-width="6" stroke-miterlimit="10" x1="197" y1="60" x2="197" y2="81"/>
<line fill="none" stroke="#F04124" stroke-width="6" stroke-miterlimit="10" x1="244" y1="60" x2="244" y2="166"/>
<line fill="none" stroke="#F04124" stroke-width="6" stroke-miterlimit="10" x1="245" y1="91" x2="301" y2="91"/>
<line fill="none" stroke="#F04124" stroke-width="6" stroke-miterlimit="10" x1="244" y1="120" x2="301" y2="120"/>
<line fill="none" stroke="#F04124" stroke-width="6" stroke-miterlimit="10" x1="245" y1="148" x2="301" y2="148"/>
</svg>
