<?xml version="1.0" encoding="utf-8"?>
<!-- Generator: Adobe Illustrator 22.0.1, SVG Export Plug-In . SVG Version: 6.00 Build 0)  -->
<svg version="1.1" id="Livello_1" xmlns="http://www.w3.org/2000/svg" xmlns:xlink="http://www.w3.org/1999/xlink" x="0px" y="0px"
	 viewBox="0 0 140 97.4" style="enable-background:new 0 0 140 97.4;" xml:space="preserve" width="2160" height="1500">
<style type="text/css">
	.st0{opacity:0.1;}
</style>
<path class="st0" d="M32.9,24.5c0-6.9-6.9-12.3-14.2-9.4c-2.2,0.9-4,2.6-5,4.8c-3.3,7.4,2.1,14.7,9.1,14.7
	C28.4,34.7,32.9,30.1,32.9,24.5 M9.7,88c0,0-0.1,0.1-0.2,0.4h121l0,0L89.2,32.1c0,0-4.9-6.7-9.8,0L53.8,66.9l-9.4-12.8
	c0,0-4.9-6.7-9.8,0L9.7,88z M137.3,95H2.7V2.4h134.7L137.3,95L137.3,95z M140,94.7V2.1c0-1.1-0.9-2.1-2.1-2.1H2.1C0.9,0,0,0.9,0,2.1
	v93.3c0,1.1,0.9,2.1,2.1,2.1h135.2C138.7,97.4,140,96.2,140,94.7"/>
</svg>
